<?xml version="1.0" encoding="utf-8"?>
<!-- Generator: Adobe Illustrator 17.0.0, SVG Export Plug-In . SVG Version: 6.00 Build 0)  -->
<svg version="1.2" baseProfile="tiny" xmlns="http://www.w3.org/2000/svg" xmlns:xlink="http://www.w3.org/1999/xlink" x="0px"
	 y="0px" viewBox="0 0 200 200" xml:space="preserve">
<g id="Layer_1">
	<circle fill="#29ABE2" cx="100" cy="100" r="100"/>
</g>
<g id="Icons">
	<g id="Atoms">
		<path fill="#FFFFFF" d="M99.024,86.223c-4.525,0-8.194,3.668-8.194,8.194c0,4.526,4.393,6.15,4.393,13.347
			c0,0.408-0.087,0.884,0.305,0.946c-0.162,0.009-0.528,0.065-0.528,0.287v0.973v0.851v0.754v0.851v0.263
			c0,0.154,0.548,0.31,0.624,0.31h0.008c0,0,0.005,0.084,0.005,0.085c0.027,0.055,0.059,0.148,0.093,0.199
			c0.006,0.009,0.013,0.038,0.019,0.046c0.029,0.042,0.06,0.092,0.093,0.129c0.01,0.011,0.02,0.028,0.03,0.038
			c0.032,0.034,0.065,0.067,0.099,0.096c0.011,0.01,0.022,0.022,0.034,0.031c0.046,0.035,0.092,0.068,0.141,0.093l2.257,1.162
			c0.345,0.178,0.909,0.178,1.254,0l2.257-1.162c0.233-0.12,0.434-0.37,0.543-0.639c0.002-0.005,0.004-0.01,0.006-0.015
			c0.014-0.036,0.027-0.072,0.037-0.108c0.005-0.018,0.009-0.035,0.013-0.052c0.006-0.026,0.242-0.052,0.246-0.078
			c0.007-0.046,0.241-0.091,0.241-0.135v-0.358v-0.754v-0.851v-0.754v-0.546v-0.43c0-0.226-0.339-0.281-0.506-0.288
			c0.39-0.065,0.446-0.539,0.446-0.945c0-7.198,4.335-8.822,4.335-13.347C107.275,89.892,103.549,86.223,99.024,86.223z"/>
		<path fill="#FFFFFF" d="M144.465,122.074c0.169-4.21-2.343-9.605-7.363-15.648c-1.736-2.09-3.722-4.198-5.919-6.295
			c2.225-2.067,4.239-4.148,6.003-6.215c6.796-7.962,9.125-14.834,6.559-19.348c-1.852-3.257-6.103-4.979-12.293-4.979
			c-4.581,0-9.998,0.92-15.869,2.627c-0.113-0.256-0.254-0.496-0.418-0.719c-0.636-2.659-1.367-5.17-2.192-7.497
			c-0.629-1.775-1.301-3.405-2.008-4.889c0.632-0.69,1.022-1.606,1.022-2.615c0-2.14-1.735-3.875-3.875-3.875
			c-0.387,0-0.76,0.225-1.113,0.331C104.68,50.255,102.141,49,99.495,49h-0.05c-5.182,0-10.028,5.231-13.646,15.042
			c-0.931,2.525-1.755,5.187-2.466,8.105c-6.128-1.89-11.772-2.949-16.512-2.949c-3.821,0-6.883,0.67-9.077,1.996
			c-0.639-0.466-1.424-0.754-2.276-0.754c-2.14,0-3.875,1.73-3.875,3.869c0,1.557,0.92,2.893,2.245,3.509
			c-0.144,4.201,2.367,9.574,7.364,15.59c1.736,2.09,3.722,4.197,5.919,6.294c-2.225,2.068-4.239,4.148-6.003,6.215
			c-6.796,7.962-9.125,14.834-6.559,19.348c1.852,3.257,6.103,4.979,12.294,4.979c4.637,0,10.131-0.942,16.086-2.69
			c0.681,2.983,1.48,5.786,2.393,8.362c0.478,1.349,0.981,2.609,1.505,3.786c-1.037,0.695-1.721,1.878-1.721,3.221
			c0,2.14,1.735,3.875,3.875,3.875c0.627,0,1.218-0.319,1.742-0.584c2.47,3.13,5.21,4.785,8.076,4.785h0.05
			c5.182,0,10.028-5.293,13.646-15.104c0.94-2.55,1.771-5.245,2.487-8.203c6.12,1.885,11.756,2.943,16.491,2.943
			c3.809,0,6.864-0.665,9.057-1.983c0.661,0.524,1.495,0.85,2.404,0.85c2.14,0,3.875-1.73,3.875-3.869
			C146.819,124.033,145.849,122.665,144.465,122.074z M131.451,70.899c5.692,0,9.549,1.493,11.154,4.317
			c2.241,3.942-0.098,10.448-6.416,17.851c-1.749,2.05-3.75,4.114-5.962,6.166c-3.648-3.383-7.838-6.728-12.427-9.918
			c-0.368-5.202-1.03-10.174-1.963-14.768c0.05-0.248,0.076-0.503,0.076-0.766c0-0.101-0.008-0.199-0.015-0.298
			C121.662,71.803,126.971,70.899,131.451,70.899z M107.889,115.285c-2.959,1.682-5.929,3.228-8.873,4.631
			c-2.921-1.441-5.867-3.027-8.805-4.749c-2.932-1.719-5.757-3.516-8.448-5.367c-0.213-3.257-0.312-6.6-0.289-9.991
			c0.023-3.402,0.167-6.751,0.425-10.009c2.714-1.814,5.562-3.573,8.516-5.252c2.959-1.682,5.929-3.228,8.873-4.631
			c2.92,1.441,5.867,3.027,8.804,4.749c2.931,1.718,5.755,3.514,8.444,5.364c0.216,3.268,0.315,6.625,0.293,10.035
			c-0.023,3.384-0.165,6.719-0.421,9.965C113.694,111.846,110.844,113.605,107.889,115.285z M116.266,111.696
			c-0.467,5.092-1.216,9.946-2.226,14.41c-4.326-1.407-8.882-3.245-13.522-5.461c2.666-1.295,5.347-2.703,8.018-4.221
			C111.204,114.907,113.787,113.325,116.266,111.696z M88.992,120.716c-2.14,0-3.875,1.735-3.875,3.875
			c0,0.307,0.039,0.604,0.107,0.89c-0.439,0.143-0.875,0.282-1.309,0.417c-0.948-4.475-1.632-9.337-2.031-14.431
			c2.456,1.662,5.017,3.278,7.665,4.83c2.651,1.555,5.312,2.998,7.956,4.327c-1.702,0.784-3.393,1.521-5.065,2.203
			C91.797,121.575,90.496,120.716,88.992,120.716z M80.392,108.843c-4.171-2.949-7.992-6.023-11.346-9.127
			c3.397-3.061,7.26-6.084,11.472-8.978c-0.213,2.968-0.333,6.004-0.353,9.083C80.144,102.876,80.222,105.892,80.392,108.843z
			 M82.043,88.135c0.47-5.092,1.223-9.941,2.237-14.402c4.321,1.407,8.872,3.243,13.506,5.456c-2.666,1.295-5.347,2.703-8.018,4.221
			C87.102,84.926,84.521,86.507,82.043,88.135z M112.039,77.655c1.117,0,2.121-0.476,2.828-1.232c0.7,3.767,1.22,7.774,1.548,11.94
			c-2.455-1.661-5.015-3.276-7.66-4.827c-2.651-1.554-5.312-2.998-7.955-4.327c2.697-1.243,5.365-2.361,7.977-3.344
			C109.466,76.941,110.668,77.655,112.039,77.655z M117.909,90.989c4.172,2.95,7.994,6.024,11.35,9.129
			c-3.396,3.06-7.258,6.082-11.469,8.975c0.21-2.956,0.329-5.978,0.349-9.039C118.16,96.982,118.081,93.952,117.909,90.989z
			 M87.028,64.325C90.393,55.2,94.919,50,99.446,50h0.041c2.152,0,4.289,1.185,6.287,3.422c-0.933,0.708-1.538,1.818-1.538,3.08
			c0,2.14,1.735,3.872,3.875,3.872c0.643,0,1.248-0.161,1.781-0.438c0.649,1.379,1.267,2.886,1.846,4.518
			c0.64,1.804,1.223,3.721,1.748,5.735c-0.447-0.18-0.934-0.282-1.446-0.282c-2.14,0-3.875,1.735-3.875,3.875
			c0,0.304,0.038,0.597,0.104,0.881c-2.935,1.105-5.939,2.379-8.971,3.805c-5.047-2.458-10.014-4.477-14.718-6.002
			C85.285,69.559,86.103,66.834,87.028,64.325z M62.21,92.571c-4.613-5.553-7.04-10.583-7.052-14.407
			c0.103,0.008,0.205,0.016,0.31,0.016c2.14,0,3.875-1.735,3.875-3.875c0-0.803-0.245-1.55-0.663-2.169
			c1.965-1.1,4.712-1.67,8.142-1.67c4.643,0,10.184,1.005,16.212,2.87c-1.11,4.852-1.914,10.157-2.384,15.729
			c-4.631,3.128-8.867,6.417-12.56,9.752C65.904,96.735,63.932,94.644,62.21,92.571z M66.854,128.936
			c-5.692,0-9.55-1.493-11.155-4.317c-2.241-3.942,0.098-10.448,6.416-17.851c1.749-2.05,3.75-4.114,5.962-6.166
			c3.647,3.382,7.836,6.726,12.423,9.915c0.392,5.575,1.12,10.892,2.158,15.761C76.797,128.005,71.399,128.936,66.854,128.936z
			 M111.277,135.592C107.912,144.717,103.386,150,98.859,150h-0.041c-2.418,0-4.816-1.645-7.021-4.421
			c0.661-0.695,1.069-1.627,1.069-2.661c0-2.14-1.735-3.872-3.875-3.872c-0.33,0-0.649,0.047-0.955,0.125
			c-0.512-1.145-1.004-2.372-1.47-3.687c-0.906-2.555-1.697-5.341-2.371-8.308c0.511-0.158,1.024-0.321,1.54-0.49
			c0.69,1.069,1.889,1.779,3.256,1.779c2.14,0,3.875-1.735,3.875-3.875c0-0.174-0.015-0.344-0.038-0.512
			c2.037-0.828,4.101-1.734,6.178-2.711c5.053,2.461,10.026,4.482,14.735,6.007C113.033,130.311,112.209,133.063,111.277,135.592z
			 M115.291,126.504c1.103-4.857,1.902-10.167,2.369-15.738c4.63-3.127,8.864-6.415,12.555-9.749
			c2.184,2.081,4.157,4.173,5.879,6.245c4.654,5.603,7.086,10.674,7.054,14.511c-0.068-0.004-0.135-0.01-0.204-0.01
			c-2.14,0-3.875,1.735-3.875,3.875c0,0.75,0.217,1.448,0.586,2.041c-1.967,1.112-4.724,1.688-8.172,1.688
			C126.846,129.368,121.311,128.365,115.291,126.504z"/>
	</g>
</g>
</svg>
