<?xml version="1.0" encoding="utf-8"?>
<!-- Generator: Adobe Illustrator 17.0.0, SVG Export Plug-In . SVG Version: 6.00 Build 0)  -->
<svg version="1.2" baseProfile="tiny" xmlns="http://www.w3.org/2000/svg" xmlns:xlink="http://www.w3.org/1999/xlink" x="0px"
	 y="0px" viewBox="0 0 200 200" xml:space="preserve">
<g id="Layer_1">
	<circle fill="#29ABE2" cx="100" cy="100" r="100"/>
</g>
<g id="Icons">
	<path id="Light_Bulb" fill="#FFFFFF" d="M113.819,130.967c0-26.748,16.324-32.784,16.324-49.603
		c0-16.817-13.634-30.45-30.452-30.45c-16.816,0-30.45,13.633-30.45,30.45c0,16.819,16.324,22.855,16.324,49.603
		c0,1.486,0.775,3.231,2.173,3.515c-0.552,0.049-0.738,0.28-0.738,1.066v3.617v3.162v2.801v3.164v0.978
		c0,0.574-0.05,0.729,0.232,1.729h-0.056c0.055,0,0.086,0.243,0.149,0.352c0.046,0.08,0.081,0.166,0.131,0.243
		c0.049,0.076,0.094,0.155,0.148,0.228c0.062,0.085,0.121,0.169,0.187,0.249c0.075,0.091,0.151,0.18,0.232,0.265
		c0.039,0.041,0.077,0.083,0.117,0.122c0.114,0.11,0.231,0.213,0.353,0.306c0.03,0.023,0.06,0.044,0.091,0.066
		c0.135,0.097,0.272,0.188,0.414,0.261l8.388,4.318c1.282,0.661,3.379,0.661,4.662,0l8.388-4.318
		c0.864-0.445,1.614-1.373,2.016-2.372c0.008-0.02,0.016-0.041,0.024-0.061c0.051-0.133,0.099-0.265,0.137-0.4
		c0.019-0.065,0.032-0.13,0.048-0.196c0.023-0.097,0.166-0.194,0.181-0.291c0.027-0.17,0.161-0.338,0.161-0.503v-1.329v-2.803
		v-3.161v-2.803v-2.027v-1.599c0-0.802-0.483-1.027-1.054-1.07C113.334,134.185,113.819,132.447,113.819,130.967z"/>
</g>
</svg>
