<?xml version="1.0" encoding="utf-8"?>
<!-- Generator: Adobe Illustrator 17.0.0, SVG Export Plug-In . SVG Version: 6.00 Build 0)  -->
<svg version="1.2" baseProfile="tiny" xmlns="http://www.w3.org/2000/svg" xmlns:xlink="http://www.w3.org/1999/xlink" x="0px"
	 y="0px" viewBox="0 0 200 200" xml:space="preserve">
<g id="Layer_1">
	<circle fill="#29ABE2" cx="100" cy="100" r="100"/>
</g>
<g id="Icons">
	<path id="Clipboard" fill="#FFFFFF" d="M130.524,65h-24.975c-0.004-2-0.01-2.107-0.049-3.224
		c-0.221-6.342-14.232-5.589-14.011,0.974C91.515,63.517,91.522,64,91.513,65H67.476C66.439,65,65,64.998,65,66.035v0.111v84.175
		v0.111c0,0.977,1.388,1.569,2.365,1.569h0.111h62.937h0.111c1.037,0,2.476-0.643,2.476-1.68V66.035
		C133,64.998,131.561,65,130.524,65z M95.913,63.226c0-1.344,1.123-2.645,2.507-2.645c1.385,0,2.507,1.406,2.507,2.75
		c0,0.5-0.156,0.668-0.422,1.668h-4.17C96.069,64,95.913,63.726,95.913,63.226z M131.956,66.146c0-0.977-0.565-1.665-1.543-1.665
		h0.111c0.915,0,1.432,0.64,1.432,1.555V66.146z"/>
</g>
</svg>
