<?xml version="1.0" encoding="utf-8"?>
<!-- Generator: Adobe Illustrator 17.0.0, SVG Export Plug-In . SVG Version: 6.00 Build 0)  -->
<svg version="1.2" baseProfile="tiny" xmlns="http://www.w3.org/2000/svg" xmlns:xlink="http://www.w3.org/1999/xlink" x="0px"
	 y="0px" viewBox="0 0 200 200" xml:space="preserve">
<g id="Layer_1">
	<circle fill="#29ABE2" cx="100" cy="100" r="100"/>
</g>
<g id="Icons">
	<g id="Cogs">
		<path fill="#FFFFFF" d="M99.131,120.996c0,0-1.205-1.205-1.501-1.501c-0.296-0.296,0.18-1.108,0.18-1.108l-0.002-0.002
			c0.599-0.786,1.151-1.61,1.652-2.467l0.001,0c0,0,0.567-0.75,0.954-0.59c0.387,0.16,1.961,0.813,1.961,0.813
			c0.439,0.181,0.941-0.027,1.123-0.466l1.157-2.793c0.181-0.439-0.027-0.941-0.465-1.124c0,0-1.575-0.652-1.961-0.812
			c-0.36-0.149-0.274-0.934-0.26-1.049c0.251-0.954,0.445-1.898,0.58-2.898h0.002c0,0,0.237-1,0.656-1c0.419,0,2.123,0,2.123,0
			c0.474,0,0.671-0.352,0.671-0.827v-3.023c0-0.474-0.197-1.15-0.671-1.15c0,0-1.704,0-2.123,0c-0.419,0-0.655-1-0.655-1h-0.002
			c-0.134-1-0.328-1.783-0.58-2.736c-0.014-0.115-0.099-0.834,0.26-0.982c0.387-0.16,1.961-0.765,1.961-0.765
			c0.438-0.181,0.646-0.661,0.465-1.1l-1.157-2.781c-0.182-0.439-0.685-0.641-1.124-0.46c0,0-1.574,0.655-1.961,0.816
			c-0.387,0.16-0.954-0.588-0.954-0.588l0,0.001c-0.501-0.857-1.053-1.68-1.652-2.467l0.002-0.002c0,0-0.476-0.811-0.18-1.107
			c0.296-0.296,1.501-1.501,1.501-1.501c0.336-0.336,0.336-0.88,0-1.216l-2.138-2.138c-0.336-0.335-0.88-0.335-1.216,0
			c0,0-1.205,1.205-1.501,1.501c-0.296,0.296-1.107-0.179-1.107-0.179l-0.002,0.002c-0.786-0.599-1.61-1.151-2.468-1.652l0,0
			c0,0-0.749-0.567-0.589-0.954c0.16-0.387,0.812-1.961,0.812-1.961c0.182-0.438-0.027-0.942-0.465-1.124l-2.794-1.157
			c-0.439-0.181-0.941,0.027-1.123,0.466c0,0-0.652,1.574-0.812,1.961c-0.149,0.359-0.821,0.274-0.938,0.26
			c-0.954-0.251-2.79-0.445-2.79-0.58v-0.002c0,0-1-0.237-1-0.656s0-2.123,0-2.123C81,76.303,80.43,76,79.955,76h-3.024
			C76.457,76,76,76.303,76,76.777c0,0,0,1.704,0,2.123s0,0.656,0,0.656v0.002c-2,0.134-2.393,0.329-3.347,0.58
			c-0.121,0.014-1.136,0.098-1.285-0.26c-0.16-0.387-0.917-1.961-0.917-1.961c-0.182-0.439-0.737-0.647-1.176-0.465l-2.819,1.157
			c-0.438,0.182-0.66,0.685-0.478,1.123c0,0,0.646,1.574,0.806,1.962c0.16,0.385-0.587,0.95-0.592,0.953
			c-0.858,0.501-1.683,1.053-2.47,1.652l-0.003-0.002c0,0-0.811,0.476-1.107,0.18c-0.296-0.297-1.501-1.501-1.501-1.501
			c-0.336-0.336-0.88-0.336-1.216,0l-2.138,2.138c-0.336,0.336-0.336,0.88,0,1.216c0,0,1.205,1.205,1.501,1.501
			c0.296,0.296-0.18,1.107-0.18,1.107l0.002,0.002c-0.599,0.786-1.151,1.61-1.652,2.468l0,0c0,0-0.567,0.75-0.954,0.59
			c-0.387-0.161-1.961-0.812-1.961-0.812c-0.438-0.182-0.941,0.027-1.123,0.465l-1.157,2.794c-0.182,0.438,0.027,0.941,0.465,1.123
			c0,0,1.574,0.652,1.961,0.812c0.36,0.149,0.273,0.776,0.259,0.887C54.667,98.218,54.473,99,54.339,100h-0.001c0,0-0.237,1-0.656,1
			c-0.419,0-2.123,0-2.123,0c-0.475,0-1.559,0.676-1.559,1.151v3.023c0,0.474,1.084,0.826,1.559,0.826c0,0,1.704,0,2.123,0
			c0.419,0,0.656,1,0.656,1h0.001c0.134,1,0.329,1.946,0.58,2.901c0.014,0.121,0.098,0.912-0.26,1.061
			c-0.387,0.16-1.961,0.805-1.961,0.805c-0.439,0.182-0.647,0.681-0.465,1.119l1.157,2.792c0.182,0.438,0.685,0.646,1.123,0.465
			c0,0,1.574-0.653,1.961-0.813c0.387-0.16,0.954,0.589,0.954,0.589l0,0c0.501,0.857,1.053,1.681,1.652,2.467l-0.002,0.002
			c0,0,0.477,0.811,0.18,1.107c-0.296,0.296-1.501,1.501-1.501,1.501c-0.336,0.336-0.336,0.88,0,1.216l2.138,2.138
			c0.336,0.335,0.88,0.335,1.216,0c0,0,1.205-1.205,1.501-1.501c0.296-0.296,1.107,0.18,1.107,0.18l0.002-0.002
			c0.786,0.599,1.61,1.151,2.467,1.652l0,0.001c0,0,0.751,0.567,0.59,0.953c-0.16,0.387-0.812,1.962-0.812,1.962
			c-0.181,0.438,0.027,0.941,0.465,1.123l2.793,1.157c0.439,0.182,0.942-0.027,1.123-0.466c0,0,0.652-1.575,0.812-1.961
			c0.15-0.363,1.395-0.272,1.499-0.259c0.953,0.251,1.342,0.445,3.342,0.579v0.002c0,0,0,0.237,0,0.656c0,0.419,0,2.123,0,2.123
			c0,0.474,0.457,0.453,0.932,0.453h3.023c0.475,0,0.859-0.181,0.86-0.657c0,0,0.137-1.602,0.137-2.021
			c0-0.418,1.047-0.554,1.047-0.554v-0.002c0-0.134,1.834-0.328,2.787-0.579c0.106-0.013,0.862-0.103,1.011,0.259
			c0.16,0.387,0.778,1.961,0.778,1.961c0.182,0.438,0.667,0.647,1.106,0.466l2.785-1.157c0.438-0.182,0.642-0.685,0.461-1.124
			c0,0-0.577-1.574-0.737-1.961c-0.16-0.387,0.666-0.953,0.666-0.953l-0.001-0.001c0.762-0.501,1.603-1.053,2.389-1.652
			l-0.037,0.002c0,0,0.792-0.475,1.088-0.179c0.296,0.296,1.491,1.501,1.491,1.501c0.336,0.335,0.875,0.335,1.211,0l2.135-2.139
			C99.469,121.876,99.467,121.331,99.131,120.996z M80,93.031C80,93.566,79.566,94,79.031,94h-2.061C76.434,94,76,93.566,76,93.031
			v-4.063C76,88.434,76.434,88,76.969,88h2.061C79.566,88,80,88.434,80,88.969V93.031z M78.444,110.453
			c-3.75,0-6.791-3.04-6.791-6.791c0-3.75,3.04-6.79,6.791-6.79c3.75,0,6.791,3.04,6.79,6.79
			C85.234,107.413,82.194,110.453,78.444,110.453z"/>
		<circle fill="#FFFFFF" cx="78.444" cy="103.662" r="5.036"/>
		<path fill="#FFFFFF" d="M123.628,84h-0.001c0,0-0.508,0.552-0.861,0.411c-0.353-0.142-0.875-0.419-0.875-0.419
			c-0.399-0.161-0.854-0.001-1.015,0.399l-1.024,2.529c-0.161,0.4,0.033,0.846,0.432,1.007c0,0,0.523,0.076,0.875,0.218
			c0.353,0.142,0.244,0.855,0.244,0.855h0.001c-0.133,1-0.116,2.238,0.035,3.265l-0.004,0.066c0,0,0.126,0.876-0.223,1.025
			c-0.35,0.149-0.868,0.386-0.868,0.386c-0.396,0.169-0.581,0.635-0.412,1.031l1.076,2.528c0.169,0.396,0.628,0.583,1.024,0.414
			c0,0,0.518-0.22,0.868-0.369c0.35-0.15,0.871,0.527,0.871,0.527l-0.002-0.001c0.636,0.82,1.23,1.561,2.23,2.195v0.002
			c0,0,0.692,0.508,0.551,0.861c-0.142,0.353-0.349,0.875-0.349,0.875c-0.16,0.4,0.034,0.854,0.434,1.015l2.546,1.025
			c0.4,0.161,0.855-0.033,1.015-0.432c0,0-0.059-0.523,0.083-0.875c0.142-0.353,0.72-0.244,0.72-0.244v-0.002
			c2,0.133,2.377,0.116,3.404-0.035l0.137,0.004c0,0,0.911-0.126,1.06,0.223c0.149,0.35,0.404,0.868,0.404,0.868
			c0.168,0.396,0.644,0.58,1.04,0.411l2.532-1.076c0.397-0.169,0.585-0.627,0.416-1.024c0,0-0.219-0.517-0.368-0.867
			c-0.149-0.35,0.527-0.871,0.527-0.871l-0.001-0.004c0.82-0.636,1.562-1.385,2.197-2.238l0.001,0c0,0.001,0.507-0.685,0.86-0.543
			c0.353,0.142,0.875,0.352,0.875,0.352c0.4,0.161,0.854-0.033,1.015-0.433l1.024-2.545c0.161-0.4-0.033-0.854-0.433-1.015
			c0,0-0.522-0.289-0.875-0.431c-0.353-0.142-0.244-1.068-0.244-1.068h-0.001c0.133-1,0.116-2.029-0.035-3.056l0.004,0.038
			c0,0-0.126-0.824,0.224-0.973c0.35-0.149,0.868-0.36,0.868-0.36c0.396-0.169,0.58-0.622,0.411-1.019l-1.076-2.522
			c-0.169-0.397-0.627-0.579-1.023-0.411c0,0-0.518,0.221-0.868,0.371c-0.35,0.149-0.871-0.526-0.871-0.526l-0.004,0.002
			c-0.636-0.82-1.385-1.561-2.238-2.196l0-0.001c0.001,0-0.685-0.508-0.543-0.861c0.142-0.353,0.352-0.875,0.352-0.875
			c0.161-0.4-0.033-0.854-0.432-1.015l-2.546-1.024c-0.4-0.161-0.854,0.033-1.015,0.433c0,0-0.429,0.522-0.571,0.875
			c-0.142,0.352-1.207,0.244-1.207,0.244v0.001c0-0.133-1.89-0.116-2.917,0.035l0.108-0.004c0.001,0-0.788,0.126-0.938-0.224
			c-0.149-0.35-0.342-0.868-0.342-0.868c-0.169-0.396-0.614-0.581-1.01-0.412l-2.518,1.076c-0.396,0.169-0.577,0.628-0.408,1.024
			c0,0,0.223,0.518,0.372,0.868c0.149,0.349-0.525,0.871-0.525,0.871l0.002,0.138C125.003,82.266,124.263,83,123.628,84z
			 M135.274,85.026c3.139,1.262,4.659,4.83,3.397,7.968c-1.263,3.139-4.83,4.659-7.969,3.397c-3.139-1.263-4.659-4.83-3.397-7.969
			C128.568,85.284,132.136,83.763,135.274,85.026z"/>
		<circle fill="#FFFFFF" cx="132.988" cy="90.708" r="1.946"/>
		<path fill="#FFFFFF" d="M148.607,125c0,0-1.589,0-1.979,0c-0.391,0-0.611-1-0.611-1h-0.002c-0.125,0-0.306-1.656-0.539-2.543
			c-0.011-0.086-0.1-0.778,0.24-0.919c0.36-0.15,1.83-0.713,1.83-0.713c0.408-0.169,0.602-0.616,0.433-1.025l-1.078-2.593
			c-0.17-0.409-0.639-0.597-1.048-0.429c0,0-1.467,0.596-1.828,0.746c-0.361,0.149-0.889-0.565-0.889-0.565l-0.001,0.001
			c-0.467-0.762-0.982-1.551-1.54-2.284l0.001,0.007c0.001,0-0.443-0.753-0.167-1.029c0.276-0.276,1.399-1.398,1.399-1.398
			c0.313-0.312,0.313-0.819,0-1.132l-1.994-1.993c-0.312-0.312-0.82-0.311-1.134,0c0,0-1.123,1.124-1.398,1.4
			c-0.277,0.277-1.033-0.167-1.033-0.167l-0.001,0.001c-0.733-0.558-1.501-1.073-2.3-1.54l0-0.001c0,0.001-0.699-0.527-0.55-0.889
			c0.15-0.361,0.758-1.829,0.758-1.829c0.169-0.409-0.025-0.877-0.434-1.048l-2.605-1.078c-0.409-0.169-0.877,0.025-1.046,0.433
			c0,0-0.608,1.468-0.758,1.829c-0.138,0.334-0.868,0.284-0.98,0.27c-0.89-0.234-1.787-0.513-2.709-0.513h0.101
			c0,0-0.745-0.277-0.745-0.669c0-0.391,0-1.98,0-1.98c0-0.442-0.609-1.352-1.051-1.352h-2.819c-0.442,0-1.13,0.91-1.13,1.352
			c0,0,0,1.589,0,1.98c0,0.391-0.588,0.669-0.588,0.669h0.087c-0.762,0-1.854,0.28-2.745,0.514
			c-0.129,0.014-0.867,0.071-1.002-0.257c-0.15-0.361-0.76-1.835-0.76-1.835c-0.17-0.409-0.64-0.606-1.049-0.438l-2.605,1.076
			c-0.409,0.17-0.604,0.639-0.435,1.048c0,0,0.608,1.467,0.758,1.828c0.148,0.356-0.532,0.874-0.548,0.887
			c-0.8,0.468-1.569,0.983-2.303,1.542l-0.002-0.002c0.001,0-0.756,0.444-1.032,0.168c-0.276-0.276-1.4-1.4-1.4-1.4
			c-0.313-0.313-0.82-0.313-1.133,0l-1.994,1.993c-0.312,0.313-0.313,0.821,0,1.134c0,0,1.124,1.124,1.4,1.4
			c0.276,0.277-0.167,1.033-0.167,1.033l0.002-0.014c-0.558,0.733-1.072,1.521-1.539,2.283h-0.001c0.001,0-0.529,0.716-0.889,0.566
			c-0.361-0.149-1.829-0.75-1.829-0.75c-0.409-0.17-0.877,0.03-1.047,0.439l-1.079,2.607c-0.169,0.408,0.025,0.878,0.434,1.047
			c0,0,1.468,0.609,1.829,0.759c0.337,0.139,0.254,0.724,0.241,0.825c-0.234,0.889-0.415,2.548-0.54,2.548h-0.002
			c0,0-0.221,1-0.611,1c-0.391,0-1.98,0-1.98,0c-0.443,0-0.472,0.569-0.472,1.011v2.819c0,0.443,0.029,1.17,0.472,1.17
			c0,0,1.589,0,1.979,0c0.39,0,0.611,0,0.611,0h0.002c0.125,1,0.306,2.077,0.539,2.965c0.012,0.096,0.097,0.988-0.241,1.128
			c-0.361,0.149-1.829,0.818-1.829,0.818c-0.408,0.169-0.603,0.668-0.434,1.078l1.079,2.62c0.17,0.409,0.638,0.609,1.047,0.441
			c0,0,1.467-0.632,1.829-0.782c0.361-0.149,0.89,0.523,0.89,0.523l0,0.001c0.467,0.922,0.982,1.595,1.54,2.329l-0.002,0.016
			c0,0.001,0.444,0.764,0.167,1.039c-0.276,0.276-1.399,1.404-1.399,1.404c-0.313,0.312-0.313,0.821,0,1.134l1.993,1.996
			c0.313,0.312,0.82,0.312,1.134,0c0,0,1.124-1.125,1.4-1.4c0.276-0.276,1.032,0.168,1.032,0.168l-0.053-0.002
			c0.733,0.558,1.244,1.072,2.244,1.539v0.001c0,0,0.756,0.529,0.606,0.89c-0.15,0.36-0.73,1.829-0.73,1.829
			c-0.169,0.409,0.039,0.877,0.448,1.046l2.612,1.078c0.409,0.17,0.881-0.024,1.051-0.433c0,0,0.609-1.468,0.759-1.829
			c0.141-0.342,1.187-0.251,1.27-0.241c0.888,0.234,1.985,0.414,2.985,0.539v0.003c0,0,0,0.22,0,0.611c0,0.391,0,1.98,0,1.98
			c0,0.443,0.688,0.511,1.131,0.511h2.819c0.443,0,1.05-0.068,1.05-0.512c0,0,0-1.588,0-1.979c0-0.391,1-0.611,1-0.611v-0.003
			c0-0.125,1.641-0.307,2.531-0.541c0.114-0.014,0.764-0.09,0.901,0.244c0.149,0.361,0.708,1.828,0.708,1.828
			c0.169,0.409,0.614,0.604,1.023,0.433l2.592-1.078c0.408-0.169,0.596-0.638,0.427-1.047c0,0-0.611-1.475-0.76-1.836
			c-0.149-0.362,0.548-0.897,0.548-0.897h-0.001c0.799,0,1.567-0.974,2.3-1.533l0.002,0.006c0-0.001,0.756-0.441,1.032-0.165
			c0.276,0.275,1.4,1.4,1.4,1.4c0.312,0.312,0.82,0.312,1.133,0l1.993-1.994c0.313-0.312,0.313-0.819,0-1.132
			c0,0-1.123-1.124-1.4-1.4c-0.276-0.276,0.167-1.031,0.167-1.031l-0.003-0.003c0.558-0.733,1.073-1.501,1.54-2.301l0.001,0
			c0,0,0.529-0.698,0.889-0.549c0.361,0.149,1.829,0.758,1.829,0.758c0.409,0.169,0.877-0.026,1.048-0.436l1.078-2.604
			c0.17-0.408-0.024-0.877-0.433-1.046c0,0-1.469-0.609-1.83-0.758c-0.339-0.14-0.252-1.158-0.241-1.248
			c0.234-0.888,0.414-1.965,0.539-2.965h0.001c0.001,0,0.222,0,0.612,0c0.391,0,1.979,0,1.979,0c0.443,0,1.393-0.727,1.393-1.171
			v-2.819C150,125.568,149.05,125,148.607,125z M125,146.41v-14.213c1-0.229,1.546-0.684,2.16-1.305l12.361,7.104
			C136.324,142.77,130,146.013,125,146.41z M107.568,137.994l12.237-7.106c0.614,0.624,1.195,1.08,2.195,1.309v14.213
			C116,146.014,110.764,142.769,107.568,137.994z M122,108.429v14.215c-1,0.229-1.511,0.687-2.126,1.311l-12.379-7.106
			C110.692,112.071,116,108.825,122,108.429z M139.47,116.843l-12.256,7.108c-0.614-0.623-1.213-1.079-2.213-1.307v-14.215
			C130,108.825,136.273,112.069,139.47,116.843z M123.54,130.557c-1.733,0-3.138-1.404-3.138-3.137c0-1.733,1.405-3.138,3.138-3.138
			c1.732,0,3.137,1.405,3.137,3.138C126.677,129.153,125.272,130.557,123.54,130.557z M118.771,128.707l-12.316,7.11
			c-1.248-2.533-1.951-5.383-1.951-8.397c0-3.014,0.703-5.863,1.95-8.396l12.316,7.111c-0.11,0.411-0.175,0.84-0.175,1.285
			C118.595,127.866,118.66,128.296,118.771,128.707z M128.308,126.13l12.315-7.111c1.248,2.534,1.952,5.385,1.952,8.401
			c0,3.016-0.704,5.866-1.952,8.4l-12.316-7.107c0.112-0.413,0.177-0.845,0.177-1.293
			C128.484,126.973,128.419,126.542,128.308,126.13z"/>
		<circle fill="#FFFFFF" cx="123.54" cy="127.42" r="2.305"/>
		<path fill="#FFFFFF" d="M149.535,72.167l-8.027-25.264c-0.122-0.384-0.475-0.643-0.879-0.643c-0.095,0-0.189,0.015-0.279,0.043
			c-0.485,0.154-0.753,0.674-0.599,1.158l0.023,0.073c-1.473,1.328-7.852,7.438-7.853,13.641c-3.753,1.578-16.458,7.014-19.323,8.24
			l-0.054,0.023l-0.049,0.034c-1.307,0.912-3.532,2.563-3.753,3.372c-0.202,0.74-0.846,7.564-0.973,8.924l1.141,0.157
			c0.389-2.126,1.591-7.907,2.464-9.093c0.861-0.936,11.912-4.059,22.233-6.625c3.67,4.894,12.193,6.17,14.135,6.401l0.037,0.117
			c0.122,0.384,0.475,0.643,0.879,0.643c0.095,0,0.189-0.015,0.279-0.043c0.235-0.074,0.427-0.236,0.54-0.455
			C149.589,72.652,149.61,72.402,149.535,72.167z"/>
		<path fill="#FFFFFF" d="M108.287,90h0.017c1.534-1,1.846-2.353,0.728-3.679c-0.653-0.774-0.728-2.321-0.728-2.321h-0.017
			c0,0-0.075,1.546-0.728,2.321C106.441,87.647,106.753,89,108.287,90z"/>
	</g>

</g>
</svg>
