<?xml version="1.0" encoding="utf-8"?>
<!-- Generator: Adobe Illustrator 17.0.0, SVG Export Plug-In . SVG Version: 6.00 Build 0)  -->
<svg version="1.2" baseProfile="tiny" xmlns="http://www.w3.org/2000/svg" xmlns:xlink="http://www.w3.org/1999/xlink" x="0px"
	 y="0px" viewBox="0 0 200 200" xml:space="preserve">
<g id="Layer_1">
	<circle fill="#29ABE2" cx="100" cy="100" r="100"/>
</g>
<g id="Icons">
	<path id="Controller" fill="#EEFAFF" d="M132.168,87h-30.865c0-1-0.304-1.729-0.304-2.095V60.845c0-0.664-0.836-1.203-1.5-1.203
		S98,60.181,98,60.845v24.06C97,85.271,97.295,86,97.295,87H66.832c-14.611,0-26.455,11.594-26.455,26.205
		c0,14.611,11.844,26.334,26.455,26.334c7.638,0,14.516-3.539,19.345-8.539h26.647c4.829,5,11.707,8.414,19.345,8.414
		c14.611,0,26.455-11.596,26.455-26.207C158.624,98.596,146.78,87,132.168,87z"/>
</g>
</svg>
