<?xml version="1.0" encoding="UTF-8" standalone="no"?>
<!-- Created with Inkscape (http://www.inkscape.org/) -->

<svg
   xmlns:dc="http://purl.org/dc/elements/1.1/"
   xmlns:cc="http://creativecommons.org/ns#"
   xmlns:rdf="http://www.w3.org/1999/02/22-rdf-syntax-ns#"
   xmlns:svg="http://www.w3.org/2000/svg"
   xmlns="http://www.w3.org/2000/svg"
   xmlns:sodipodi="http://sodipodi.sourceforge.net/DTD/sodipodi-0.dtd"
   xmlns:inkscape="http://www.inkscape.org/namespaces/inkscape"
   version="1.1"
   viewBox="0 0 300 300"
   id="svg2"
   inkscape:version="0.48.4 r9939"
   sodipodi:docname="analytical.svg">
  <sodipodi:namedview
     pagecolor="#ffffff"
     bordercolor="#666666"
     borderopacity="1"
     objecttolerance="10"
     gridtolerance="10"
     guidetolerance="10"
     inkscape:pageopacity="0"
     inkscape:pageshadow="2"
     inkscape:window-width="1846"
     inkscape:window-height="1058"
     id="namedview125"
     showgrid="false"
     inkscape:zoom="2.2250293"
     inkscape:cx="197.37123"
     inkscape:cy="226.87891"
     inkscape:window-x="-8"
     inkscape:window-y="-8"
     inkscape:window-maximized="1"
     inkscape:current-layer="svg2" />
  <defs
     id="defs4" />
  <metadata
     id="metadata7">
    <rdf:RDF>
      <cc:Work
         rdf:about="">
        <dc:format>image/svg+xml</dc:format>
        <dc:type
           rdf:resource="http://purl.org/dc/dcmitype/StillImage" />
        <dc:title />
      </cc:Work>
    </rdf:RDF>
  </metadata>
  <path
     d="m 31.822599,292.98632 72.874451,0.2867 c 0,0 -14.251416,-102.27078 -40.612707,-125.84595 -16.575749,-14.82385 -36.487598,-10.66916 -47.0107,10.57199 -15.3791934,31.04326 14.748956,114.98726 14.748956,114.98726 z"
     id="path4708"
     style="fill:#ffffff;stroke:#000000;stroke-width:5;stroke-linecap:butt;stroke-linejoin:miter;stroke-miterlimit:4;stroke-opacity:1;stroke-dasharray:none;fill-opacity:1"
     inkscape:connector-curvature="0" />
  <path
     d="M 180.83149,79.19932 C 129.80653,73.05811 38.481243,109.35118 13.419982,155.45552 2.0136745,176.43932 21.181967,201.61757 46.123838,200.75804 99.771713,198.90929 173.08673,141.29081 191.12271,95.89529 194.0767,88.4603 189.01268,80.18399 180.83149,79.19932 z"
     id="path4702"
     style="fill:#ffffff;fill-opacity:1;stroke:#000000;stroke-width:5;stroke-linecap:butt;stroke-linejoin:miter;stroke-miterlimit:4;stroke-opacity:1;stroke-dasharray:none"
     inkscape:connector-curvature="0" />
  <path
     d="m 67.56926,165.41856 a 20.660344,20.660344 0 1 1 -41.203002,3.11639 20.660344,20.660344 0 0 1 41.203002,-3.11639 z"
     id="path4706"
     style="fill:#ffffff;fill-opacity:1;fill-rule:nonzero;stroke:#000000;stroke-width:3;stroke-linecap:round;stroke-linejoin:round;stroke-miterlimit:4;stroke-opacity:1;stroke-dasharray:none;stroke-dashoffset:0"
     inkscape:connector-curvature="0" />
  <path
     d="m 184.1215,71.03233 c -6.85006,8.42535 1.69827,28.73412 12.4714,30.09407 10.03875,1.26724 21.88189,-14.84019 18.22557,-24.2749 -3.76335,-9.71083 -24.12705,-13.89996 -30.69697,-5.81917 z"
     id="path4710"
     style="fill:#ffffff;fill-opacity:1;stroke:#000000;stroke-width:3;stroke-linecap:butt;stroke-linejoin:miter;stroke-miterlimit:4;stroke-opacity:1;stroke-dasharray:none"
     inkscape:connector-curvature="0" />
  <path
     style="fill:#ffffff;fill-opacity:1;stroke:none"
     d="m 189.91425,135.3965 c -7.27847,9.96522 -14.21452,22.00202 -20.15625,37.875 22.65922,21.24528 63.77138,33.61678 97.5,28.375 5.69392,-28.28107 3.00691,-48.66467 -0.5625,-66.78125"
     id="path4700-1-7"
     inkscape:connector-curvature="0"
     sodipodi:nodetypes="cccc" />
  <path
     id="path4700"
     style="fill:none;stroke:#000000;stroke-width:3;stroke-linecap:butt;stroke-linejoin:miter;stroke-miterlimit:4;stroke-opacity:1;stroke-dasharray:none"
     d="m 189.53026,135.40016 77.78108,-0.54205 m -97.55375,38.41926 c 18.35875,-49.04433 46.33932,-61.461 63.91354,-89.32784 7.92807,-9.3675 -0.14361,-29.90243 4.21391,-52.2061 16.50004,1.69213 38.73344,9.64577 56.05912,18.10373 -4.32169,17.22187 -37.48366,29.62295 -33.74378,42.1872 0.19082,32.94508 17.38155,58.2742 7.04557,109.61189 -33.72862,5.24178 -74.82914,-7.1236 -97.48836,-28.36888 z" />
  <path
     style="fill:#ffffff;fill-opacity:1;stroke:#000000;stroke-width:5;stroke-linecap:round;stroke-linejoin:round;stroke-miterlimit:4;stroke-opacity:1;stroke-dasharray:none"
     d="m 235.46136,58.3125 c -15.77821,2.912024 -27.37502,16.351085 -16.49261,30.34375 6.0676,7.80176 26.18663,12.46751 37.125,7.625 3.3753,-1.494273 6.75857,-5.53847 8.5625,-7.71875 -5.72191,2.798848 -28.3154,1.233576 -35.09375,-12.28125 -3.09759,-6.176059 -0.60548,-8.85536 6.27386,-10.78125 -0.079,-2.332976 -0.23783,-4.614166 -0.375,-7.1875 z m 29.19489,30.25 c 0.79218,-0.387489 1.28535,-0.87228 1.34375,-1.40625 0.0257,-0.235184 -0.5168,0.406777 -1.34375,1.40625 z"
     id="path4712"
     inkscape:connector-curvature="0"
     sodipodi:nodetypes="csscscccsc" />
</svg>
