<?xml version="1.0" encoding="UTF-8" standalone="no"?>
<!-- Created with Inkscape (http://www.inkscape.org/) -->

<svg
   xmlns:dc="http://purl.org/dc/elements/1.1/"
   xmlns:cc="http://creativecommons.org/ns#"
   xmlns:rdf="http://www.w3.org/1999/02/22-rdf-syntax-ns#"
   xmlns:svg="http://www.w3.org/2000/svg"
   xmlns="http://www.w3.org/2000/svg"
   xmlns:sodipodi="http://sodipodi.sourceforge.net/DTD/sodipodi-0.dtd"
   xmlns:inkscape="http://www.inkscape.org/namespaces/inkscape"
   version="1.1"
   viewBox="0 0 300 300"
   id="svg2"
   inkscape:version="0.48.4 r9939"
   sodipodi:docname="analytical.svg">
  <sodipodi:namedview
     pagecolor="#ffffff"
     bordercolor="#666666"
     borderopacity="1"
     objecttolerance="10"
     gridtolerance="10"
     guidetolerance="10"
     inkscape:pageopacity="0"
     inkscape:pageshadow="2"
     inkscape:window-width="1846"
     inkscape:window-height="1058"
     id="namedview125"
     showgrid="false"
     inkscape:zoom="0.55625733"
     inkscape:cx="-130.44574"
     inkscape:cy="371.79417"
     inkscape:window-x="-8"
     inkscape:window-y="-8"
     inkscape:window-maximized="1"
     inkscape:current-layer="svg2" />
  <defs
     id="defs4" />
  <metadata
     id="metadata7">
    <rdf:RDF>
      <cc:Work
         rdf:about="">
        <dc:format>image/svg+xml</dc:format>
        <dc:type
           rdf:resource="http://purl.org/dc/dcmitype/StillImage" />
        <dc:title></dc:title>
      </cc:Work>
    </rdf:RDF>
  </metadata>
  <path
     d="m 169.75759,173.27737 c 18.35875,-49.04433 46.33932,-61.461 63.91354,-89.32784 7.92807,-9.3675 -0.14361,-29.90243 4.21391,-52.2061 16.50004,1.69213 38.73344,9.64577 56.05912,18.10373 -4.32169,17.22187 -37.48366,29.62295 -33.74378,42.1872 0.19082,32.94508 17.38155,58.2742 7.04557,109.61189 -33.72862,5.24178 -74.82914,-7.1236 -97.48836,-28.36888 z"
     id="path4626-2-7"
     style="fill:#ffffff;stroke:#000000;stroke-width:5;stroke-linecap:butt;stroke-linejoin:miter;stroke-miterlimit:4;stroke-opacity:1;stroke-dasharray:none;fill-opacity:1"
     inkscape:connector-curvature="0" />
  <path
     d="m 189.53026,135.40016 77.78108,-0.54205"
     id="path4700"
     style="fill:none;stroke:#000000;stroke-width:3;stroke-linecap:butt;stroke-linejoin:miter;stroke-miterlimit:4;stroke-opacity:1;stroke-dasharray:none"
     inkscape:connector-curvature="0" />
  <path
     d="m 31.822599,292.98632 72.874451,0.2867 c 0,0 -14.251416,-102.27078 -40.612707,-125.84595 -16.575749,-14.82385 -36.487598,-10.66916 -47.0107,10.57199 -15.3791934,31.04326 14.748956,114.98726 14.748956,114.98726 z"
     id="path4708"
     style="fill:#ffffff;stroke:#000000;stroke-width:5;stroke-linecap:butt;stroke-linejoin:miter;stroke-miterlimit:4;stroke-opacity:1;stroke-dasharray:none;fill-opacity:1"
     inkscape:connector-curvature="0" />
  <path
     d="M 180.83149,79.19932 C 129.80653,73.05811 38.481243,109.35118 13.419982,155.45552 2.0136745,176.43932 21.181967,201.61757 46.123838,200.75804 99.771713,198.90929 173.08673,141.29081 191.12271,95.89529 194.0767,88.4603 189.01268,80.18399 180.83149,79.19932 z"
     id="path4702"
     style="fill:#ffffff;fill-opacity:1;stroke:#000000;stroke-width:5;stroke-linecap:butt;stroke-linejoin:miter;stroke-miterlimit:4;stroke-opacity:1;stroke-dasharray:none"
     inkscape:connector-curvature="0" />
  <path
     d="m 67.56926,165.41856 a 20.660344,20.660344 0 1 1 -41.203002,3.11639 20.660344,20.660344 0 0 1 41.203002,-3.11639 z"
     id="path4706"
     style="fill:#ffffff;fill-opacity:1;fill-rule:nonzero;stroke:#000000;stroke-width:3;stroke-linecap:round;stroke-linejoin:round;stroke-miterlimit:4;stroke-opacity:1;stroke-dasharray:none;stroke-dashoffset:0"
     inkscape:connector-curvature="0" />
  <path
     d="m 184.1215,71.03233 c -6.85006,8.42535 1.69827,28.73412 12.4714,30.09407 10.03875,1.26724 21.88189,-14.84019 18.22557,-24.2749 -3.76335,-9.71083 -24.12705,-13.89996 -30.69697,-5.81917 z"
     id="path4710"
     style="fill:#ffffff;fill-opacity:1;stroke:#000000;stroke-width:3;stroke-linecap:butt;stroke-linejoin:miter;stroke-miterlimit:4;stroke-opacity:1;stroke-dasharray:none"
     inkscape:connector-curvature="0" />
  <path
     d="m 255.43961,59.97023 c -18.10464,-8.73926 -51.40707,9.45341 -36.45599,28.6776 6.0676,7.80176 26.1653,12.47308 37.10367,7.63057 4.92259,-2.17927 9.98697,-9.87264 9.90515,-9.12442 -0.48025,4.39085 -28.70237,4.5127 -36.41916,-10.8732 -5.93188,-11.82715 19.94747,-10.79056 25.86633,-16.31055 z"
     id="path4712"
     style="fill:#ffffff;fill-opacity:1;stroke:#000000;stroke-width:5;stroke-linecap:round;stroke-linejoin:round;stroke-miterlimit:4;stroke-opacity:1;stroke-dasharray:none"
     inkscape:connector-curvature="0" />
  <path
     d="m 236.96133,58.24766 c 0.57494,8.47685 0.6393,-1.6176 -0.11595,8.11688"
     id="path4790"
     style="fill:none;stroke:#000000;stroke-width:3.4507165;stroke-linecap:butt;stroke-linejoin:miter;stroke-miterlimit:4;stroke-opacity:1;stroke-dasharray:none"
     inkscape:connector-curvature="0" />
  <path
     d="m 238.41064,54.79461 c 0.22896,5.98744 0.64417,9.76126 0.57972,15.06783 0.65111,0.80585 4.66485,2.92176 5.50739,2.82521 2.21186,-0.25348 24.77766,-11.46466 22.7319,-16.46874 -2.04576,-5.00409 -28.81901,-1.4243 -28.81901,-1.4243 z"
     id="path4792"
     style="fill:#ffffff;fill-opacity:1;stroke:none"
     inkscape:connector-curvature="0" />
</svg>
