<?xml version="1.0" encoding="UTF-8" standalone="no"?>
<!-- Created with Inkscape (http://www.inkscape.org/) -->

<svg
   xmlns:dc="http://purl.org/dc/elements/1.1/"
   xmlns:cc="http://creativecommons.org/ns#"
   xmlns:rdf="http://www.w3.org/1999/02/22-rdf-syntax-ns#"
   xmlns:svg="http://www.w3.org/2000/svg"
   xmlns="http://www.w3.org/2000/svg"
   xmlns:sodipodi="http://sodipodi.sourceforge.net/DTD/sodipodi-0.dtd"
   xmlns:inkscape="http://www.inkscape.org/namespaces/inkscape"
   version="1.1"
   viewBox="0 0 300 300"
   id="svg2"
   inkscape:version="0.48.4 r9939"
   sodipodi:docname="curiosity.svg">
  <sodipodi:namedview
     pagecolor="#ffffff"
     bordercolor="#666666"
     borderopacity="1"
     objecttolerance="10"
     gridtolerance="10"
     guidetolerance="10"
     inkscape:pageopacity="0"
     inkscape:pageshadow="2"
     inkscape:window-width="1846"
     inkscape:window-height="1058"
     id="namedview125"
     showgrid="false"
     inkscape:zoom="6.2933333"
     inkscape:cx="88.029662"
     inkscape:cy="150"
     inkscape:window-x="-8"
     inkscape:window-y="-8"
     inkscape:window-maximized="1"
     inkscape:current-layer="svg2" />
  <defs
     id="defs4" />
  <metadata
     id="metadata7">
    <rdf:RDF>
      <cc:Work
         rdf:about="">
        <dc:format>image/svg+xml</dc:format>
        <dc:type
           rdf:resource="http://purl.org/dc/dcmitype/StillImage" />
        <dc:title />
      </cc:Work>
    </rdf:RDF>
  </metadata>
  <path
     inkscape:connector-curvature="0"
     style="fill:#ffffff;fill-opacity:1;stroke:#000000;stroke-width:1.5;stroke-linecap:butt;stroke-linejoin:miter;stroke-miterlimit:4;stroke-opacity:1;stroke-dasharray:none"
     id="path4548-7"
     d="m 183.66754,95.507684 c -10.52636,-5.278278 -22.98548,-3.043118 -30.89425,3.78124 -1.76618,-9.050244 10.06083,-15.928365 18.42705,-14.459828 8.28968,1.455097 14.44588,8.344751 12.4672,10.678588 z"
     sodipodi:nodetypes="ccsc" />
  <path
     inkscape:connector-curvature="0"
     style="fill:none;stroke:#000000;stroke-width:3;stroke-linecap:round;stroke-linejoin:round;stroke-miterlimit:4;stroke-opacity:1;stroke-dasharray:none"
     id="path4227-2-5-7"
     d="m 59.593337,219.44234 -13.826645,-55.30658 55.306578,8.29599" />
  <path
     inkscape:connector-curvature="0"
     style="fill:none;stroke:#000000;stroke-width:3;stroke-linecap:round;stroke-linejoin:round;stroke-miterlimit:4;stroke-opacity:1;stroke-dasharray:none"
     id="path4227-2-5"
     d="m 243.05633,219.15484 13.82664,-55.30657 -55.30657,8.29598" />
  <path
     inkscape:connector-curvature="0"
     style="fill:#ffffff;fill-opacity:1;fill-rule:nonzero;stroke:#000000;stroke-width:3;stroke-linecap:round;stroke-linejoin:round;stroke-miterlimit:4;stroke-opacity:1;stroke-dasharray:none;stroke-dashoffset:0"
     id="rect4207-2"
     d="m 45.096265,204.23796 39.277002,0 0,61.88746 -39.277002,0 z" />
  <path
     inkscape:connector-curvature="0"
     style="fill:#ffffff;fill-opacity:1;fill-rule:nonzero;stroke:#000000;stroke-width:3;stroke-linecap:round;stroke-linejoin:round;stroke-miterlimit:4;stroke-opacity:1;stroke-dasharray:none;stroke-dashoffset:0"
     id="rect4207-3-2"
     d="m 254.79648,205.95346 -39.27701,0 0,61.88746 39.27701,0 z" />
  <path
     inkscape:connector-curvature="0"
     style="fill:none;stroke:#000000;stroke-width:5;stroke-linecap:round;stroke-linejoin:round;stroke-miterlimit:4;stroke-opacity:1;stroke-dasharray:none"
     id="path4227-2-8"
     d="m 40.338082,231.59722 -13.826643,-55.30657 55.306574,8.29598" />
  <rect
     style="fill:#ffffff;fill-opacity:1;fill-rule:nonzero;stroke:#000000;stroke-width:5;stroke-linecap:round;stroke-linejoin:round;stroke-miterlimit:4;stroke-opacity:1;stroke-dasharray:none;stroke-dashoffset:0"
     id="rect4207"
     y="214.96338"
     x="10.195441"
     height="77.622444"
     width="52.802303" />
  <path
     inkscape:connector-curvature="0"
     style="fill:none;stroke:#000000;stroke-width:5;stroke-linecap:round;stroke-linejoin:round;stroke-miterlimit:4;stroke-opacity:1;stroke-dasharray:none"
     id="path4227-2"
     d="m 261.56437,231.59722 13.82665,-55.30657 -55.30658,8.29598" />
  <rect
     style="fill:#ffffff;fill-opacity:1;fill-rule:nonzero;stroke:#000000;stroke-width:5;stroke-linecap:round;stroke-linejoin:round;stroke-miterlimit:4;stroke-opacity:1;stroke-dasharray:none;stroke-dashoffset:0"
     id="rect4207-3"
     transform="scale(-1,1)"
     y="217.26965"
     x="-292.10739"
     height="77.622444"
     width="52.802303" />
  <path
     inkscape:connector-curvature="0"
     style="fill:none;stroke:#000000;stroke-width:5;stroke-linecap:butt;stroke-linejoin:miter;stroke-miterlimit:4;stroke-opacity:1;stroke-dasharray:none"
     id="path4353"
     d="m 150.95123,114.07075 0,55.30658" />
  <path
     inkscape:connector-curvature="0"
     style="fill:#ffffff;fill-opacity:1;fill-rule:nonzero;stroke:none;stroke-width:5;stroke-linecap:round;stroke-linejoin:round;stroke-miterlimit:4;stroke-opacity:1;stroke-dasharray:none;stroke-dashoffset:0"
     d="m 185.28175,72.812496 -80.75,10.0625 L 98.313,134.125 203.90675,120.96875 185.28175,72.812496 z m -17.5,11.65625 a 16.548585,16.548585 0 0 1 16.8125,11.875 16.548585,16.548585 0 0 1 -31.75,9.343754 16.548585,16.548585 0 0 1 14.9375,-21.218754 z m -41.75,5 a 16.548587,16.548587 0 0 1 0.0312,0 16.548587,16.548587 0 0 1 16.8125,11.875004 16.548587,16.548587 0 0 1 -31.75,9.34375 16.548587,16.548587 0 0 1 14.90625,-21.218754 z"
     id="path3769-1" />
  <rect
     style="fill:#ffffff;fill-opacity:1;fill-rule:nonzero;stroke:#000000;stroke-width:5;stroke-linecap:round;stroke-linejoin:round;stroke-miterlimit:4;stroke-opacity:1;stroke-dasharray:none;stroke-dashoffset:0"
     id="rect4205"
     y="160.91412"
     x="75.952919"
     height="74.998306"
     width="149.99661" />
  <path
     style="fill:none;fill-opacity:1;fill-rule:nonzero;stroke:#000000;stroke-width:5;stroke-linecap:round;stroke-linejoin:round;stroke-miterlimit:4;stroke-opacity:1;stroke-dasharray:none;stroke-dashoffset:0"
     d="m 185.28175,72.8125 -80.75,10.0625 -6.21875,51.25 105.59375,-13.15625 -18.625,-48.15625 z"
     id="path3795" />
  <path
     style="fill:none;fill-opacity:1;fill-rule:nonzero;stroke:#000000;stroke-width:3;stroke-linecap:round;stroke-linejoin:round;stroke-miterlimit:4;stroke-opacity:1;stroke-dasharray:none;stroke-dashoffset:0"
     d="m 167.78175,84.46875 a 16.548585,16.548585 0 0 1 16.8125,11.875 16.548585,16.548585 0 0 1 -31.75,9.34375 16.548585,16.548585 0 0 1 14.9375,-21.21875 z"
     id="path3793" />
  <path
     inkscape:connector-curvature="0"
     style="fill:#ffffff;fill-opacity:1;stroke:#000000;stroke-width:1.50000000000000000;stroke-linecap:butt;stroke-linejoin:miter;stroke-miterlimit:4;stroke-opacity:1;stroke-dasharray:none"
     id="path4548"
     d="m 111.02917,107.3366 c 7.59247,-9.001063 19.92354,-11.859403 29.88235,-8.70619 -1.94527,-9.013454 -15.52609,-10.67117 -22.63553,-6.022936 -7.0444,4.605709 -9.9854,13.364516 -7.24682,14.729126 z"
     sodipodi:nodetypes="ccsc" />
  <path
     style="fill:none;fill-opacity:1;fill-rule:nonzero;stroke:#000000;stroke-width:3;stroke-linecap:round;stroke-linejoin:round;stroke-miterlimit:4;stroke-opacity:1;stroke-dasharray:none;stroke-dashoffset:0"
     d="m 126.03175,89.46875 a 16.548587,16.548587 0 0 1 0.0312,0 16.548587,16.548587 0 0 1 16.8125,11.875 16.548587,16.548587 0 0 1 -31.75,9.34375 16.548587,16.548587 0 0 1 14.90625,-21.21875 z"
     id="path3769" />
</svg>
