<?xml version="1.0" encoding="UTF-8" standalone="no"?>
<!-- Created with Inkscape (http://www.inkscape.org/) -->

<svg
   xmlns:dc="http://purl.org/dc/elements/1.1/"
   xmlns:cc="http://creativecommons.org/ns#"
   xmlns:rdf="http://www.w3.org/1999/02/22-rdf-syntax-ns#"
   xmlns:svg="http://www.w3.org/2000/svg"
   xmlns="http://www.w3.org/2000/svg"
   xmlns:xlink="http://www.w3.org/1999/xlink"
   xmlns:sodipodi="http://sodipodi.sourceforge.net/DTD/sodipodi-0.dtd"
   xmlns:inkscape="http://www.inkscape.org/namespaces/inkscape"
   width="800"
   height="160"
   id="svg2"
   version="1.1"
   inkscape:version="0.48.4 r9939"
   sodipodi:docname="learn.svg">
  <defs
     id="defs4">
    <linearGradient
       id="linearGradient3835">
      <stop
         style="stop-color:#000000;stop-opacity:0;"
         offset="0"
         id="stop3837" />
      <stop
         style="stop-color:#000000;stop-opacity:0;"
         offset="1"
         id="stop3839" />
    </linearGradient>
    <linearGradient
       id="linearGradient4675">
      <stop
         style="stop-color:#000000;stop-opacity:1;"
         offset="0"
         id="stop4677" />
      <stop
         style="stop-color:#ffffff;stop-opacity:1;"
         offset="1"
         id="stop4679" />
    </linearGradient>
    <radialGradient
       inkscape:collect="always"
       xlink:href="#linearGradient3835"
       id="radialGradient3841"
       cx="71.986524"
       cy="962.29087"
       fx="71.986524"
       fy="962.29087"
       r="52.602416"
       gradientTransform="matrix(0.92342075,0,0,0.92342075,-75.858047,401.39848)"
       gradientUnits="userSpaceOnUse" />
  </defs>
  <sodipodi:namedview
     id="base"
     pagecolor="#ffffff"
     bordercolor="#666666"
     borderopacity="1.0"
     inkscape:pageopacity="0.0"
     inkscape:pageshadow="2"
     inkscape:zoom="1.2412327"
     inkscape:cx="335.61124"
     inkscape:cy="2.9778357"
     inkscape:document-units="px"
     inkscape:current-layer="layer1"
     showgrid="false"
     borderlayer="true"
     inkscape:showpageshadow="false"
     inkscape:window-width="1846"
     inkscape:window-height="1058"
     inkscape:window-x="-8"
     inkscape:window-y="-8"
     inkscape:window-maximized="1">
    <inkscape:grid
       type="xygrid"
       id="grid2985"
       empspacing="5"
       visible="true"
       enabled="true"
       snapvisiblegridlinesonly="true"
       spacingx="20px"
       spacingy="20px" />
  </sodipodi:namedview>
  <metadata
     id="metadata7">
    <rdf:RDF>
      <cc:Work
         rdf:about="">
        <dc:format>image/svg+xml</dc:format>
        <dc:type
           rdf:resource="http://purl.org/dc/dcmitype/StillImage" />
        <dc:title />
      </cc:Work>
    </rdf:RDF>
  </metadata>
  <g
     inkscape:label="Layer 1"
     inkscape:groupmode="layer"
     id="layer1"
     transform="translate(0,-892.36218)">
    <g
       id="g4561"
       transform="translate(11.488749,-202.9679)">
      <path
         sodipodi:nodetypes="cssscc"
         inkscape:connector-curvature="0"
         id="path4022"
         d="m 152.5293,949.43573 c 0.94355,4.61099 1.43905,9.38518 1.43905,14.27511 0,39.11946 -31.71253,70.83196 -70.831928,70.83196 -39.119399,0 -70.831937,-31.7125 -70.831937,-70.83196 0,-39.1194 31.712538,-70.83193 70.831937,-70.83193 19.068378,0.12439 37.055108,7.81008 50.085738,20.74618"
         style="fill:none;stroke:#000000;stroke-width:4;stroke-linecap:round;stroke-linejoin:round;stroke-miterlimit:4;stroke-opacity:1;stroke-dasharray:none;stroke-dashoffset:0" />
      <path
         transform="matrix(0.35326078,0,0,0.35326078,47.810344,928.38476)"
         d="m 120,100 c 0,11.04569 -8.95431,20 -20,20 -11.045695,0 -20,-8.95431 -20,-20 0,-11.045695 8.954305,-20 20,-20 11.04569,0 20,8.954305 20,20 z"
         sodipodi:ry="20"
         sodipodi:rx="20"
         sodipodi:cy="100"
         sodipodi:cx="100"
         id="path3757"
         style="fill:#000000;fill-opacity:1;stroke:none"
         sodipodi:type="arc" />
      <path
         sodipodi:nodetypes="ccccccccccccccccc"
         inkscape:connector-curvature="0"
         id="path3759"
         d="m 83.136,912.21113 0,52.77624 62.67396,-35.18416 41.78264,17.59207 20.89132,-35.18415 41.78263,123.14457 41.78264,-87.96042 41.78265,52.77622 41.78263,-105.55246 41.78264,87.96041 41.78264,-35.18417 41.78264,70.36832 41.78264,-105.55247 41.78264,87.96037 41.78264,-70.36829 41.78263,35.18416 41.78265,-17.59209 41.78264,70.36832 41.78263,-87.96039"
         style="fill:none;stroke:#000000;stroke-width:4;stroke-linecap:round;stroke-linejoin:round;stroke-miterlimit:4;stroke-opacity:1;stroke-dasharray:none" />
      <path
         inkscape:connector-curvature="0"
         id="path3762"
         d="m 12.304485,963.71084 17.707985,0"
         style="fill:none;stroke:#000000;stroke-width:4;stroke-linecap:round;stroke-linejoin:round;stroke-miterlimit:4;stroke-opacity:1;stroke-dasharray:none" />
      <path
         inkscape:connector-curvature="0"
         id="path3764"
         d="m 83.136422,1016.8348 0,17.708"
         style="fill:none;stroke:#000000;stroke-width:4;stroke-linecap:round;stroke-linejoin:round;stroke-miterlimit:4;stroke-opacity:1;stroke-dasharray:none" />
      <path
         inkscape:connector-curvature="0"
         id="path3766"
         d="m 136.26038,963.71084 17.70797,0"
         style="fill:none;stroke:#000000;stroke-width:4;stroke-linecap:round;stroke-linejoin:round;stroke-miterlimit:4;stroke-opacity:1;stroke-dasharray:none" />
      <path
         inkscape:connector-curvature="0"
         id="path3762-1"
         d="m 22.362109,998.69779 8.137557,-4.6982"
         style="fill:none;stroke:#000000;stroke-width:1.77079844;stroke-linecap:round;stroke-linejoin:round;stroke-miterlimit:4;stroke-opacity:1;stroke-dasharray:none" />
      <path
         inkscape:connector-curvature="0"
         id="path3764-7"
         d="m 113.9322,1016.3553 4.69822,8.1375"
         style="fill:none;stroke:#000000;stroke-width:1.77079844;stroke-linecap:round;stroke-linejoin:round;stroke-miterlimit:4;stroke-opacity:1;stroke-dasharray:none" />
      <path
         inkscape:connector-curvature="0"
         id="path3762-1-0"
         d="m 47.892124,1024.4928 4.698221,-8.1375"
         style="fill:none;stroke:#000000;stroke-width:1.77079844;stroke-linecap:round;stroke-linejoin:round;stroke-miterlimit:4;stroke-opacity:1;stroke-dasharray:none" />
      <path
         inkscape:connector-curvature="0"
         id="path3764-7-9"
         d="m 136.02289,993.99959 8.13756,4.6982"
         style="fill:none;stroke:#000000;stroke-width:1.77079844;stroke-linecap:round;stroke-linejoin:round;stroke-miterlimit:4;stroke-opacity:1;stroke-dasharray:none" />
      <path
         inkscape:connector-curvature="0"
         id="path3766-4-4"
         d="m 113.66722,910.567 4.6982,-8.13755"
         style="fill:none;stroke:#000000;stroke-width:1.77079844;stroke-linecap:round;stroke-linejoin:round;stroke-miterlimit:4;stroke-opacity:1;stroke-dasharray:none" />
      <path
         inkscape:connector-curvature="0"
         id="path3766-4-5"
         d="m 52.855339,910.567 -4.698221,-8.13755"
         style="fill:none;stroke:#000000;stroke-width:1.77079844;stroke-linecap:round;stroke-linejoin:round;stroke-miterlimit:4;stroke-opacity:1;stroke-dasharray:none" />
      <path
         inkscape:connector-curvature="0"
         id="path3766-4-4-1"
         d="m 30.49966,933.18766 -8.137552,-4.69821"
         style="fill:none;stroke:#000000;stroke-width:1.77079844;stroke-linecap:round;stroke-linejoin:round;stroke-miterlimit:4;stroke-opacity:1;stroke-dasharray:none" />
    </g>
    <g
       id="g4618"
       transform="matrix(0.96505577,0,0,0.98808567,-7.3749155,11.702878)">
      <path
         d="m 241.38846,923.91844 3.98945,-3.95334 24.82319,19.98049 -24.82319,19.9805 -3.98945,-3.91774 20.1319,-15.99152 z"
         style="font-size:56px;font-style:normal;font-variant:normal;font-weight:normal;font-stretch:normal;text-align:start;line-height:125%;letter-spacing:0px;word-spacing:0px;writing-mode:lr-tb;text-anchor:start;fill:#000000;fill-opacity:1;stroke:#ffffff;stroke-width:1.01840913;stroke-opacity:1;font-family:Consolas;-inkscape-font-specification:Consolas"
         id="path4059"
         inkscape:connector-curvature="0" />
      <path
         d="m 533.44853,923.91844 3.98946,-3.95334 24.82318,19.98049 -24.82318,19.9805 -3.98946,-3.91774 20.13191,-15.99152 z"
         style="font-size:56px;font-style:normal;font-variant:normal;font-weight:normal;font-stretch:normal;text-align:start;line-height:125%;letter-spacing:0px;word-spacing:0px;writing-mode:lr-tb;text-anchor:start;fill:#000000;fill-opacity:1;stroke:#ffffff;stroke-width:1.01840913;stroke-opacity:1;font-family:Consolas;-inkscape-font-specification:Consolas"
         id="path4073"
         inkscape:connector-curvature="0" />
      <path
         d="m 241.38846,989.05882 3.98945,-3.95334 24.82319,19.98052 -24.82319,19.9805 -3.98945,-3.9178 20.1319,-15.9915 z"
         style="font-size:56px;font-style:normal;font-variant:normal;font-weight:normal;font-stretch:normal;text-align:start;line-height:125%;letter-spacing:0px;word-spacing:0px;writing-mode:lr-tb;text-anchor:start;fill:#000000;fill-opacity:1;stroke:#ffffff;stroke-width:1.01840913;stroke-opacity:1;font-family:Consolas;-inkscape-font-specification:Consolas"
         id="path4099"
         inkscape:connector-curvature="0" />
      <path
         d="m 533.44853,989.05882 3.98946,-3.95334 24.82318,19.98052 -24.82318,19.9805 -3.98946,-3.9178 20.13191,-15.9915 z"
         style="font-size:56px;font-style:normal;font-variant:normal;font-weight:normal;font-stretch:normal;text-align:start;line-height:125%;letter-spacing:0px;word-spacing:0px;writing-mode:lr-tb;text-anchor:start;fill:#000000;fill-opacity:1;stroke:#ffffff;stroke-width:1.01840913;stroke-opacity:1;font-family:Consolas;-inkscape-font-specification:Consolas"
         id="path4113"
         inkscape:connector-curvature="0" />
      <path
         d="m 37.159104,938.91927 c -3.5e-5,2.94348 -0.305321,5.62692 -0.915847,8.05036 -0.610595,2.42346 -1.536623,4.5035 -2.778076,6.24014 -1.241519,1.73664 -2.783189,3.08083 -4.625043,4.03254 -1.841897,0.95171 -4.004321,1.42758 -6.487272,1.42758 -2.136989,0 -4.080631,-0.38755 -5.830902,-1.16267 -1.750303,-0.77511 -3.246186,-1.96721 -4.487672,-3.5763 -1.241485,-1.60909 -2.1980389,-3.65969 -2.8696594,-6.15184 -0.6716204,-2.49212 -1.0074302,-5.44538 -1.0074302,-8.85981 0,-2.94345 0.3103662,-5.6318 0.9311089,-8.06509 0.6207428,-2.43323 1.5467607,-4.51818 2.7780757,-6.25486 1.231303,-1.7366 2.772985,-3.08078 4.625042,-4.03253 1.852037,-0.95169 4.009369,-1.42755 6.47201,-1.42758 2.136957,3e-5 4.080598,0.38759 5.830902,1.16266 1.75027,0.77515 3.246153,1.97216 4.487662,3.59102 1.241463,1.61894 2.198016,3.67445 2.869669,6.16656 0.671588,2.49215 1.007397,5.44542 1.007432,8.85982 z m -5.372985,0.1766 c -2.3e-5,-0.66717 -0.02545,-1.32944 -0.07637,-1.98683 -0.05091,-0.65735 -0.106846,-1.30001 -0.167905,-1.92797 l -16.882156,12.09762 c 0.305263,1.02042 0.691962,1.96233 1.160072,2.82573 0.468089,0.86342 1.032864,1.60419 1.694324,2.22231 0.661428,0.61813 1.41446,1.0989 2.259087,1.4423 0.844606,0.3434 1.80625,0.51511 2.884933,0.5151 1.383936,10e-6 2.640673,-0.32377 3.770244,-0.97134 1.129527,-0.64756 2.091171,-1.60909 2.884932,-2.88459 0.793707,-1.2755 1.404278,-2.86006 1.831695,-4.75369 0.427371,-1.89361 0.641073,-4.08649 0.641096,-6.57864 z m -18.255932,-0.35322 c -1.1e-5,0.60834 0.0056,1.21666 0.0153,1.82496 0.01006,0.60833 0.04578,1.19702 0.106846,1.76607 l 16.882156,-12.03875 c -0.305308,-1.00075 -0.691995,-1.91323 -1.160073,-2.73742 -0.468123,-0.82415 -1.027806,-1.53547 -1.679062,-2.13401 -0.651289,-0.59847 -1.39414,-1.06452 -2.228563,-1.39815 -0.834456,-0.33356 -1.770656,-0.50035 -2.808611,-0.50039 -1.383957,4e-5 -2.640705,0.32382 -3.770243,0.97135 -1.129561,0.64759 -2.091205,1.61403 -2.884923,2.89931 -0.793749,1.28534 -1.40431,2.87481 -1.831704,4.76841 -0.427404,1.89364 -0.641096,4.08652 -0.641096,6.57862 z"
         style="font-size:56px;font-style:normal;font-variant:normal;font-weight:normal;font-stretch:normal;text-align:start;line-height:125%;letter-spacing:0px;word-spacing:0px;writing-mode:lr-tb;text-anchor:start;fill:#000000;fill-opacity:1;stroke:#ffffff;stroke-width:1.01840913;stroke-opacity:1;font-family:Consolas;-inkscape-font-specification:Consolas"
         id="path4047-1"
         inkscape:connector-curvature="0" />
      <path
         d="m 71.595048,938.91927 c -3.4e-5,2.94348 -0.305319,5.62692 -0.915847,8.05036 -0.610594,2.42346 -1.536623,4.5035 -2.778075,6.24014 -1.24152,1.73664 -2.783201,3.08083 -4.625043,4.03254 -1.841898,0.95171 -4.004322,1.42758 -6.487271,1.42758 -2.136991,0 -4.080633,-0.38755 -5.830903,-1.16267 -1.750304,-0.77511 -3.246186,-1.96721 -4.487673,-3.5763 -1.241485,-1.60909 -2.198039,-3.65969 -2.869659,-6.15184 -0.671619,-2.49212 -1.00743,-5.44538 -1.00743,-8.85981 0,-2.94345 0.310366,-5.6318 0.931109,-8.06509 0.620742,-2.43323 1.546761,-4.51818 2.778075,-6.25486 1.231304,-1.7366 2.772985,-3.08078 4.625043,-4.03253 1.852036,-0.95169 4.009369,-1.42755 6.472009,-1.42758 2.136958,3e-5 4.080588,0.38759 5.830902,1.16266 1.75027,0.77515 3.246154,1.97216 4.487662,3.59102 1.241464,1.61894 2.198016,3.67445 2.869671,6.16656 0.671586,2.49215 1.007396,5.44542 1.00743,8.85982 z m -5.372985,0.1766 c -2.2e-5,-0.66717 -0.02545,-1.32944 -0.07637,-1.98683 -0.05091,-0.65735 -0.106846,-1.30001 -0.167906,-1.92797 l -16.882156,12.09762 c 0.305263,1.02042 0.691962,1.96233 1.160073,2.82573 0.468089,0.86342 1.032863,1.60419 1.694324,2.22231 0.661427,0.61813 1.41446,1.0989 2.259087,1.4423 0.844606,0.3434 1.806249,0.51511 2.884932,0.5151 1.383925,10e-6 2.640673,-0.32377 3.770245,-0.97134 1.129527,-0.64756 2.09117,-1.60909 2.884921,-2.88459 0.793717,-1.2755 1.404278,-2.86006 1.831705,-4.75369 0.427371,-1.89361 0.641063,-4.08649 0.641096,-6.57864 z m -18.255932,-0.35322 c -1.1e-5,0.60834 0.0056,1.21666 0.0153,1.82496 0.01006,0.60833 0.04578,1.19702 0.106846,1.76607 l 16.882157,-12.03875 c -0.305308,-1.00075 -0.691996,-1.91323 -1.160073,-2.73742 -0.468122,-0.82415 -1.027818,-1.53547 -1.679062,-2.13401 -0.651289,-0.59847 -1.39414,-1.06452 -2.228563,-1.39815 -0.834457,-0.33356 -1.770668,-0.50035 -2.808611,-0.50039 -1.383958,4e-5 -2.640706,0.32382 -3.770244,0.97135 -1.129561,0.64759 -2.091204,1.61403 -2.884921,2.89931 -0.793751,1.28534 -1.404312,2.87481 -1.831705,4.76841 -0.427405,1.89364 -0.641097,4.08652 -0.641097,6.57862 z"
         style="font-size:56px;font-style:normal;font-variant:normal;font-weight:normal;font-stretch:normal;text-align:start;line-height:125%;letter-spacing:0px;word-spacing:0px;writing-mode:lr-tb;text-anchor:start;fill:#000000;fill-opacity:1;stroke:#ffffff;stroke-width:1.01840913;stroke-opacity:1;font-family:Consolas;-inkscape-font-specification:Consolas"
         id="path4049-5"
         inkscape:connector-curvature="0" />
      <path
         d="m 104.77933,958.14006 -25.063747,0 5.6e-5,-4.7684 10.257456,0 0,-29.15761 -10.257456,0 0,-4.72138 16.149425,-2.5e-4 0,33.87924 8.914266,0 z"
         style="font-size:56px;font-style:normal;font-variant:normal;font-weight:normal;font-stretch:normal;text-align:start;line-height:125%;letter-spacing:0px;word-spacing:0px;writing-mode:lr-tb;text-anchor:start;fill:#000000;fill-opacity:1;stroke:#ffffff;stroke-width:1.01840913;stroke-opacity:1;font-family:Consolas;-inkscape-font-specification:Consolas"
         id="path4051-2"
         inkscape:connector-curvature="0"
         sodipodi:nodetypes="ccccccccccc" />
      <path
         d="m 140.46695,938.91927 c -4e-5,2.94348 -0.30533,5.62692 -0.91586,8.05036 -0.6106,2.42346 -1.53662,4.5035 -2.77808,6.24014 -1.24151,1.73664 -2.78319,3.08083 -4.62503,4.03254 -1.84191,0.95171 -4.00432,1.42758 -6.48727,1.42758 -2.137,0 -4.08063,-0.38755 -5.83092,-1.16267 -1.75031,-0.77511 -3.24619,-1.96721 -4.48766,-3.5763 -1.2415,-1.60909 -2.19806,-3.65969 -2.86967,-6.15184 -0.67163,-2.49212 -1.00743,-5.44538 -1.00743,-8.85981 0,-2.94345 0.31036,-5.6318 0.93112,-8.06509 0.62072,-2.43323 1.54675,-4.51818 2.77807,-6.25486 1.23131,-1.7366 2.77297,-3.08078 4.62504,-4.03253 1.85205,-0.95169 4.00938,-1.42755 6.47201,-1.42758 2.13697,3e-5 4.0806,0.38759 5.83092,1.16266 1.75025,0.77515 3.24615,1.97216 4.48766,3.59102 1.24145,1.61894 2.19801,3.67445 2.86966,6.16656 0.67159,2.49215 1.0074,5.44542 1.00744,8.85982 z m -5.37299,0.1766 c -3e-5,-0.66717 -0.0254,-1.32944 -0.0763,-1.98683 -0.0509,-0.65735 -0.10683,-1.30001 -0.1679,-1.92797 l -16.88217,12.09762 c 0.30526,1.02042 0.69196,1.96233 1.16007,2.82573 0.46809,0.86342 1.03287,1.60419 1.69433,2.22231 0.66144,0.61813 1.41447,1.0989 2.2591,1.4423 0.8446,0.3434 1.80623,0.51511 2.88492,0.5151 1.38394,10e-6 2.64068,-0.32377 3.77025,-0.97134 1.12953,-0.64756 2.09117,-1.60909 2.88493,-2.88459 0.79371,-1.2755 1.40428,-2.86006 1.8317,-4.75369 0.42737,-1.89361 0.64107,-4.08649 0.6411,-6.57864 z m -18.25595,-0.35322 c 0,0.60834 0.005,1.21666 0.0153,1.82496 0.0104,0.60833 0.0457,1.19702 0.10684,1.76607 l 16.88218,-12.03875 c -0.30531,-1.00075 -0.692,-1.91323 -1.16008,-2.73742 -0.46812,-0.82415 -1.02781,-1.53547 -1.67906,-2.13401 -0.65129,-0.59847 -1.39414,-1.06452 -2.22856,-1.39815 -0.83445,-0.33356 -1.77067,-0.50035 -2.80861,-0.50039 -1.38396,4e-5 -2.64071,0.32382 -3.77024,0.97135 -1.12957,0.64759 -2.09121,1.61403 -2.88494,2.89931 -0.79375,1.28534 -1.40431,2.87481 -1.8317,4.76841 -0.42741,1.89364 -0.6411,4.08652 -0.6411,6.57862 z"
         style="font-size:56px;font-style:normal;font-variant:normal;font-weight:normal;font-stretch:normal;text-align:start;line-height:125%;letter-spacing:0px;word-spacing:0px;writing-mode:lr-tb;text-anchor:start;fill:#000000;fill-opacity:1;stroke:#ffffff;stroke-width:1.01840913;stroke-opacity:1;font-family:Consolas;-inkscape-font-specification:Consolas"
         id="path4053-7"
         inkscape:connector-curvature="0" />
      <path
         d="m 173.00871,958.14006 -25.06375,0 6e-5,-4.7684 10.25745,0 0,-29.15761 -10.25745,0 0,-4.72138 16.14941,-2.5e-4 0,33.87924 8.91428,0 z"
         style="font-size:56px;font-style:normal;font-variant:normal;font-weight:normal;font-stretch:normal;text-align:start;line-height:125%;letter-spacing:0px;word-spacing:0px;writing-mode:lr-tb;text-anchor:start;fill:#000000;fill-opacity:1;stroke:#ffffff;stroke-width:1.01840913;stroke-opacity:1;font-family:Consolas;-inkscape-font-specification:Consolas"
         id="path4051-4"
         inkscape:connector-curvature="0"
         sodipodi:nodetypes="ccccccccccc" />
      <path
         d="m 208.69632,938.91927 c -3e-5,2.94348 -0.30532,5.62692 -0.91585,8.05036 -0.6106,2.42346 -1.53663,4.5035 -2.77808,6.24014 -1.24151,1.73664 -2.78319,3.08083 -4.62505,4.03254 -1.8419,0.95171 -4.00431,1.42758 -6.48725,1.42758 -2.13701,0 -4.08063,-0.38755 -5.83092,-1.16267 -1.75031,-0.77511 -3.24619,-1.96721 -4.48766,-3.5763 -1.24149,-1.60909 -2.19805,-3.65969 -2.86966,-6.15184 -0.67164,-2.49212 -1.00744,-5.44538 -1.00744,-8.85981 0,-2.94345 0.31036,-5.6318 0.93112,-8.06509 0.62073,-2.43323 1.54676,-4.51818 2.77808,-6.25486 1.2313,-1.7366 2.77296,-3.08078 4.62504,-4.03253 1.85204,-0.95169 4.00937,-1.42755 6.47199,-1.42758 2.13697,3e-5 4.0806,0.38759 5.83092,1.16266 1.75026,0.77515 3.24615,1.97216 4.48766,3.59102 1.24145,1.61894 2.198,3.67445 2.86966,6.16656 0.6716,2.49215 1.00741,5.44542 1.00744,8.85982 z m -5.37299,0.1766 c -3e-5,-0.66717 -0.0254,-1.32944 -0.0763,-1.98683 -0.0509,-0.65735 -0.10685,-1.30001 -0.16791,-1.92797 l -16.88216,12.09762 c 0.30527,1.02042 0.69196,1.96233 1.16007,2.82573 0.46809,0.86342 1.03287,1.60419 1.69433,2.22231 0.66143,0.61813 1.41447,1.0989 2.2591,1.4423 0.8446,0.3434 1.80623,0.51511 2.88492,0.5151 1.38394,10e-6 2.64068,-0.32377 3.77025,-0.97134 1.12952,-0.64756 2.09117,-1.60909 2.88492,-2.88459 0.79372,-1.2755 1.40428,-2.86006 1.83171,-4.75369 0.42737,-1.89361 0.64106,-4.08649 0.64109,-6.57864 z m -18.25593,-0.35322 c 0,0.60834 0.005,1.21666 0.0152,1.82496 0.0104,0.60833 0.0457,1.19702 0.10685,1.76607 l 16.88216,-12.03875 c -0.30531,-1.00075 -0.692,-1.91323 -1.16007,-2.73742 -0.46813,-0.82415 -1.02781,-1.53547 -1.67906,-2.13401 -0.6513,-0.59847 -1.39415,-1.06452 -2.22856,-1.39815 -0.83447,-0.33356 -1.77068,-0.50035 -2.80861,-0.50039 -1.38397,4e-5 -2.64071,0.32382 -3.77026,0.97135 -1.12956,0.64759 -2.0912,1.61403 -2.88491,2.89931 -0.79375,1.28534 -1.40431,2.87481 -1.83171,4.76841 -0.42741,1.89364 -0.64109,4.08652 -0.64109,6.57862 z"
         style="font-size:56px;font-style:normal;font-variant:normal;font-weight:normal;font-stretch:normal;text-align:start;line-height:125%;letter-spacing:0px;word-spacing:0px;writing-mode:lr-tb;text-anchor:start;fill:#000000;fill-opacity:1;stroke:#ffffff;stroke-width:1.01840913;stroke-opacity:1;font-family:Consolas;-inkscape-font-specification:Consolas"
         id="path4053-2"
         inkscape:connector-curvature="0" />
      <path
         d="m 329.66029,938.91927 c -4e-5,2.94348 -0.30532,5.62692 -0.91585,8.05036 -0.61059,2.42346 -1.53662,4.5035 -2.77808,6.24014 -1.24151,1.73664 -2.78319,3.08083 -4.62503,4.03254 -1.8419,0.95171 -4.00433,1.42758 -6.48728,1.42758 -2.13699,0 -4.08063,-0.38755 -5.8309,-1.16267 -1.7503,-0.77511 -3.24618,-1.96721 -4.48767,-3.5763 -1.24149,-1.60909 -2.19805,-3.65969 -2.86966,-6.15184 -0.67162,-2.49212 -1.00743,-5.44538 -1.00743,-8.85981 0,-2.94345 0.31036,-5.6318 0.93111,-8.06509 0.62074,-2.43323 1.54676,-4.51818 2.77808,-6.25486 1.2313,-1.7366 2.77298,-3.08078 4.62503,-4.03253 1.85204,-0.95169 4.00937,-1.42755 6.47202,-1.42758 2.13695,3e-5 4.08059,0.38759 5.8309,1.16266 1.75026,0.77515 3.24615,1.97216 4.48766,3.59102 1.24146,1.61894 2.19802,3.67445 2.86967,6.16656 0.67158,2.49215 1.00739,5.44542 1.00743,8.85982 z m -5.37299,0.1766 c -2e-5,-0.66717 -0.0254,-1.32944 -0.0763,-1.98683 -0.0509,-0.65735 -0.10684,-1.30001 -0.16791,-1.92797 l -16.88215,12.09762 c 0.30527,1.02042 0.69196,1.96233 1.16007,2.82573 0.46809,0.86342 1.03286,1.60419 1.69432,2.22231 0.66143,0.61813 1.41447,1.0989 2.2591,1.4423 0.84459,0.3434 1.80625,0.51511 2.88492,0.5151 1.38394,10e-6 2.64068,-0.32377 3.77025,-0.97134 1.12953,-0.64756 2.09117,-1.60909 2.88493,-2.88459 0.7937,-1.2755 1.40428,-2.86006 1.83169,-4.75369 0.42737,-1.89361 0.64108,-4.08649 0.6411,-6.57864 z m -18.25593,-0.35322 c -10e-6,0.60834 0.005,1.21666 0.0153,1.82496 0.0104,0.60833 0.0457,1.19702 0.10684,1.76607 l 16.88216,-12.03875 c -0.30531,-1.00075 -0.69199,-1.91323 -1.16007,-2.73742 -0.46812,-0.82415 -1.02782,-1.53547 -1.67907,-2.13401 -0.65129,-0.59847 -1.39413,-1.06452 -2.22856,-1.39815 -0.83445,-0.33356 -1.77065,-0.50035 -2.80861,-0.50039 -1.38396,4e-5 -2.64071,0.32382 -3.77024,0.97135 -1.12957,0.64759 -2.09121,1.61403 -2.88493,2.89931 -0.79374,1.28534 -1.40431,2.87481 -1.8317,4.76841 -0.4274,1.89364 -0.6411,4.08652 -0.6411,6.57862 z"
         style="font-size:56px;font-style:normal;font-variant:normal;font-weight:normal;font-stretch:normal;text-align:start;line-height:125%;letter-spacing:0px;word-spacing:0px;writing-mode:lr-tb;text-anchor:start;fill:#000000;fill-opacity:1;stroke:#ffffff;stroke-width:1.01840913;stroke-opacity:1;font-family:Consolas;-inkscape-font-specification:Consolas"
         id="path4047-1-3"
         inkscape:connector-curvature="0" />
      <path
         d="m 397.28051,958.14006 -25.06374,0 5e-5,-4.7684 10.25747,0 0,-29.15761 -10.25747,0 0,-4.72138 16.14942,-2.5e-4 0,33.87924 8.91427,0 z"
         style="font-size:56px;font-style:normal;font-variant:normal;font-weight:normal;font-stretch:normal;text-align:start;line-height:125%;letter-spacing:0px;word-spacing:0px;writing-mode:lr-tb;text-anchor:start;fill:#000000;fill-opacity:1;stroke:#ffffff;stroke-width:1.01840913;stroke-opacity:1;font-family:Consolas;-inkscape-font-specification:Consolas"
         id="path4051-2-2"
         inkscape:connector-curvature="0"
         sodipodi:nodetypes="ccccccccccc" />
      <path
         d="m 432.96813,938.91927 c -3e-5,2.94348 -0.30532,5.62692 -0.91585,8.05036 -0.6106,2.42346 -1.53663,4.5035 -2.77808,6.24014 -1.24151,1.73664 -2.78319,3.08083 -4.62505,4.03254 -1.84189,0.95171 -4.0043,1.42758 -6.48725,1.42758 -2.13701,0 -4.08063,-0.38755 -5.83092,-1.16267 -1.75031,-0.77511 -3.24619,-1.96721 -4.48767,-3.5763 -1.2415,-1.60909 -2.19805,-3.65969 -2.86966,-6.15184 -0.67163,-2.49212 -1.00744,-5.44538 -1.00744,-8.85981 0,-2.94345 0.31037,-5.6318 0.93113,-8.06509 0.62072,-2.43323 1.54675,-4.51818 2.77806,-6.25486 1.23131,-1.7366 2.77298,-3.08078 4.62505,-4.03253 1.85204,-0.95169 4.00938,-1.42755 6.47201,-1.42758 2.13697,3e-5 4.0806,0.38759 5.83091,1.16266 1.75026,0.77515 3.24615,1.97216 4.48766,3.59102 1.24146,1.61894 2.198,3.67445 2.86966,6.16656 0.6716,2.49215 1.00741,5.44542 1.00744,8.85982 z m -5.37298,0.1766 c -3e-5,-0.66717 -0.0254,-1.32944 -0.0763,-1.98683 -0.0509,-0.65735 -0.10684,-1.30001 -0.1679,-1.92797 l -16.88218,12.09762 c 0.30527,1.02042 0.69197,1.96233 1.16008,2.82573 0.46809,0.86342 1.03287,1.60419 1.69433,2.22231 0.66144,0.61813 1.41447,1.0989 2.25909,1.4423 0.84461,0.3434 1.80624,0.51511 2.88493,0.5151 1.38394,10e-6 2.64068,-0.32377 3.77025,-0.97134 1.12953,-0.64756 2.09116,-1.60909 2.88493,-2.88459 0.79371,-1.2755 1.40428,-2.86006 1.8317,-4.75369 0.42737,-1.89361 0.64107,-4.08649 0.6411,-6.57864 z m -18.25595,-0.35322 c 0,0.60834 0.005,1.21666 0.0152,1.82496 0.0104,0.60833 0.0457,1.19702 0.10684,1.76607 l 16.88217,-12.03875 c -0.3053,-1.00075 -0.692,-1.91323 -1.16007,-2.73742 -0.46813,-0.82415 -1.02781,-1.53547 -1.67906,-2.13401 -0.65129,-0.59847 -1.39415,-1.06452 -2.22857,-1.39815 -0.83446,-0.33356 -1.77067,-0.50035 -2.8086,-0.50039 -1.38396,4e-5 -2.64071,0.32382 -3.77025,0.97135 -1.12956,0.64759 -2.0912,1.61403 -2.88493,2.89931 -0.79376,1.28534 -1.40431,2.87481 -1.83171,4.76841 -0.42741,1.89364 -0.64109,4.08652 -0.64109,6.57862 z"
         style="font-size:56px;font-style:normal;font-variant:normal;font-weight:normal;font-stretch:normal;text-align:start;line-height:125%;letter-spacing:0px;word-spacing:0px;writing-mode:lr-tb;text-anchor:start;fill:#000000;fill-opacity:1;stroke:#ffffff;stroke-width:1.01840913;stroke-opacity:1;font-family:Consolas;-inkscape-font-specification:Consolas"
         id="path4053-7-1"
         inkscape:connector-curvature="0" />
      <path
         d="m 465.50989,958.14006 -25.06374,0 6e-5,-4.7684 10.25745,0 0,-29.15761 -10.25745,0 0,-4.72138 16.14941,-2.5e-4 0,33.87924 8.91427,0 z"
         style="font-size:56px;font-style:normal;font-variant:normal;font-weight:normal;font-stretch:normal;text-align:start;line-height:125%;letter-spacing:0px;word-spacing:0px;writing-mode:lr-tb;text-anchor:start;fill:#000000;fill-opacity:1;stroke:#ffffff;stroke-width:1.01840913;stroke-opacity:1;font-family:Consolas;-inkscape-font-specification:Consolas"
         id="path4051-4-6"
         inkscape:connector-curvature="0"
         sodipodi:nodetypes="ccccccccccc" />
      <path
         d="m 501.19751,938.91927 c -3e-5,2.94348 -0.30532,5.62692 -0.91586,8.05036 -0.61059,2.42346 -1.53663,4.5035 -2.77807,6.24014 -1.24151,1.73664 -2.78319,3.08083 -4.62505,4.03254 -1.8419,0.95171 -4.00431,1.42758 -6.48726,1.42758 -2.137,0 -4.08063,-0.38755 -5.83091,-1.16267 -1.75031,-0.77511 -3.24619,-1.96721 -4.48767,-3.5763 -1.24149,-1.60909 -2.19804,-3.65969 -2.86965,-6.15184 -0.67164,-2.49212 -1.00745,-5.44538 -1.00745,-8.85981 0,-2.94345 0.31037,-5.6318 0.93112,-8.06509 0.62074,-2.43323 1.54677,-4.51818 2.77808,-6.25486 1.2313,-1.7366 2.77297,-3.08078 4.62505,-4.03253 1.85203,-0.95169 4.00937,-1.42755 6.47199,-1.42758 2.13697,3e-5 4.0806,0.38759 5.83092,1.16266 1.75026,0.77515 3.24615,1.97216 4.48766,3.59102 1.24145,1.61894 2.198,3.67445 2.86965,6.16656 0.6716,2.49215 1.00742,5.44542 1.00745,8.85982 z m -5.37299,0.1766 c -3e-5,-0.66717 -0.0254,-1.32944 -0.0763,-1.98683 -0.0509,-0.65735 -0.10685,-1.30001 -0.16791,-1.92797 l -16.88217,12.09762 c 0.30528,1.02042 0.69197,1.96233 1.16008,2.82573 0.46809,0.86342 1.03287,1.60419 1.69432,2.22231 0.66144,0.61813 1.41448,1.0989 2.2591,1.4423 0.84461,0.3434 1.80624,0.51511 2.88492,0.5151 1.38394,10e-6 2.64069,-0.32377 3.77026,-0.97134 1.12952,-0.64756 2.09116,-1.60909 2.88492,-2.88459 0.79372,-1.2755 1.40428,-2.86006 1.83171,-4.75369 0.42737,-1.89361 0.64106,-4.08649 0.64109,-6.57864 z m -18.25594,-0.35322 c 0,0.60834 0.005,1.21666 0.0154,1.82496 0.0104,0.60833 0.0457,1.19702 0.10684,1.76607 l 16.88216,-12.03875 c -0.3053,-1.00075 -0.692,-1.91323 -1.16008,-2.73742 -0.46812,-0.82415 -1.0278,-1.53547 -1.67905,-2.13401 -0.65129,-0.59847 -1.39415,-1.06452 -2.22857,-1.39815 -0.83446,-0.33356 -1.77067,-0.50035 -2.80861,-0.50039 -1.38395,4e-5 -2.64071,0.32382 -3.77025,0.97135 -1.12955,0.64759 -2.09119,1.61403 -2.88491,2.89931 -0.79376,1.28534 -1.40431,2.87481 -1.83171,4.76841 -0.42741,1.89364 -0.64109,4.08652 -0.64109,6.57862 z"
         style="font-size:56px;font-style:normal;font-variant:normal;font-weight:normal;font-stretch:normal;text-align:start;line-height:125%;letter-spacing:0px;word-spacing:0px;writing-mode:lr-tb;text-anchor:start;fill:#000000;fill-opacity:1;stroke:#ffffff;stroke-width:1.01840913;stroke-opacity:1;font-family:Consolas;-inkscape-font-specification:Consolas"
         id="path4053-2-8"
         inkscape:connector-curvature="0" />
      <path
         d="m 363.0762,958.14023 -25.06374,0 5e-5,-4.7684 10.25746,0 0,-29.15761 -10.25746,0 0,-4.72138 16.14943,-2.5e-4 0,33.87924 8.91426,0 z"
         style="font-size:56px;font-style:normal;font-variant:normal;font-weight:normal;font-stretch:normal;text-align:start;line-height:125%;letter-spacing:0px;word-spacing:0px;writing-mode:lr-tb;text-anchor:start;fill:#000000;fill-opacity:1;stroke:#ffffff;stroke-width:1.01840913;stroke-opacity:1;font-family:Consolas;-inkscape-font-specification:Consolas"
         id="path4051-2-2-5"
         inkscape:connector-curvature="0"
         sodipodi:nodetypes="ccccccccccc" />
      <path
         d="m 37.543267,1004.0596 c -3.4e-5,2.9435 -0.305321,5.627 -0.915847,8.0505 -0.610595,2.4234 -1.536623,4.5035 -2.778076,6.24 -1.241519,1.7367 -2.783189,3.0809 -4.625043,4.0326 -1.841897,0.9517 -4.004321,1.4276 -6.487272,1.4276 -2.136989,0 -4.080631,-0.3876 -5.830902,-1.1627 -1.750303,-0.7751 -3.246186,-1.9673 -4.487672,-3.5763 -1.241485,-1.6091 -2.198039,-3.6597 -2.8696593,-6.1518 -0.6716205,-2.4922 -1.0074302,-5.4455 -1.0074302,-8.8599 0,-2.9434 0.3103661,-5.63174 0.9311089,-8.06499 0.6207426,-2.43324 1.5467606,-4.51825 2.7780756,-6.25491 1.231303,-1.73656 2.772985,-3.08074 4.625043,-4.03255 1.852036,-0.9517 4.009368,-1.4275 6.472009,-1.42761 2.136957,1.1e-4 4.080598,0.38764 5.830902,1.16269 1.75027,0.77517 3.246153,1.9722 4.487662,3.59109 1.241463,1.6189 2.198016,3.67441 2.86967,6.16654 0.671587,2.49212 1.007397,5.44544 1.007431,8.85974 z m -5.372985,0.1767 c -2.3e-5,-0.6672 -0.02545,-1.3295 -0.07637,-1.9869 -0.05091,-0.6574 -0.106846,-1.3 -0.167905,-1.9279 l -16.882156,12.0976 c 0.305263,1.0204 0.691962,1.9623 1.160072,2.8258 0.468089,0.8634 1.032864,1.6041 1.694324,2.2222 0.661428,0.6181 1.41446,1.0989 2.259087,1.4423 0.844606,0.3434 1.80625,0.5151 2.884933,0.5151 1.383936,0 2.640673,-0.3238 3.770244,-0.9714 1.129527,-0.6475 2.091171,-1.6091 2.884932,-2.8846 0.793707,-1.2754 1.404278,-2.8599 1.831695,-4.7536 0.427371,-1.8937 0.641073,-4.0865 0.641096,-6.5786 z m -18.255932,-0.3532 c -1.1e-5,0.6083 0.0056,1.2166 0.0153,1.8249 0.01006,0.6083 0.04578,1.197 0.106846,1.766 L 30.91865,995.43528 c -0.305308,-1.00068 -0.691995,-1.9132 -1.160073,-2.73734 -0.468123,-0.82415 -1.027806,-1.53548 -1.679062,-2.1341 -0.651289,-0.59841 -1.394139,-1.06452 -2.228562,-1.39811 -0.834457,-0.3336 -1.770657,-0.50034 -2.808611,-0.50034 -1.383958,0 -2.640706,0.3238 -3.770244,0.97129 -1.129561,0.6476 -2.091205,1.61405 -2.884921,2.89935 -0.793751,1.2853 -1.404312,2.87481 -1.831706,4.76843 -0.427404,1.89361 -0.641096,4.08644 -0.641096,6.57864 z"
         style="font-size:56px;font-style:normal;font-variant:normal;font-weight:normal;font-stretch:normal;text-align:start;line-height:125%;letter-spacing:0px;word-spacing:0px;writing-mode:lr-tb;text-anchor:start;fill:#000000;fill-opacity:1;stroke:#ffffff;stroke-width:1.01840913;stroke-opacity:1;font-family:Consolas;-inkscape-font-specification:Consolas"
         id="path4047-1-3-7"
         inkscape:connector-curvature="0" />
      <path
         d="m 105.16349,1023.2804 -25.063744,0 5.6e-5,-4.7684 10.257459,0 0,-29.15757 -10.257459,0 0,-4.72138 16.149425,-2.1e-4 0,33.87916 8.914263,0 z"
         style="font-size:56px;font-style:normal;font-variant:normal;font-weight:normal;font-stretch:normal;text-align:start;line-height:125%;letter-spacing:0px;word-spacing:0px;writing-mode:lr-tb;text-anchor:start;fill:#000000;fill-opacity:1;stroke:#ffffff;stroke-width:1.01840913;stroke-opacity:1;font-family:Consolas;-inkscape-font-specification:Consolas"
         id="path4051-2-2-9"
         inkscape:connector-curvature="0"
         sodipodi:nodetypes="ccccccccccc" />
      <path
         d="m 140.85111,1004.0596 c -4e-5,2.9435 -0.30531,5.627 -0.91586,8.0505 -0.61059,2.4234 -1.53662,4.5035 -2.77807,6.24 -1.24151,1.7367 -2.7832,3.0809 -4.62504,4.0326 -1.8419,0.9517 -4.00432,1.4276 -6.48726,1.4276 -2.137,0 -4.08064,-0.3876 -5.83092,-1.1627 -1.75031,-0.7751 -3.2462,-1.9673 -4.48767,-3.5763 -1.2415,-1.6091 -2.19806,-3.6597 -2.86966,-6.1518 -0.67163,-2.4922 -1.00744,-5.4455 -1.00744,-8.8599 0,-2.9434 0.31036,-5.63174 0.93112,-8.06499 0.62073,-2.43324 1.54675,-4.51825 2.77808,-6.25491 1.2313,-1.73656 2.77297,-3.08074 4.62503,-4.03255 1.85206,-0.9517 4.00938,-1.4275 6.47202,-1.42761 2.13696,1.1e-4 4.08059,0.38764 5.83091,1.16269 1.75025,0.77517 3.24615,1.9722 4.48766,3.59109 1.24145,1.6189 2.19801,3.67441 2.86966,6.16654 0.6716,2.49212 1.0074,5.44544 1.00744,8.85974 z m -5.37298,0.1767 c -4e-5,-0.6672 -0.0255,-1.3295 -0.0763,-1.9869 -0.0509,-0.6574 -0.10684,-1.3 -0.1679,-1.9279 l -16.88218,12.0976 c 0.30528,1.0204 0.69196,1.9623 1.16007,2.8258 0.46809,0.8634 1.03288,1.6041 1.69433,2.2222 0.66144,0.6181 1.41448,1.0989 2.25911,1.4423 0.8446,0.3434 1.80624,0.5151 2.88491,0.5151 1.38394,0 2.64069,-0.3238 3.77027,-0.9714 1.12952,-0.6475 2.09115,-1.6091 2.88491,-2.8846 0.79372,-1.2754 1.40428,-2.8599 1.8317,-4.7536 0.42737,-1.8937 0.64107,-4.0865 0.6411,-6.5786 z m -18.25596,-0.3532 c 0,0.6083 0.005,1.2166 0.0153,1.8249 0.0104,0.6083 0.0457,1.197 0.10684,1.766 l 16.88217,-12.03872 c -0.30531,-1.00068 -0.69199,-1.9132 -1.16007,-2.73734 -0.46812,-0.82415 -1.02781,-1.53548 -1.67906,-2.1341 -0.6513,-0.59841 -1.39414,-1.06452 -2.22856,-1.39811 -0.83446,-0.3336 -1.77067,-0.50034 -2.80861,-0.50034 -1.38397,0 -2.64071,0.3238 -3.77025,0.97129 -1.12957,0.6476 -2.09121,1.61405 -2.88493,2.89935 -0.79375,1.2853 -1.40431,2.87481 -1.83171,4.76843 -0.4274,1.89361 -0.64109,4.08644 -0.64109,6.57864 z"
         style="font-size:56px;font-style:normal;font-variant:normal;font-weight:normal;font-stretch:normal;text-align:start;line-height:125%;letter-spacing:0px;word-spacing:0px;writing-mode:lr-tb;text-anchor:start;fill:#000000;fill-opacity:1;stroke:#ffffff;stroke-width:1.01840913;stroke-opacity:1;font-family:Consolas;-inkscape-font-specification:Consolas"
         id="path4053-7-1-5"
         inkscape:connector-curvature="0" />
      <path
         d="m 173.39288,1023.2804 -25.06376,0 6e-5,-4.7684 10.25746,0 0,-29.15757 -10.25746,0 0,-4.72138 16.14942,-2.1e-4 0,33.87916 8.91428,0 z"
         style="font-size:56px;font-style:normal;font-variant:normal;font-weight:normal;font-stretch:normal;text-align:start;line-height:125%;letter-spacing:0px;word-spacing:0px;writing-mode:lr-tb;text-anchor:start;fill:#000000;fill-opacity:1;stroke:#ffffff;stroke-width:1.01840913;stroke-opacity:1;font-family:Consolas;-inkscape-font-specification:Consolas"
         id="path4051-4-6-4"
         inkscape:connector-curvature="0"
         sodipodi:nodetypes="ccccccccccc" />
      <path
         d="m 70.959175,1023.2806 -25.06374,0 5.6e-5,-4.7684 10.257459,0 0,-29.15755 -10.257459,0 0,-4.72138 16.149421,-3.2e-4 0,33.87925 8.914263,0 z"
         style="font-size:56px;font-style:normal;font-variant:normal;font-weight:normal;font-stretch:normal;text-align:start;line-height:125%;letter-spacing:0px;word-spacing:0px;writing-mode:lr-tb;text-anchor:start;fill:#000000;fill-opacity:1;stroke:#ffffff;stroke-width:1.01840913;stroke-opacity:1;font-family:Consolas;-inkscape-font-specification:Consolas"
         id="path4051-2-2-5-1"
         inkscape:connector-curvature="0"
         sodipodi:nodetypes="ccccccccccc" />
      <path
         d="m 206.85465,1023.2809 -25.06376,0 8e-5,-4.7685 10.25744,0 0,-29.15754 -10.25744,0 0,-4.72138 16.1494,-2.1e-4 0,33.87913 8.91428,0 z"
         style="font-size:56px;font-style:normal;font-variant:normal;font-weight:normal;font-stretch:normal;text-align:start;line-height:125%;letter-spacing:0px;word-spacing:0px;writing-mode:lr-tb;text-anchor:start;fill:#000000;fill-opacity:1;stroke:#ffffff;stroke-width:1.01840913;stroke-opacity:1;font-family:Consolas;-inkscape-font-specification:Consolas"
         id="path4051-4-6-4-2"
         inkscape:connector-curvature="0"
         sodipodi:nodetypes="ccccccccccc" />
      <path
         d="m 330.0606,1004.0596 c -3e-5,2.9435 -0.30531,5.627 -0.91584,8.0505 -0.61059,2.4234 -1.53662,4.5035 -2.77807,6.24 -1.24152,1.7367 -2.78319,3.0809 -4.62505,4.0326 -1.8419,0.9517 -4.00432,1.4276 -6.48726,1.4276 -2.137,0 -4.08064,-0.3876 -5.83091,-1.1627 -1.75031,-0.7751 -3.24619,-1.9673 -4.48768,-3.5763 -1.24147,-1.6091 -2.19803,-3.6597 -2.86966,-6.1518 -0.67162,-2.4922 -1.00742,-5.4455 -1.00742,-8.8599 0,-2.9434 0.31036,-5.63174 0.93111,-8.06499 0.62074,-2.43324 1.54675,-4.51825 2.77807,-6.25491 1.23131,-1.73656 2.77298,-3.08074 4.62504,-4.03255 1.85204,-0.9517 4.00937,-1.4275 6.47201,-1.42761 2.13696,1.1e-4 4.0806,0.38764 5.83091,1.16269 1.75026,0.77517 3.24615,1.9722 4.48765,3.59109 1.24147,1.6189 2.19802,3.67441 2.86968,6.16654 0.67158,2.49212 1.00739,5.44544 1.00742,8.85974 z m -5.37298,0.1767 c -2e-5,-0.6672 -0.0254,-1.3295 -0.0763,-1.9869 -0.0509,-0.6574 -0.10685,-1.3 -0.16791,-1.9279 l -16.88215,12.0976 c 0.30526,1.0204 0.69196,1.9623 1.16007,2.8258 0.46809,0.8634 1.03287,1.6041 1.69432,2.2222 0.66143,0.6181 1.41447,1.0989 2.25909,1.4423 0.84461,0.3434 1.80625,0.5151 2.88493,0.5151 1.38394,0 2.64068,-0.3238 3.77025,-0.9714 1.12952,-0.6475 2.09117,-1.6091 2.88493,-2.8846 0.79371,-1.2754 1.40428,-2.8599 1.83169,-4.7536 0.42737,-1.8937 0.64108,-4.0865 0.6411,-6.5786 z m -18.25592,-0.3532 c -2e-5,0.6083 0.005,1.2166 0.0152,1.8249 0.0104,0.6083 0.0457,1.197 0.10685,1.766 l 16.88216,-12.03872 c -0.30531,-1.00068 -0.692,-1.9132 -1.16007,-2.73734 -0.46813,-0.82415 -1.02781,-1.53548 -1.67907,-2.1341 -0.65129,-0.59841 -1.39414,-1.06452 -2.22856,-1.39811 -0.83446,-0.3336 -1.77066,-0.50034 -2.80861,-0.50034 -1.38396,0 -2.6407,0.3238 -3.77024,0.97129 -1.12957,0.6476 -2.09121,1.61405 -2.88492,2.89935 -0.79375,1.2853 -1.40432,2.87481 -1.83171,4.76843 -0.42741,1.89361 -0.6411,4.08644 -0.6411,6.57864 z"
         style="font-size:56px;font-style:normal;font-variant:normal;font-weight:normal;font-stretch:normal;text-align:start;line-height:125%;letter-spacing:0px;word-spacing:0px;writing-mode:lr-tb;text-anchor:start;fill:#000000;fill-opacity:1;stroke:#ffffff;stroke-width:1.01840913;stroke-opacity:1;font-family:Consolas;-inkscape-font-specification:Consolas"
         id="path4047-1-3-7-3"
         inkscape:connector-curvature="0" />
      <path
         d="m 397.68083,1023.2804 -25.06374,0 6e-5,-4.7684 10.25746,0 0,-29.15757 -10.25746,0 0,-4.72138 16.14941,-2.1e-4 0,33.87916 8.91427,0 z"
         style="font-size:56px;font-style:normal;font-variant:normal;font-weight:normal;font-stretch:normal;text-align:start;line-height:125%;letter-spacing:0px;word-spacing:0px;writing-mode:lr-tb;text-anchor:start;fill:#000000;fill-opacity:1;stroke:#ffffff;stroke-width:1.01840913;stroke-opacity:1;font-family:Consolas;-inkscape-font-specification:Consolas"
         id="path4051-2-2-9-3"
         inkscape:connector-curvature="0"
         sodipodi:nodetypes="ccccccccccc" />
      <path
         d="m 465.91021,1023.2804 -25.06375,0 7e-5,-4.7684 10.25745,0 0,-29.15757 -10.25745,0 0,-4.72138 16.14941,-2.1e-4 0,33.87916 8.91427,0 z"
         style="font-size:56px;font-style:normal;font-variant:normal;font-weight:normal;font-stretch:normal;text-align:start;line-height:125%;letter-spacing:0px;word-spacing:0px;writing-mode:lr-tb;text-anchor:start;fill:#000000;fill-opacity:1;stroke:#ffffff;stroke-width:1.01840913;stroke-opacity:1;font-family:Consolas;-inkscape-font-specification:Consolas"
         id="path4051-4-6-4-1"
         inkscape:connector-curvature="0"
         sodipodi:nodetypes="ccccccccccc" />
      <path
         d="m 363.47651,1023.2806 -25.06373,0 5e-5,-4.7684 10.25747,0 0,-29.15755 -10.25747,0 0,-4.72138 16.14942,-3.2e-4 0,33.87925 8.91426,0 z"
         style="font-size:56px;font-style:normal;font-variant:normal;font-weight:normal;font-stretch:normal;text-align:start;line-height:125%;letter-spacing:0px;word-spacing:0px;writing-mode:lr-tb;text-anchor:start;fill:#000000;fill-opacity:1;stroke:#ffffff;stroke-width:1.01840913;stroke-opacity:1;font-family:Consolas;-inkscape-font-specification:Consolas"
         id="path4051-2-2-5-1-1"
         inkscape:connector-curvature="0"
         sodipodi:nodetypes="ccccccccccc" />
      <path
         d="m 499.37199,1023.2809 -25.06375,0 6e-5,-4.7685 10.25746,0 0,-29.15754 -10.25746,0 0,-4.72138 16.14941,-2.1e-4 0,33.87913 8.91428,0 z"
         style="font-size:56px;font-style:normal;font-variant:normal;font-weight:normal;font-stretch:normal;text-align:start;line-height:125%;letter-spacing:0px;word-spacing:0px;writing-mode:lr-tb;text-anchor:start;fill:#000000;fill-opacity:1;stroke:#ffffff;stroke-width:1.01840913;stroke-opacity:1;font-family:Consolas;-inkscape-font-specification:Consolas"
         id="path4051-4-6-4-2-3"
         inkscape:connector-curvature="0"
         sodipodi:nodetypes="ccccccccccc" />
      <path
         d="m 431.27479,1023.281 -25.06375,0 6e-5,-4.7685 10.25746,0 0,-29.15753 -10.25746,0 0,-4.72138 16.14942,-2.1e-4 0,33.87912 8.91427,0 z"
         style="font-size:56px;font-style:normal;font-variant:normal;font-weight:normal;font-stretch:normal;text-align:start;line-height:125%;letter-spacing:0px;word-spacing:0px;writing-mode:lr-tb;text-anchor:start;fill:#000000;fill-opacity:1;stroke:#ffffff;stroke-width:1.01840913;stroke-opacity:1;font-family:Consolas;-inkscape-font-specification:Consolas"
         id="path4051-4-6-4-1-8"
         inkscape:connector-curvature="0"
         sodipodi:nodetypes="ccccccccccc" />
      <g
         style="stroke:#ffffff;stroke-opacity:1"
         transform="matrix(1.1164643,0,0,1.0764658,315.36763,-258.88904)"
         id="g4440">
        <path
           inkscape:connector-curvature="0"
           id="path4047-1-7"
           style="font-size:56px;font-style:normal;font-variant:normal;font-weight:normal;font-stretch:normal;text-align:start;line-height:125%;letter-spacing:0px;word-spacing:0px;writing-mode:lr-tb;text-anchor:start;fill:#000000;fill-opacity:1;stroke:#ffffff;stroke-opacity:1;font-family:Consolas;-inkscape-font-specification:Consolas"
           d="m 273.99472,1112.7231 c -3e-5,2.7343 -0.27347,5.2272 -0.82031,7.4785 -0.5469,2.2513 -1.37633,4.1836 -2.48828,5.7968 -1.11201,1.6133 -2.49286,2.862 -4.14258,3.7461 -1.64976,0.8841 -3.58661,1.3262 -5.81055,1.3262 -1.91407,0 -3.65496,-0.36 -5.22265,-1.0801 -1.56772,-0.72 -2.90756,-1.8274 -4.01954,-3.3222 -1.11198,-1.4948 -1.96875,-3.3998 -2.57031,-5.7149 -0.60156,-2.3151 -0.90234,-5.0586 -0.90234,-8.2304 0,-2.7344 0.27799,-5.2318 0.83398,-7.4922 0.55599,-2.2604 1.38541,-4.1973 2.48828,-5.8106 1.10286,-1.6132 2.48372,-2.8619 4.14258,-3.7461 1.65884,-0.8841 3.59113,-1.3261 5.79688,-1.3261 1.91404,0 3.65493,0.36 5.22265,1.08 1.56769,0.7201 2.90753,1.8321 4.01953,3.336 1.11196,1.5039 1.96873,3.4134 2.57032,5.7285 0.60153,2.3151 0.90231,5.0586 0.90234,8.2305 z m -4.8125,0.164 c -2e-5,-0.6198 -0.0228,-1.235 -0.0684,-1.8457 -0.0456,-0.6106 -0.0957,-1.2077 -0.15039,-1.791 l -15.12109,11.2383 c 0.27342,0.9479 0.61978,1.8229 1.03906,2.625 0.41926,0.8021 0.92512,1.4902 1.51758,2.0644 0.59243,0.5743 1.26691,1.0209 2.02343,1.3399 0.7565,0.319 1.61783,0.4785 2.58399,0.4785 1.23957,0 2.36521,-0.3008 3.37695,-0.9024 1.0117,-0.6015 1.87303,-1.4947 2.58399,-2.6796 0.71091,-1.1849 1.25779,-2.6569 1.64062,-4.4161 0.38279,-1.7591 0.5742,-3.7962 0.57422,-6.1113 z m -16.35156,-0.3281 c -1e-5,0.5651 0.005,1.1302 0.0137,1.6953 0.009,0.5651 0.041,1.112 0.0957,1.6406 l 15.12109,-11.1836 c -0.27346,-0.9296 -0.61981,-1.7773 -1.03906,-2.5429 -0.41929,-0.7656 -0.92059,-1.4264 -1.50391,-1.9825 -0.58335,-0.5559 -1.24871,-0.9889 -1.99609,-1.2988 -0.74741,-0.3099 -1.58595,-0.4648 -2.51563,-0.4648 -1.23959,0 -2.36524,0.3008 -3.37695,0.9023 -1.01173,0.6016 -1.87306,1.4994 -2.58398,2.6934 -0.71095,1.194 -1.25782,2.6706 -1.64063,4.4297 -0.38282,1.7591 -0.57422,3.7962 -0.57422,6.1113 z" />
        <path
           inkscape:connector-curvature="0"
           id="path4049-5-4"
           style="font-size:56px;font-style:normal;font-variant:normal;font-weight:normal;font-stretch:normal;text-align:start;line-height:125%;letter-spacing:0px;word-spacing:0px;writing-mode:lr-tb;text-anchor:start;fill:#000000;fill-opacity:1;stroke:#ffffff;stroke-opacity:1;font-family:Consolas;-inkscape-font-specification:Consolas"
           d="m 304.83847,1112.7231 c -3e-5,2.7343 -0.27347,5.2272 -0.82031,7.4785 -0.5469,2.2513 -1.37633,4.1836 -2.48828,5.7968 -1.11201,1.6133 -2.49287,2.862 -4.14258,3.7461 -1.64976,0.8841 -3.58661,1.3262 -5.81055,1.3262 -1.91407,0 -3.65496,-0.36 -5.22265,-1.0801 -1.56772,-0.72 -2.90756,-1.8274 -4.01954,-3.3222 -1.11198,-1.4948 -1.96875,-3.3998 -2.57031,-5.7149 -0.60156,-2.3151 -0.90234,-5.0586 -0.90234,-8.2304 0,-2.7344 0.27799,-5.2318 0.83398,-7.4922 0.55599,-2.2604 1.38541,-4.1973 2.48828,-5.8106 1.10286,-1.6132 2.48372,-2.8619 4.14258,-3.7461 1.65884,-0.8841 3.59113,-1.3261 5.79688,-1.3261 1.91404,0 3.65492,0.36 5.22265,1.08 1.56769,0.7201 2.90753,1.8321 4.01953,3.336 1.11196,1.5039 1.96873,3.4134 2.57032,5.7285 0.60153,2.3151 0.90231,5.0586 0.90234,8.2305 z m -4.8125,0.164 c -2e-5,-0.6198 -0.0228,-1.235 -0.0684,-1.8457 -0.0456,-0.6106 -0.0957,-1.2077 -0.15039,-1.791 l -15.12109,11.2383 c 0.27342,0.9479 0.61978,1.8229 1.03906,2.625 0.41926,0.8021 0.92512,1.4902 1.51758,2.0644 0.59243,0.5743 1.26691,1.0209 2.02343,1.3399 0.7565,0.319 1.61783,0.4785 2.58399,0.4785 1.23956,0 2.36521,-0.3008 3.37695,-0.9024 1.0117,-0.6015 1.87303,-1.4947 2.58398,-2.6796 0.71092,-1.1849 1.25779,-2.6569 1.64063,-4.4161 0.38279,-1.7591 0.57419,-3.7962 0.57422,-6.1113 z m -16.35156,-0.3281 c -1e-5,0.5651 0.005,1.1302 0.0137,1.6953 0.009,0.5651 0.041,1.112 0.0957,1.6406 l 15.12109,-11.1836 c -0.27346,-0.9296 -0.61981,-1.7773 -1.03906,-2.5429 -0.41929,-0.7656 -0.9206,-1.4264 -1.50391,-1.9825 -0.58335,-0.5559 -1.24871,-0.9889 -1.99609,-1.2988 -0.74741,-0.3099 -1.58596,-0.4648 -2.51563,-0.4648 -1.23959,0 -2.36524,0.3008 -3.37695,0.9023 -1.01173,0.6016 -1.87306,1.4994 -2.58398,2.6934 -0.71095,1.194 -1.25782,2.6706 -1.64063,4.4297 -0.38282,1.7591 -0.57422,3.7962 -0.57422,6.1113 z" />
        <path
           sodipodi:nodetypes="ccccccccccc"
           inkscape:connector-curvature="0"
           id="path4051-2-27"
           style="font-size:56px;font-style:normal;font-variant:normal;font-weight:normal;font-stretch:normal;text-align:start;line-height:125%;letter-spacing:0px;word-spacing:0px;writing-mode:lr-tb;text-anchor:start;fill:#000000;fill-opacity:1;stroke:#ffffff;stroke-opacity:1;font-family:Consolas;-inkscape-font-specification:Consolas"
           d="m 334.56112,1130.5785 -22.44921,0 5e-5,-4.4297 9.18745,0 0,-27.0864 -9.18745,0 0,-4.386 14.46479,-2e-4 0,31.4726 7.98437,0 z" />
        <path
           inkscape:connector-curvature="0"
           id="path4053-7-7"
           style="font-size:56px;font-style:normal;font-variant:normal;font-weight:normal;font-stretch:normal;text-align:start;line-height:125%;letter-spacing:0px;word-spacing:0px;writing-mode:lr-tb;text-anchor:start;fill:#000000;fill-opacity:1;stroke:#ffffff;stroke-opacity:1;font-family:Consolas;-inkscape-font-specification:Consolas"
           d="m 366.52598,1112.7231 c -3e-5,2.7343 -0.27347,5.2272 -0.82032,7.4785 -0.5469,2.2513 -1.37633,4.1836 -2.48828,5.7968 -1.112,1.6133 -2.49286,2.862 -4.14258,3.7461 -1.64976,0.8841 -3.5866,1.3262 -5.81054,1.3262 -1.91408,0 -3.65496,-0.36 -5.22266,-1.0801 -1.56773,-0.72 -2.90757,-1.8274 -4.01954,-3.3222 -1.11199,-1.4948 -1.96876,-3.3998 -2.57031,-5.7149 -0.60157,-2.3151 -0.90235,-5.0586 -0.90235,-8.2304 0,-2.7344 0.27799,-5.2318 0.83399,-7.4922 0.55598,-2.2604 1.38541,-4.1973 2.48828,-5.8106 1.10286,-1.6132 2.48371,-2.8619 4.14258,-3.7461 1.65885,-0.8841 3.59114,-1.3261 5.79688,-1.3261 1.91405,0 3.65493,0.36 5.22266,1.08 1.56768,0.7201 2.90753,1.8321 4.01953,3.336 1.11195,1.5039 1.96872,3.4134 2.57031,5.7285 0.60154,2.3151 0.90232,5.0586 0.90235,8.2305 z m -4.8125,0.164 c -3e-5,-0.6198 -0.0228,-1.235 -0.0684,-1.8457 -0.0456,-0.6106 -0.0957,-1.2077 -0.15039,-1.791 l -15.12111,11.2383 c 0.27343,0.9479 0.61978,1.8229 1.03906,2.625 0.41926,0.8021 0.92513,1.4902 1.51759,2.0644 0.59244,0.5743 1.26692,1.0209 2.02344,1.3399 0.7565,0.319 1.61782,0.4785 2.58398,0.4785 1.23957,0 2.36522,-0.3008 3.37696,-0.9024 1.0117,-0.6015 1.87302,-1.4947 2.58398,-2.6796 0.71092,-1.1849 1.25779,-2.6569 1.64063,-4.4161 0.38279,-1.7591 0.57419,-3.7962 0.57422,-6.1113 z m -16.35158,-0.3281 c 0,0.5651 0.005,1.1302 0.0137,1.6953 0.009,0.5651 0.041,1.112 0.0957,1.6406 l 15.1211,-11.1836 c -0.27346,-0.9296 -0.61981,-1.7773 -1.03906,-2.5429 -0.41929,-0.7656 -0.92059,-1.4264 -1.50391,-1.9825 -0.58335,-0.5559 -1.24871,-0.9889 -1.99609,-1.2988 -0.74741,-0.3099 -1.58596,-0.4648 -2.51563,-0.4648 -1.23959,0 -2.36524,0.3008 -3.37695,0.9023 -1.01173,0.6016 -1.87306,1.4994 -2.58399,2.6934 -0.71095,1.194 -1.25782,2.6706 -1.64063,4.4297 -0.38282,1.7591 -0.57422,3.7962 -0.57422,6.1113 z" />
        <path
           sodipodi:nodetypes="ccccccccccc"
           inkscape:connector-curvature="0"
           id="path4051-4-9"
           style="font-size:56px;font-style:normal;font-variant:normal;font-weight:normal;font-stretch:normal;text-align:start;line-height:125%;letter-spacing:0px;word-spacing:0px;writing-mode:lr-tb;text-anchor:start;fill:#000000;fill-opacity:1;stroke:#ffffff;stroke-opacity:1;font-family:Consolas;-inkscape-font-specification:Consolas"
           d="m 395.67314,1130.5785 -22.44922,0 6e-5,-4.4297 9.18744,0 0,-27.0864 -9.18744,0 0,-4.386 14.46478,-2e-4 0,31.4726 7.98438,0 z" />
        <path
           sodipodi:nodetypes="ccccccccccc"
           inkscape:connector-curvature="0"
           id="path4051-4-6-4-2-31"
           style="font-size:56px;font-style:normal;font-variant:normal;font-weight:normal;font-stretch:normal;text-align:start;line-height:125%;letter-spacing:0px;word-spacing:0px;writing-mode:lr-tb;text-anchor:start;fill:#000000;fill-opacity:1;stroke:#ffffff;stroke-opacity:1;font-family:Consolas;-inkscape-font-specification:Consolas"
           d="m 425.98843,1130.5782 -22.44922,0 6e-5,-4.4297 9.18744,0 0,-27.0864 -9.18744,0 0,-4.386 14.46478,-2e-4 0,31.4726 7.98438,0 z" />
      </g>
      <g
         style="stroke:#ffffff;stroke-opacity:1"
         transform="matrix(1.1164643,0,0,1.0764658,205.62744,-206.42587)"
         id="g4496">
        <path
           inkscape:connector-curvature="0"
           id="path4047-1-3-7-3-9"
           style="font-size:56px;font-style:normal;font-variant:normal;font-weight:normal;font-stretch:normal;text-align:start;line-height:125%;letter-spacing:0px;word-spacing:0px;writing-mode:lr-tb;text-anchor:start;fill:#000000;fill-opacity:1;stroke:#ffffff;stroke-opacity:1;font-family:Consolas;-inkscape-font-specification:Consolas"
           d="m 372.4594,1124.4996 c -3e-5,2.7344 -0.27347,5.2273 -0.82031,7.4786 -0.5469,2.2513 -1.37633,4.1837 -2.48828,5.7969 -1.11201,1.6133 -2.49286,2.862 -4.14258,3.7461 -1.64976,0.8841 -3.58661,1.3262 -5.81055,1.3262 -1.91407,0 -3.65496,-0.36 -5.22265,-1.0801 -1.56772,-0.72 -2.90756,-1.8275 -4.01954,-3.3222 -1.11198,-1.4948 -1.96875,-3.3998 -2.57031,-5.715 -0.60156,-2.3151 -0.90234,-5.0586 -0.90234,-8.2305 0,-2.7343 0.27799,-5.2317 0.83398,-7.4921 0.55599,-2.2604 1.38541,-4.1973 2.48828,-5.8106 1.10286,-1.6132 2.48372,-2.8619 4.14258,-3.7461 1.65884,-0.8841 3.59113,-1.3261 5.79688,-1.3262 1.91404,10e-5 3.65493,0.3601 5.22265,1.0801 1.56769,0.7201 2.90753,1.8321 4.01953,3.336 1.11196,1.5039 1.96873,3.4134 2.57032,5.7285 0.60153,2.3151 0.90231,5.0586 0.90234,8.2304 z m -4.8125,0.1641 c -2e-5,-0.6198 -0.0228,-1.235 -0.0684,-1.8457 -0.0456,-0.6107 -0.0957,-1.2077 -0.15039,-1.791 l -15.12109,11.2383 c 0.27342,0.9479 0.61978,1.8229 1.03906,2.6251 0.41926,0.8021 0.92512,1.4902 1.51758,2.0644 0.59243,0.5742 1.26691,1.0209 2.02343,1.3399 0.7565,0.319 1.61783,0.4785 2.58399,0.4785 1.23957,0 2.36521,-0.3008 3.37695,-0.9024 1.0117,-0.6015 1.87303,-1.4948 2.58399,-2.6797 0.71091,-1.1849 1.25779,-2.6569 1.64062,-4.4161 0.38279,-1.7591 0.5742,-3.7962 0.57422,-6.1113 z m -16.35156,-0.3281 c -1e-5,0.5651 0.005,1.1302 0.0137,1.6953 0.009,0.5651 0.041,1.112 0.0957,1.6406 l 15.12109,-11.1836 c -0.27346,-0.9296 -0.61981,-1.7773 -1.03906,-2.5429 -0.41929,-0.7656 -0.92059,-1.4264 -1.50391,-1.9825 -0.58335,-0.5559 -1.24871,-0.9889 -1.99609,-1.2988 -0.74741,-0.3099 -1.58595,-0.4648 -2.51563,-0.4648 -1.23959,0 -2.36524,0.3008 -3.37695,0.9023 -1.01173,0.6016 -1.87306,1.4994 -2.58398,2.6934 -0.71095,1.194 -1.25782,2.6706 -1.64063,4.4297 -0.38282,1.7591 -0.57422,3.7962 -0.57422,6.1113 z" />
        <path
           sodipodi:nodetypes="ccccccccccc"
           inkscape:connector-curvature="0"
           id="path4051-4-6-4-1-86"
           style="font-size:56px;font-style:normal;font-variant:normal;font-weight:normal;font-stretch:normal;text-align:start;line-height:125%;letter-spacing:0px;word-spacing:0px;writing-mode:lr-tb;text-anchor:start;fill:#000000;fill-opacity:1;stroke:#ffffff;stroke-opacity:1;font-family:Consolas;-inkscape-font-specification:Consolas"
           d="m 494.13782,1142.3552 -22.44922,0 6e-5,-4.4297 9.18744,0 0,-27.0865 -9.18744,0 0,-4.386 14.46478,-2e-4 0,31.4727 7.98438,0 z" />
        <path
           sodipodi:nodetypes="ccccccccccc"
           inkscape:connector-curvature="0"
           id="path4051-2-2-5-1-1-5"
           style="font-size:56px;font-style:normal;font-variant:normal;font-weight:normal;font-stretch:normal;text-align:start;line-height:125%;letter-spacing:0px;word-spacing:0px;writing-mode:lr-tb;text-anchor:start;fill:#000000;fill-opacity:1;stroke:#ffffff;stroke-opacity:1;font-family:Consolas;-inkscape-font-specification:Consolas"
           d="m 402.38952,1142.3554 -22.44921,0 5e-5,-4.4297 9.18745,0 0,-27.0865 -9.18745,0 0,-4.386 14.46479,-3e-4 0,31.4728 7.98437,0 z" />
        <path
           sodipodi:nodetypes="ccccccccccc"
           inkscape:connector-curvature="0"
           id="path4051-4-6-4-2-3-0"
           style="font-size:56px;font-style:normal;font-variant:normal;font-weight:normal;font-stretch:normal;text-align:start;line-height:125%;letter-spacing:0px;word-spacing:0px;writing-mode:lr-tb;text-anchor:start;fill:#000000;fill-opacity:1;stroke:#ffffff;stroke-opacity:1;font-family:Consolas;-inkscape-font-specification:Consolas"
           d="m 524.10902,1142.3556 -22.44922,0 6e-5,-4.4297 9.18744,0 0,-27.0865 -9.18744,0 0,-4.386 14.46478,-2e-4 0,31.4727 7.98438,0 z" />
        <path
           sodipodi:nodetypes="ccccccccccc"
           inkscape:connector-curvature="0"
           id="path4051-4-6-4-1-8-2"
           style="font-size:56px;font-style:normal;font-variant:normal;font-weight:normal;font-stretch:normal;text-align:start;line-height:125%;letter-spacing:0px;word-spacing:0px;writing-mode:lr-tb;text-anchor:start;fill:#000000;fill-opacity:1;stroke:#ffffff;stroke-opacity:1;font-family:Consolas;-inkscape-font-specification:Consolas"
           d="m 463.1154,1142.3557 -22.44922,0 6e-5,-4.4297 9.18744,0 0,-27.0865 -9.18744,0 0,-4.386 14.46478,-2e-4 0,31.4727 7.98438,0 z" />
        <path
           inkscape:connector-curvature="0"
           id="path4047-1-3-7-3-9-8"
           style="font-size:56px;font-style:normal;font-variant:normal;font-weight:normal;font-stretch:normal;text-align:start;line-height:125%;letter-spacing:0px;word-spacing:0px;writing-mode:lr-tb;text-anchor:start;fill:#000000;fill-opacity:1;stroke:#ffffff;stroke-opacity:1;font-family:Consolas;-inkscape-font-specification:Consolas"
           d="m 434.24241,1124.4994 c -3e-5,2.7344 -0.27347,5.2273 -0.82031,7.4786 -0.5469,2.2513 -1.37633,4.1837 -2.48828,5.7969 -1.11201,1.6133 -2.49286,2.862 -4.14258,3.7461 -1.64976,0.8841 -3.58661,1.3262 -5.81055,1.3262 -1.91407,0 -3.65496,-0.36 -5.22265,-1.0801 -1.56772,-0.72 -2.90756,-1.8275 -4.01954,-3.3222 -1.11198,-1.4948 -1.96875,-3.3998 -2.57031,-5.715 -0.60156,-2.3151 -0.90234,-5.0586 -0.90234,-8.2305 0,-2.7343 0.27799,-5.2317 0.83398,-7.4921 0.55599,-2.2604 1.38541,-4.1973 2.48828,-5.8106 1.10286,-1.6132 2.48372,-2.8619 4.14258,-3.7461 1.65884,-0.8841 3.59113,-1.3261 5.79688,-1.3262 1.91404,10e-5 3.65493,0.3601 5.22265,1.0801 1.56769,0.7201 2.90753,1.8321 4.01953,3.336 1.11196,1.5039 1.96873,3.4134 2.57032,5.7285 0.60153,2.3151 0.90231,5.0586 0.90234,8.2304 z m -4.8125,0.1641 c -2e-5,-0.6198 -0.0228,-1.235 -0.0684,-1.8457 -0.0456,-0.6107 -0.0957,-1.2077 -0.15039,-1.791 l -15.12109,11.2383 c 0.27342,0.9479 0.61978,1.8229 1.03906,2.6251 0.41926,0.8021 0.92512,1.4902 1.51758,2.0644 0.59243,0.5742 1.26691,1.0209 2.02343,1.3399 0.7565,0.319 1.61783,0.4785 2.58399,0.4785 1.23957,0 2.36521,-0.3008 3.37695,-0.9024 1.0117,-0.6015 1.87303,-1.4948 2.58399,-2.6797 0.71091,-1.1849 1.25779,-2.6569 1.64062,-4.4161 0.38279,-1.7591 0.5742,-3.7962 0.57422,-6.1113 z m -16.35156,-0.3281 c -10e-6,0.5651 0.005,1.1302 0.0137,1.6953 0.009,0.5651 0.041,1.112 0.0957,1.6406 l 15.12109,-11.1836 c -0.27346,-0.9296 -0.61981,-1.7773 -1.03906,-2.5429 -0.41929,-0.7656 -0.92059,-1.4264 -1.50391,-1.9825 -0.58335,-0.5559 -1.24871,-0.9889 -1.99609,-1.2988 -0.74741,-0.3099 -1.58595,-0.4648 -2.51563,-0.4648 -1.23959,0 -2.36524,0.3008 -3.37695,0.9023 -1.01173,0.6016 -1.87306,1.4994 -2.58398,2.6934 -0.71095,1.194 -1.25782,2.6706 -1.64063,4.4297 -0.38282,1.7591 -0.57422,3.7962 -0.57422,6.1113 z" />
      </g>
    </g>
    <path
       style="fill:none;stroke:#000000;stroke-width:3.69368291;stroke-linecap:round;stroke-linejoin:round;stroke-miterlimit:4;stroke-opacity:1;stroke-dasharray:none"
       d="m -35.446047,1329.9942 -13.030925,19.2102 c 27.193904,6.5825 51.5211371,5.7444 78.18554,0 L 16.67765,1329.9942"
       id="path3833"
       inkscape:connector-curvature="0" />
    <path
       style="fill:url(#radialGradient3841);fill-opacity:1;stroke:#000000;stroke-width:3.69368291;stroke-linecap:round;stroke-linejoin:round;stroke-miterlimit:4;stroke-opacity:1;stroke-dasharray:none"
       d="m 37.343118,1289.9981 c 0,25.8068 -20.920535,46.7273 -46.7273169,46.7273 -25.8067861,0 -46.7273191,-20.9205 -46.7273191,-46.7273 0,-25.8068 20.920533,-46.7274 46.7273191,-46.7274 25.8067819,0 46.7273169,20.9206 46.7273169,46.7274 z"
       id="path4664"
       inkscape:connector-curvature="0" />
    <path
       style="fill:none;stroke:#000000;stroke-width:4;stroke-linecap:round;stroke-linejoin:round;stroke-miterlimit:4;stroke-opacity:1;stroke-dasharray:none"
       d="m -8.5536449,1297.6722 c -18.9458371,-23.9145 42.2622429,-10.3186 12.753039,15.3984 -18.2575431,15.9113 -44.4228421,-5.8103 -40.4947581,-23.1998 8.172753,-36.1807 45.5985821,-30.2457 58.859362,-4.8382 25.04052,47.9775 65.87669,33.7925 108.610992,2.4561 42.72037,-31.3262 81.65177,14.9298 114.16821,34.5887 53.84748,32.5555 91.62205,-40.7378 123.49416,-2.0314 20.00584,18.756 64.5752,-13.7154 81.60102,4.4906 28.5324,30.5101 65.71379,26.2982 88.13942,13.4419 20.08662,-11.5152 44.2553,-40.6819 56.23268,-58.4844 51.47968,-76.5166 -26.88099,-34.1385 -31.69212,8.2053 -4.13079,36.356 39.24664,2.5095 57.73234,1.7841 32.46021,-1.2736 -14.80254,30.5821 -6.17535,48.6714 7.39873,15.5134 54.1145,-9.644 82.08941,-15.4153"
       id="path3817"
       inkscape:connector-curvature="0"
       sodipodi:nodetypes="sssssscsssccss" />
  </g>
</svg>
