<?xml version="1.0" encoding="utf-8"?>
<!-- Generator: Adobe Illustrator 17.0.0, SVG Export Plug-In . SVG Version: 6.00 Build 0)  -->
<svg version="1.2" baseProfile="tiny" xmlns="http://www.w3.org/2000/svg" xmlns:xlink="http://www.w3.org/1999/xlink" x="0px"
	 y="0px" width="2000px" height="2000px" viewBox="0 0 2000 2000" xml:space="preserve">
<g id="Layer_1">
</g>
<g id="Orikami" display="none">
	<g display="inline">
		<path fill="#29ABE2" d="M609.465,1232.419c18.437,0,34.114,6.481,47.031,19.441c12.915,12.963,19.374,28.663,19.374,47.1
			c0,18.257-6.459,33.887-19.374,46.894c-12.917,13.007-28.594,19.511-47.031,19.511c-18.257,0-33.887-6.504-46.894-19.511
			c-13.007-13.007-19.511-28.637-19.511-46.894c0-18.437,6.503-34.137,19.511-47.1
			C575.578,1238.9,591.208,1232.419,609.465,1232.419z M570.649,1260.075c-10.727,10.771-16.088,23.734-16.088,38.885
			c0,15.152,5.361,28.067,16.088,38.747c10.724,10.68,23.663,16.02,38.815,16.02c15.151,0,28.089-5.34,38.816-16.02
			c10.725-10.68,16.088-23.595,16.088-38.747c0-15.15-5.363-28.113-16.088-38.885c-10.727-10.769-23.665-16.155-38.816-16.155
			C594.312,1243.92,581.374,1249.307,570.649,1260.075z"/>
		<path fill="#29ABE2" d="M783.376,1252.683c-7.759,1.187-15.381,6.116-22.865,14.786c-7.486,8.673-11.227,17.436-11.227,26.288
			v68.185h-10.954v-118.844h10.954v25.74c4.563-11.956,13.918-20.855,28.067-26.698L783.376,1252.683z"/>
		<path fill="#29ABE2" d="M854.806,1204.214c2.144,2.101,3.217,4.61,3.217,7.53c0,3.104-1.074,5.706-3.217,7.805
			c-2.146,2.101-4.679,3.148-7.599,3.148c-3.012,0-5.592-1.048-7.736-3.148c-2.146-2.099-3.217-4.7-3.217-7.805
			c0-2.92,1.072-5.43,3.217-7.53c2.144-2.099,4.724-3.149,7.736-3.149C850.127,1201.064,852.66,1202.115,854.806,1204.214z
			 M852.546,1243.098v118.844H841.73v-118.844H852.546z"/>
		<path fill="#29ABE2" d="M982.37,1243.098l-29.3,36.283l46.688,82.561h-13.418l-40.39-73.798l-10.543,13.144v60.654h-10.953
			v-169.365h10.953v91.323l32.997-40.802H982.37z"/>
		<path fill="#29ABE2" d="M1176.409,1361.941h-10.953v-24.234c-2.101,2.83-4.382,5.523-6.846,8.078
			c-12.962,13.055-28.663,19.579-47.1,19.579c-18.257,0-33.887-6.504-46.894-19.511s-19.511-28.637-19.511-46.894
			c0-18.437,6.504-34.137,19.511-47.1c13.007-12.96,28.637-19.441,46.894-19.441c18.437,0,34.138,6.481,47.1,19.441
			c2.464,2.557,4.745,5.25,6.846,8.078v-16.841h10.953V1361.941z M1165.456,1309.64v-21.496c-2.009-10.68-7.03-20.035-15.061-28.068
			c-10.771-10.769-23.734-16.155-38.885-16.155c-15.152,0-28.091,5.387-38.815,16.155c-10.727,10.771-16.088,23.734-16.088,38.885
			c0,15.152,5.361,28.067,16.088,38.747c10.725,10.68,23.663,16.02,38.815,16.02c15.15,0,28.113-5.385,38.885-16.156
			C1158.426,1329.539,1163.447,1320.229,1165.456,1309.64z"/>
		<path fill="#29ABE2" d="M1244.21,1243.098h10.953v2.876c6.754-6.572,14.832-9.858,24.234-9.858
			c9.766,0,18.073,3.423,24.919,10.269c1.825,1.827,3.423,3.834,4.792,6.024c1.459-2.099,3.149-4.107,5.065-6.024
			c6.847-6.846,15.151-10.269,24.919-10.269c9.767,0,18.073,3.423,24.919,10.269c6.48,6.664,9.903,14.605,10.269,23.823v91.734
			h-10.953v-91.734h0.137c-0.273-6.298-2.648-11.638-7.119-16.019c-4.84-4.745-10.59-7.12-17.252-7.12
			c-6.756,0-12.527,2.375-17.319,7.12c-4.792,4.747-7.188,10.68-7.188,17.799v89.954h-10.816v-91.734h0.137
			c-0.365-6.298-2.785-11.638-7.256-16.019c-4.84-4.745-10.59-7.12-17.252-7.12c-6.664,0-12.369,2.375-17.114,7.12
			c-4.2,4.107-6.572,9.128-7.12,15.061v92.692h-10.953V1243.098z"/>
		<path fill="#29ABE2" d="M1459.264,1204.214c2.144,2.101,3.218,4.61,3.218,7.53c0,3.104-1.074,5.706-3.218,7.805
			c-2.146,2.101-4.679,3.148-7.599,3.148c-3.012,0-5.592-1.048-7.735-3.148c-2.146-2.099-3.218-4.7-3.218-7.805
			c0-2.92,1.072-5.43,3.218-7.53c2.144-2.099,4.724-3.149,7.735-3.149C1454.585,1201.064,1457.118,1202.115,1459.264,1204.214z
			 M1457.005,1243.098v118.844h-10.816v-118.844H1457.005z"/>
	</g>
</g>
<g id="Orikami_2">
	<g>
		<path fill="#29ABE2" d="M569.619,1368.458c-15.577,0-30.008-5.956-41.232-16.95c-10.995-10.996-16.951-25.656-16.951-41.232
			v-5.727c0-15.576,5.956-30.236,16.951-41.231c11.224-10.995,25.655-16.951,41.232-16.951h3.665
			c15.576,0,30.236,5.956,41.231,16.951s17.18,25.655,17.18,41.231v5.727c0,15.576-6.185,30.236-17.18,41.232
			c-10.995,10.994-25.655,16.95-41.231,16.95H569.619z M522.203,1304.549v5.727c0,26.113,21.303,47.417,47.417,47.417h3.665
			c26.342,0,47.646-21.304,47.646-47.417v-5.727c0-26.113-21.303-47.416-47.646-47.416h-3.665
			C543.505,1257.133,522.203,1278.436,522.203,1304.549z"/>
		<path fill="#29ABE2" d="M743.244,1247.054l-2.062,8.934c-26.342,0-40.773,21.074-40.773,36.421v75.362H690.33v-120.717h10.079
			v19.013C707.967,1255.987,716.443,1247.054,743.244,1247.054z"/>
		<path fill="#29ABE2" d="M802.568,1226.667c-3.665,0-6.643-3.207-6.643-6.872s2.978-6.872,6.643-6.872
			c3.894,0,6.872,3.207,6.872,6.872S806.462,1226.667,802.568,1226.667z M819.061,1358.838l-2.52,8.933
			c-11.683,0-19.013-8.933-19.013-19.012s0-78.569,0-101.476h9.621v96.436C807.15,1350.591,807.379,1356.317,819.061,1358.838z"/>
		<path fill="#29ABE2" d="M970.929,1362.273l-2.52,7.33c-11.683,0-18.325-8.934-18.325-19.013c0-0.916,0-9.392,0-15.347
			c0-19.7-5.498-38.254-31.611-38.254c-11.224,0-34.13,0.458-34.13,21.531c0,16.493,0,49.708,0,49.708h-10.308v-177.067h10.308
			v98.727c18.325-1.604,14.889-42.377,72.384-42.377v9.85c-32.985,0-42.835,17.639-52.227,30.695
			c5.727-0.688,10.766-0.458,14.202-0.458c20.845,0,40.315,6.185,40.315,46.729v9.392
			C959.017,1350.591,959.246,1359.754,970.929,1362.273z"/>
		<path fill="#29ABE2" d="M1128.293,1361.357l-3.207,8.475c0,0-15.576-5.268-17.409-20.157
			c-3.665,7.101-16.492,19.929-41.689,19.929c-18.097,0-46.958-7.56-46.958-33.673c0-25.655,20.615-35.047,42.377-35.047
			c19.928,0,45.584,5.269,45.584-17.638c0-10.308-4.124-28.633-39.171-28.633c-23.364,0-31.84,5.268-41.46,9.62l-4.124-8.246
			c14.432-6.414,23.136-10.537,44.21-10.537c20.845,0,49.937,3.207,49.937,42.148v55.204
			C1116.382,1349.675,1119.817,1358.379,1128.293,1361.357z M1106.761,1305.465c-12.369,16.493-77.653-9.85-77.653,29.779
			c0,16.034,16.951,24.968,38.483,24.968c14.202,0,25.426-5.269,31.382-12.141
			C1106.99,1339.138,1106.761,1327.685,1106.761,1305.465z"/>
		<path fill="#29ABE2" d="M1352.08,1359.754l-2.52,8.017c-11.683,0-19.929-8.933-19.929-19.012s0-34.589,0-57.495
			c0-16.951-3.665-33.673-28.862-33.673c-17.409,0-27.717,8.704-30.466,13.744c-2.748,5.039-3.894,10.536-3.894,18.096V1368h-10.309
			c0-10.079,0-53.83,0-76.736c0-12.828,1.146-33.444-25.196-33.444c-21.532,0-33.673,11.683-39.171,17.409V1368h-10.766v-120.717
			h10.766v14.66c8.934-7.102,20.387-14.66,37.796-14.66c14.202,0,26.113,3.206,32.985,15.576
			c6.185-6.872,19.471-15.576,36.88-15.576c21.073,0,40.773,6.643,40.773,42.147v52.456
			C1340.169,1348.759,1340.397,1357.234,1352.08,1359.754z"/>
		<path fill="#29ABE2" d="M1413.689,1226.667c-3.665,0-6.643-3.207-6.643-6.872s2.978-6.872,6.643-6.872
			c3.895,0,6.872,3.207,6.872,6.872S1417.584,1226.667,1413.689,1226.667z M1430.183,1358.838l-2.521,8.933
			c-11.682,0-19.012-8.933-19.012-19.012s0-78.569,0-101.476h9.62v96.436C1418.271,1350.591,1418.5,1356.317,1430.183,1358.838z"/>
	</g>
</g>
<g id="_x37_x6" display="none">
	<polygon display="inline" fill="#E0E2E2" points="720,937 1132,937 792,1152.5 	"/>
	<polygon display="inline" fill="#8DD8D8" points="792,1152 1008,648 1224,1152 	"/>
	<polygon display="inline" fill="#29ABE2" points="720,936.5 1224,1152.5 792,1152.5 	"/>
</g>
<g id="_x36_x6">
	<polygon fill="#E0E2E2" points="720,900 1098,900 792,1152 	"/>
	<polygon fill="#8DD8D8" points="792,1152 1008,721 1224,1152 	"/>
	<polyline fill="#29ABE2" points="720,900 1224,1152 792,1152 	"/>
	<g>
	</g>
	<g>
	</g>
	<g>
	</g>
	<g>
	</g>
	<g>
	</g>
	<g>
	</g>
	<g>
	</g>
	<g>
	</g>
	<g>
	</g>
	<g>
	</g>
	<g>
	</g>
	<g>
	</g>
	<g>
	</g>
	<g>
	</g>
	<g>
	</g>
</g>
</svg>
