<?xml version="1.0" encoding="utf-8"?>
<!-- Generator: Adobe Illustrator 16.0.0, SVG Export Plug-In . SVG Version: 6.00 Build 0)  -->
<!DOCTYPE svg PUBLIC "-//W3C//DTD SVG 1.1//EN" "http://www.w3.org/Graphics/SVG/1.1/DTD/svg11.dtd">
<svg version="1.1" id="Layer_1" xmlns="http://www.w3.org/2000/svg" xmlns:xlink="http://www.w3.org/1999/xlink" x="0px" y="0px"
	 width="2000px" height="2000px" viewBox="0 0 2000 2000" enable-background="new 0 0 2000 2000" xml:space="preserve">
<g>
	<g>
		<g>
			<path fill="#29ABE2" d="M265.526,1491.174c-28.037,0-54.012-10.72-74.215-30.511c-19.791-19.79-30.511-46.178-30.511-74.215
				v-10.308c0-28.037,10.72-54.425,30.511-74.216c20.203-19.791,46.179-30.511,74.215-30.511h6.597
				c28.037,0,54.424,10.72,74.215,30.511c19.791,19.791,30.923,46.179,30.923,74.216v10.308c0,28.037-11.132,54.425-30.923,74.215
				c-19.791,19.791-46.179,30.511-74.215,30.511H265.526z M180.178,1376.141v10.308c0,47.003,38.345,85.348,85.348,85.348h6.597
				c47.416,0,85.76-38.345,85.76-85.348v-10.308c0-47.003-38.344-85.348-85.76-85.348h-6.597
				C218.523,1290.793,180.178,1329.138,180.178,1376.141z"/>
		</g>
		<g>
			<path fill="#29ABE2" d="M578.051,1272.651l-3.71,16.08c-47.416,0-73.391,37.932-73.391,65.557v135.649h-18.142v-217.286h18.142
				v34.222C514.556,1288.731,529.812,1272.651,578.051,1272.651z"/>
		</g>
		<g>
			<path fill="#29ABE2" d="M684.426,1235.956c-6.597,0-11.957-5.772-11.957-12.369c0-6.598,5.36-12.369,11.957-12.369
				c7.009,0,12.369,5.771,12.369,12.369C696.795,1230.184,691.435,1235.956,684.426,1235.956z M714.112,1473.857l-4.535,16.08
				c-21.028,0-34.222-16.08-34.222-34.222s0-141.422,0-182.652h17.317v173.581C692.672,1459.015,693.084,1469.322,714.112,1473.857z
				"/>
		</g>
		<g>
			<path fill="#29ABE2" d="M987.059,1480.042l-4.536,13.193c-21.027,0-32.984-16.08-32.984-34.221c0-1.649,0-16.905,0-27.625
				c0-35.459-9.896-68.855-56.898-68.855c-20.203,0-61.434,0.824-61.434,38.757c0,29.687,0,89.471,0,89.471h-18.554v-318.714h18.554
				v177.705c32.984-2.887,26.8-76.277,130.289-76.277v17.729c-59.373,0-77.102,31.748-94.006,55.249
				c10.308-1.236,19.378-0.824,25.563-0.824c37.52,0,72.566,11.132,72.566,84.11v16.904
				C965.619,1459.015,966.031,1475.507,987.059,1480.042z"/>
		</g>
		<g>
			<path fill="#29ABE2" d="M1270.309,1478.393l-5.771,15.256c0,0-28.037-9.483-31.336-36.283
				c-6.598,12.781-29.686,35.87-75.039,35.87c-32.572,0-84.523-13.605-84.523-60.608c0-46.179,37.107-63.084,76.277-63.084
				c35.869,0,82.049,9.483,82.049-31.747c0-18.554-7.422-51.539-70.506-51.539c-42.055,0-57.311,9.483-74.627,17.317l-7.422-14.843
				c25.977-11.545,41.643-18.967,79.576-18.967c37.52,0,89.883,5.772,89.883,75.865v99.366
				C1248.869,1457.365,1255.053,1473.032,1270.309,1478.393z M1231.553,1377.79c-22.266,29.686-139.773-17.729-139.773,53.6
				c0,28.861,30.512,44.941,69.268,44.941c25.564,0,45.768-9.483,56.486-21.853
				C1231.965,1438.398,1231.553,1417.783,1231.553,1377.79z"/>
		</g>
		<g>
			<path fill="#29ABE2" d="M1673.127,1475.507l-4.535,14.431c-21.027,0-35.871-16.08-35.871-34.222s0-62.259,0-103.489
				c0-30.511-6.596-60.609-51.951-60.609c-31.334,0-49.889,15.668-54.836,24.738c-4.947,9.071-7.01,18.967-7.01,32.572v141.422
				h-18.553c0-18.142,0-96.893,0-138.123c0-23.089,2.061-60.197-45.355-60.197c-38.756,0-60.607,21.028-70.504,31.336v166.984
				h-19.379v-217.286h19.379v26.388c16.08-12.781,36.695-26.388,68.031-26.388c25.562,0,47.002,5.772,59.371,28.037
				c11.133-12.369,35.047-28.037,66.383-28.037c37.932,0,73.391,11.957,73.391,75.864v94.419
				C1651.688,1455.716,1652.1,1470.971,1673.127,1475.507z"/>
		</g>
		<g>
			<path fill="#29ABE2" d="M1784.031,1235.956c-6.598,0-11.957-5.772-11.957-12.369c0-6.598,5.359-12.369,11.957-12.369
				c7.01,0,12.369,5.771,12.369,12.369C1796.4,1230.184,1791.041,1235.956,1784.031,1235.956z M1813.717,1473.857l-4.535,16.08
				c-21.027,0-34.221-16.08-34.221-34.222s0-141.422,0-182.652h17.316v173.581
				C1792.277,1459.015,1792.689,1469.322,1813.717,1473.857z"/>
		</g>
	</g>
</g>
<g>
	<polygon fill="#E0E2E2" points="536.214,647.949 1216.614,647.949 665.813,1101.549 	"/>
</g>
<g>
	<polygon fill="#8DD8D8" points="665.813,1101.549 1054.614,325.749 1443.414,1101.549 	"/>
</g>
<g>
	<polyline fill="#29ABE2" points="536.214,647.949 1443.414,1101.549 665.813,1101.549 	"/>
</g>
<g>
	<g>
		<g>
			<path fill="#8DD8D8" d="M817.051,1611.162l-1.944,4.104c-2.376,0-6.48-4.752-7.236-8.641
				c-12.528,16.417-46.117,9.721-46.117-14.04v-7.128c0-22.248,16.308-25.812,26.244-25.812c8.208,0,16.632,5.076,19.548,10.044
				v-37.8h5.184v68.148C812.731,1606.41,814.135,1608.57,817.051,1611.162z M807.439,1584.486c0-10.584-8.64-19.116-19.224-19.116
				h-2.16c-10.584,0-19.116,8.532-19.116,19.116v6.804c0,10.584,8.532,19.225,19.116,19.225h2.16
				c10.584,0,19.224-8.641,19.224-19.225V1584.486z"/>
			<path fill="none" stroke="#8DD8D8" stroke-miterlimit="10" d="M817.051,1611.162l-1.944,4.104c-2.376,0-6.48-4.752-7.236-8.641
				c-12.528,16.417-46.117,9.721-46.117-14.04v-7.128c0-22.248,16.308-25.812,26.244-25.812c8.208,0,16.632,5.076,19.548,10.044
				v-37.8h5.184v68.148C812.731,1606.41,814.135,1608.57,817.051,1611.162z M807.439,1584.486c0-10.584-8.64-19.116-19.224-19.116
				h-2.16c-10.584,0-19.116,8.532-19.116,19.116v6.804c0,10.584,8.532,19.225,19.116,19.225h2.16
				c10.584,0,19.224-8.641,19.224-19.225V1584.486z"/>
		</g>
		<g>
			<path fill="#8DD8D8" d="M875.047,1612.135l-1.512,3.996c0,0-7.344-2.484-8.208-9.505c-1.728,3.349-7.776,9.396-19.656,9.396
				c-8.532,0-22.141-3.563-22.141-15.876c0-12.097,9.72-16.524,19.98-16.524c9.396,0,21.492,2.484,21.492-8.316
				c0-4.859-1.944-13.5-18.468-13.5c-11.016,0-15.012,2.484-19.548,4.536l-1.944-3.888c6.804-3.024,10.908-4.969,20.844-4.969
				c9.828,0,23.544,1.513,23.544,19.873v26.028C869.431,1606.626,871.051,1610.73,875.047,1612.135z M864.895,1585.782
				c-5.832,7.776-36.612-4.645-36.612,14.04c0,7.561,7.992,11.772,18.144,11.772c6.696,0,11.988-2.484,14.796-5.725
				C865.002,1601.658,864.895,1596.259,864.895,1585.782z"/>
			<path fill="none" stroke="#8DD8D8" stroke-miterlimit="10" d="M875.047,1612.135l-1.512,3.996c0,0-7.344-2.484-8.208-9.505
				c-1.728,3.349-7.776,9.396-19.656,9.396c-8.532,0-22.141-3.563-22.141-15.876c0-12.097,9.72-16.524,19.98-16.524
				c9.396,0,21.492,2.484,21.492-8.316c0-4.859-1.944-13.5-18.468-13.5c-11.016,0-15.012,2.484-19.548,4.536l-1.944-3.888
				c6.804-3.024,10.908-4.969,20.844-4.969c9.828,0,23.544,1.513,23.544,19.873v26.028
				C869.431,1606.626,871.051,1610.73,875.047,1612.135z M864.895,1585.782c-5.832,7.776-36.612-4.645-36.612,14.04
				c0,7.561,7.992,11.772,18.144,11.772c6.696,0,11.988-2.484,14.796-5.725C865.002,1601.658,864.895,1596.259,864.895,1585.782z"/>
		</g>
		<g>
			<path fill="#8DD8D8" d="M907.445,1610.839l-1.188,4.319c-11.016,1.08-19.008-4.752-19.008-17.82c0-3.023,0-19.764,0-34.128
				h-11.664l0.648-4.86h11.016c0-5.94,0-11.124,0-14.148l5.076-0.972v15.12h12.852l-0.756,4.86h-12.096v31.969
				C892.325,1611.595,902.693,1610.839,907.445,1610.839z"/>
			<path fill="none" stroke="#8DD8D8" stroke-miterlimit="10" d="M907.445,1610.839l-1.188,4.319
				c-11.016,1.08-19.008-4.752-19.008-17.82c0-3.023,0-19.764,0-34.128h-11.664l0.648-4.86h11.016c0-5.94,0-11.124,0-14.148
				l5.076-0.972v15.12h12.852l-0.756,4.86h-12.096v31.969C892.325,1611.595,902.693,1610.839,907.445,1610.839z"/>
		</g>
		<g>
			<path fill="#8DD8D8" d="M965.117,1612.135l-1.512,3.996c0,0-7.344-2.484-8.208-9.505c-1.728,3.349-7.776,9.396-19.656,9.396
				c-8.532,0-22.141-3.563-22.141-15.876c0-12.097,9.72-16.524,19.98-16.524c9.396,0,21.492,2.484,21.492-8.316
				c0-4.859-1.943-13.5-18.468-13.5c-11.017,0-15.013,2.484-19.549,4.536l-1.944-3.888c6.804-3.024,10.908-4.969,20.844-4.969
				c9.828,0,23.545,1.513,23.545,19.873v26.028C959.501,1606.626,961.122,1610.73,965.117,1612.135z M954.965,1585.782
				c-5.832,7.776-36.613-4.645-36.613,14.04c0,7.561,7.992,11.772,18.144,11.772c6.696,0,11.988-2.484,14.796-5.725
				C955.073,1601.658,954.965,1596.259,954.965,1585.782z"/>
			<path fill="none" stroke="#8DD8D8" stroke-miterlimit="10" d="M965.117,1612.135l-1.512,3.996c0,0-7.344-2.484-8.208-9.505
				c-1.728,3.349-7.776,9.396-19.656,9.396c-8.532,0-22.141-3.563-22.141-15.876c0-12.097,9.72-16.524,19.98-16.524
				c9.396,0,21.492,2.484,21.492-8.316c0-4.859-1.943-13.5-18.468-13.5c-11.017,0-15.013,2.484-19.549,4.536l-1.944-3.888
				c6.804-3.024,10.908-4.969,20.844-4.969c9.828,0,23.545,1.513,23.545,19.873v26.028
				C959.501,1606.626,961.122,1610.73,965.117,1612.135z M954.965,1585.782c-5.832,7.776-36.613-4.645-36.613,14.04
				c0,7.561,7.992,11.772,18.144,11.772c6.696,0,11.988-2.484,14.796-5.725C955.073,1601.658,954.965,1596.259,954.965,1585.782z"/>
		</g>
		<g>
			<path fill="#8DD8D8" d="M1048.059,1599.931c0-10.368-12.744-11.557-17.172-11.557c-18.9,0-23.436-6.912-23.436-13.932
				c0-15.769,14.146-16.957,23.76-16.957c9.828,0,11.881,1.513,18.469,4.86l-2.484,4.104c-3.564-2.16-6.156-4.429-16.633-4.429
				c-15.553,0-18.359,6.912-18.359,11.772c0,9.828,12.852,9.937,20.736,9.937c10.26,0,19.98,4.428,19.98,16.523
				c0,12.312-13.717,15.877-22.25,15.877c-15.012,0-20.303-4.86-24.84-10.152l2.809-4.536c1.295,1.944,7.02,10.26,21.275,10.26
				C1040.176,1611.702,1048.059,1607.49,1048.059,1599.931z"/>
			<path fill="none" stroke="#8DD8D8" stroke-miterlimit="10" d="M1048.059,1599.931c0-10.368-12.744-11.557-17.172-11.557
				c-18.9,0-23.436-6.912-23.436-13.932c0-15.769,14.146-16.957,23.76-16.957c9.828,0,11.881,1.513,18.469,4.86l-2.484,4.104
				c-3.564-2.16-6.156-4.429-16.633-4.429c-15.553,0-18.359,6.912-18.359,11.772c0,9.828,12.852,9.937,20.736,9.937
				c10.26,0,19.98,4.428,19.98,16.523c0,12.312-13.717,15.877-22.25,15.877c-15.012,0-20.303-4.86-24.84-10.152l2.809-4.536
				c1.295,1.944,7.02,10.26,21.275,10.26C1040.176,1611.702,1048.059,1607.49,1048.059,1599.931z"/>
		</g>
		<g>
			<path fill="#8DD8D8" d="M1114.369,1599.391c-1.295,3.023-3.24,5.832-5.615,8.208c-5.293,5.292-12.312,8.208-19.766,8.208h-1.727
				c-7.453,0-14.473-2.916-19.656-8.208c-5.293-5.292-8.209-12.312-8.209-19.765v-2.7c0-7.452,2.916-14.472,8.209-19.764
				c5.184-5.292,12.203-8.101,19.656-8.101h1.727c7.453,0,14.473,2.809,19.766,8.101c2.699,2.7,4.752,5.832,6.156,9.288
				l-5.076,1.403c-3.457-7.991-11.557-13.716-20.846-13.716h-1.727c-12.529,0-22.789,10.477-22.789,23.005v2.268
				c0,12.528,10.26,23.004,22.789,23.004h1.727c8.857,0,16.633-5.184,20.305-12.744L1114.369,1599.391z"/>
			<path fill="none" stroke="#8DD8D8" stroke-miterlimit="10" d="M1114.369,1599.391c-1.295,3.023-3.24,5.832-5.615,8.208
				c-5.293,5.292-12.312,8.208-19.766,8.208h-1.727c-7.453,0-14.473-2.916-19.656-8.208c-5.293-5.292-8.209-12.312-8.209-19.765
				v-2.7c0-7.452,2.916-14.472,8.209-19.764c5.184-5.292,12.203-8.101,19.656-8.101h1.727c7.453,0,14.473,2.809,19.766,8.101
				c2.699,2.7,4.752,5.832,6.156,9.288l-5.076,1.403c-3.457-7.991-11.557-13.716-20.846-13.716h-1.727
				c-12.529,0-22.789,10.477-22.789,23.005v2.268c0,12.528,10.26,23.004,22.789,23.004h1.727c8.857,0,16.633-5.184,20.305-12.744
				L1114.369,1599.391z"/>
		</g>
		<g>
			<path fill="#8DD8D8" d="M1127.76,1548.63c-1.729,0-3.131-1.513-3.131-3.24c0-1.729,1.402-3.24,3.131-3.24
				c1.836,0,3.24,1.512,3.24,3.24C1131,1547.117,1129.596,1548.63,1127.76,1548.63z M1135.537,1610.946l-1.189,4.212
				c-5.508,0-8.963-4.212-8.963-8.964s0-37.045,0-47.845h4.535v45.469C1129.92,1607.059,1130.027,1609.759,1135.537,1610.946z"/>
			<path fill="none" stroke="#8DD8D8" stroke-miterlimit="10" d="M1127.76,1548.63c-1.729,0-3.131-1.513-3.131-3.24
				c0-1.729,1.402-3.24,3.131-3.24c1.836,0,3.24,1.512,3.24,3.24C1131,1547.117,1129.596,1548.63,1127.76,1548.63z
				 M1135.537,1610.946l-1.189,4.212c-5.508,0-8.963-4.212-8.963-8.964s0-37.045,0-47.845h4.535v45.469
				C1129.92,1607.059,1130.027,1609.759,1135.537,1610.946z"/>
		</g>
		<g>
			<path fill="#8DD8D8" d="M1169.773,1615.807c-9.83,0-25.598-0.972-25.598-21.061c0-12.852,0-5.399,0-13.392
				c0-17.064,11.125-23.005,25.598-23.005c8.531,0,20.844,4.212,20.844,16.524c0,10.692-8.209,14.796-18.361,14.796
				c-9.504,0-23.004-2.592-23.004,8.208c0,4.86,3.348,13.608,19.873,13.608c11.016,0,17.82-7.236,17.82-12.96l4.32-0.648
				C1191.266,1609.326,1179.709,1615.807,1169.773,1615.807z M1185.865,1575.306c0-7.56-6.48-11.771-16.633-11.771
				c-19.225,0-20.52,14.147-20.088,24.948C1154.221,1580.058,1185.865,1592.694,1185.865,1575.306z"/>
			<path fill="none" stroke="#8DD8D8" stroke-miterlimit="10" d="M1169.773,1615.807c-9.83,0-25.598-0.972-25.598-21.061
				c0-12.852,0-5.399,0-13.392c0-17.064,11.125-23.005,25.598-23.005c8.531,0,20.844,4.212,20.844,16.524
				c0,10.692-8.209,14.796-18.361,14.796c-9.504,0-23.004-2.592-23.004,8.208c0,4.86,3.348,13.608,19.873,13.608
				c11.016,0,17.82-7.236,17.82-12.96l4.32-0.648C1191.266,1609.326,1179.709,1615.807,1169.773,1615.807z M1185.865,1575.306
				c0-7.56-6.48-11.771-16.633-11.771c-19.225,0-20.52,14.147-20.088,24.948C1154.221,1580.058,1185.865,1592.694,1185.865,1575.306
				z"/>
		</g>
		<g>
			<path fill="#8DD8D8" d="M1253.363,1611.811l-1.188,3.456c-5.508,0-9.18-4.212-9.18-8.964s0-16.309,0-27.108
				c0-4.86,0.646-15.984-18.145-15.984c-10.152,0-16.201,5.616-18.9,8.316v43.849h-4.969v-56.917h4.969v6.912
				c4.32-3.349,10.043-6.912,18.252-6.912c9.828,0,23.545,1.512,23.545,19.872v24.732
				C1247.748,1606.303,1247.855,1610.622,1253.363,1611.811z"/>
			<path fill="none" stroke="#8DD8D8" stroke-miterlimit="10" d="M1253.363,1611.811l-1.188,3.456c-5.508,0-9.18-4.212-9.18-8.964
				s0-16.309,0-27.108c0-4.86,0.646-15.984-18.145-15.984c-10.152,0-16.201,5.616-18.9,8.316v43.849h-4.969v-56.917h4.969v6.912
				c4.32-3.349,10.043-6.912,18.252-6.912c9.828,0,23.545,1.512,23.545,19.872v24.732
				C1247.748,1606.303,1247.855,1610.622,1253.363,1611.811z"/>
		</g>
		<g>
			<path fill="#8DD8D8" d="M1314.814,1599.391c-1.295,3.023-3.24,5.832-5.615,8.208c-5.293,5.292-12.312,8.208-19.766,8.208h-1.727
				c-7.453,0-14.473-2.916-19.656-8.208c-5.293-5.292-8.209-12.312-8.209-19.765v-2.7c0-7.452,2.916-14.472,8.209-19.764
				c5.184-5.292,12.203-8.101,19.656-8.101h1.727c7.453,0,14.473,2.809,19.766,8.101c2.699,2.7,4.752,5.832,6.156,9.288
				l-5.076,1.403c-3.457-7.991-11.557-13.716-20.846-13.716h-1.727c-12.529,0-22.789,10.477-22.789,23.005v2.268
				c0,12.528,10.26,23.004,22.789,23.004h1.727c8.857,0,16.633-5.184,20.305-12.744L1314.814,1599.391z"/>
			<path fill="none" stroke="#8DD8D8" stroke-miterlimit="10" d="M1314.814,1599.391c-1.295,3.023-3.24,5.832-5.615,8.208
				c-5.293,5.292-12.312,8.208-19.766,8.208h-1.727c-7.453,0-14.473-2.916-19.656-8.208c-5.293-5.292-8.209-12.312-8.209-19.765
				v-2.7c0-7.452,2.916-14.472,8.209-19.764c5.184-5.292,12.203-8.101,19.656-8.101h1.727c7.453,0,14.473,2.809,19.766,8.101
				c2.699,2.7,4.752,5.832,6.156,9.288l-5.076,1.403c-3.457-7.991-11.557-13.716-20.846-13.716h-1.727
				c-12.529,0-22.789,10.477-22.789,23.005v2.268c0,12.528,10.26,23.004,22.789,23.004h1.727c8.857,0,16.633-5.184,20.305-12.744
				L1314.814,1599.391z"/>
		</g>
		<g>
			<path fill="#8DD8D8" d="M1347.43,1615.807c-9.83,0-25.598-0.972-25.598-21.061c0-12.852,0-5.399,0-13.392
				c0-17.064,11.125-23.005,25.598-23.005c8.531,0,20.844,4.212,20.844,16.524c0,10.692-8.209,14.796-18.361,14.796
				c-9.504,0-23.004-2.592-23.004,8.208c0,4.86,3.348,13.608,19.873,13.608c11.016,0,17.82-7.236,17.82-12.96l4.32-0.648
				C1368.922,1609.326,1357.365,1615.807,1347.43,1615.807z M1363.521,1575.306c0-7.56-6.48-11.771-16.633-11.771
				c-19.225,0-20.52,14.147-20.088,24.948C1331.877,1580.058,1363.521,1592.694,1363.521,1575.306z"/>
			<path fill="none" stroke="#8DD8D8" stroke-miterlimit="10" d="M1347.43,1615.807c-9.83,0-25.598-0.972-25.598-21.061
				c0-12.852,0-5.399,0-13.392c0-17.064,11.125-23.005,25.598-23.005c8.531,0,20.844,4.212,20.844,16.524
				c0,10.692-8.209,14.796-18.361,14.796c-9.504,0-23.004-2.592-23.004,8.208c0,4.86,3.348,13.608,19.873,13.608
				c11.016,0,17.82-7.236,17.82-12.96l4.32-0.648C1368.922,1609.326,1357.365,1615.807,1347.43,1615.807z M1363.521,1575.306
				c0-7.56-6.48-11.771-16.633-11.771c-19.225,0-20.52,14.147-20.088,24.948C1331.877,1580.058,1363.521,1592.694,1363.521,1575.306
				z"/>
		</g>
		<g>
			<path fill="#8DD8D8" d="M1462.557,1585.134v7.129c0,29.268-50.762,32.724-50.762-1.188v-59.509h4.969v37.801
				c3.023-4.969,11.447-9.937,19.656-9.937C1446.248,1559.43,1462.557,1562.886,1462.557,1585.134z M1457.48,1584.162
				c0-10.584-8.641-19.116-19.225-19.116h-2.16c-10.584,0-19.225,8.532-19.225,19.116v6.804c0,10.585,8.641,19.225,19.225,19.225
				h2.16c10.584,0,19.225-8.64,19.225-19.225V1584.162z"/>
			<path fill="none" stroke="#8DD8D8" stroke-miterlimit="10" d="M1462.557,1585.134v7.129c0,29.268-50.762,32.724-50.762-1.188
				v-59.509h4.969v37.801c3.023-4.969,11.447-9.937,19.656-9.937C1446.248,1559.43,1462.557,1562.886,1462.557,1585.134z
				 M1457.48,1584.162c0-10.584-8.641-19.116-19.225-19.116h-2.16c-10.584,0-19.225,8.532-19.225,19.116v6.804
				c0,10.585,8.641,19.225,19.225,19.225h2.16c10.584,0,19.225-8.64,19.225-19.225V1584.162z"/>
		</g>
		<g>
			<path fill="#8DD8D8" d="M1497.006,1615.482c-7.346,0-14.148-2.808-19.441-7.992c-5.184-5.184-7.992-12.096-7.992-19.44v-2.699
				c0-7.345,2.809-14.257,7.992-19.44c5.293-5.185,12.096-7.992,19.441-7.992h1.727c7.346,0,14.258,2.808,19.441,7.992
				c5.184,5.184,8.1,12.096,8.1,19.44v2.699c0,7.345-2.916,14.257-8.1,19.44c-5.184,5.185-12.096,7.992-19.441,7.992H1497.006z
				 M1474.648,1585.351v2.699c0,12.312,10.045,22.356,22.357,22.356h1.727c12.42,0,22.465-10.044,22.465-22.356v-2.699
				c0-12.312-10.045-22.356-22.465-22.356h-1.727C1484.693,1562.994,1474.648,1573.038,1474.648,1585.351z"/>
			<path fill="none" stroke="#8DD8D8" stroke-miterlimit="10" d="M1497.006,1615.482c-7.346,0-14.148-2.808-19.441-7.992
				c-5.184-5.184-7.992-12.096-7.992-19.44v-2.699c0-7.345,2.809-14.257,7.992-19.44c5.293-5.185,12.096-7.992,19.441-7.992h1.727
				c7.346,0,14.258,2.808,19.441,7.992c5.184,5.184,8.1,12.096,8.1,19.44v2.699c0,7.345-2.916,14.257-8.1,19.44
				c-5.184,5.185-12.096,7.992-19.441,7.992H1497.006z M1474.648,1585.351v2.699c0,12.312,10.045,22.356,22.357,22.356h1.727
				c12.42,0,22.465-10.044,22.465-22.356v-2.699c0-12.312-10.045-22.356-22.465-22.356h-1.727
				C1484.693,1562.994,1474.648,1573.038,1474.648,1585.351z"/>
		</g>
		<g>
			<path fill="#8DD8D8" d="M1587.076,1611.271l-1.727,4.104c-2.377,0-6.049-4.32-6.588-8.425
				c-4.752,6.588-13.717,8.208-20.197,8.208c-9.828,0-24.191-0.972-24.191-21.06v-35.857h5.076c0,0,0,25.489,0,36.073
				c0,7.344,2.916,15.552,19.223,15.552c16.201,0,19.117-9.828,19.117-17.172c0-10.584,0-34.453,0-34.453h5.076v41.797
				C1582.865,1606.519,1584.16,1608.679,1587.076,1611.271z"/>
			<path fill="none" stroke="#8DD8D8" stroke-miterlimit="10" d="M1587.076,1611.271l-1.727,4.104c-2.377,0-6.049-4.32-6.588-8.425
				c-4.752,6.588-13.717,8.208-20.197,8.208c-9.828,0-24.191-0.972-24.191-21.06v-35.857h5.076c0,0,0,25.489,0,36.073
				c0,7.344,2.916,15.552,19.223,15.552c16.201,0,19.117-9.828,19.117-17.172c0-10.584,0-34.453,0-34.453h5.076v41.797
				C1582.865,1606.519,1584.16,1608.679,1587.076,1611.271z"/>
		</g>
		<g>
			<path fill="#8DD8D8" d="M1622.176,1610.839l-1.188,4.319c-11.018,1.08-19.01-4.752-19.01-17.82c0-3.023,0-19.764,0-34.128
				h-11.664l0.648-4.86h11.016c0-5.94,0-11.124,0-14.148l5.076-0.972v15.12h12.854l-0.756,4.86h-12.098v31.969
				C1607.055,1611.595,1617.424,1610.839,1622.176,1610.839z"/>
			<path fill="none" stroke="#8DD8D8" stroke-miterlimit="10" d="M1622.176,1610.839l-1.188,4.319
				c-11.018,1.08-19.01-4.752-19.01-17.82c0-3.023,0-19.764,0-34.128h-11.664l0.648-4.86h11.016c0-5.94,0-11.124,0-14.148
				l5.076-0.972v15.12h12.854l-0.756,4.86h-12.098v31.969C1607.055,1611.595,1617.424,1610.839,1622.176,1610.839z"/>
		</g>
		<g>
			<path fill="#8DD8D8" d="M1634.055,1548.63c-1.729,0-3.133-1.513-3.133-3.24c0-1.729,1.404-3.24,3.133-3.24
				c1.836,0,3.24,1.512,3.24,3.24C1637.295,1547.117,1635.891,1548.63,1634.055,1548.63z M1641.83,1610.946l-1.188,4.212
				c-5.508,0-8.965-4.212-8.965-8.964s0-37.045,0-47.845h4.537v45.469C1636.215,1607.059,1636.322,1609.759,1641.83,1610.946z"/>
			<path fill="none" stroke="#8DD8D8" stroke-miterlimit="10" d="M1634.055,1548.63c-1.729,0-3.133-1.513-3.133-3.24
				c0-1.729,1.404-3.24,3.133-3.24c1.836,0,3.24,1.512,3.24,3.24C1637.295,1547.117,1635.891,1548.63,1634.055,1548.63z
				 M1641.83,1610.946l-1.188,4.212c-5.508,0-8.965-4.212-8.965-8.964s0-37.045,0-47.845h4.537v45.469
				C1636.215,1607.059,1636.322,1609.759,1641.83,1610.946z"/>
		</g>
		<g>
			<path fill="#8DD8D8" d="M1698.965,1639.783h-4.859v-34.236c-2.916,4.968-11.342,10.044-19.549,10.044
				c-9.936,0-27-3.564-27-25.812v-7.128c0-26.785,38.232-30.457,46.871-14.04v-10.261h4.537V1639.783z M1693.996,1583.082
				c0-10.584-8.639-19.225-19.225-19.225h-2.16c-10.584,0-19.871,8.641-19.871,19.225v7.561c0,10.584,9.287,19.224,19.871,19.224
				h2.16c10.586,0,19.225-8.64,19.225-19.224V1583.082z"/>
			<path fill="none" stroke="#8DD8D8" stroke-miterlimit="10" d="M1698.965,1639.783h-4.859v-34.236
				c-2.916,4.968-11.342,10.044-19.549,10.044c-9.936,0-27-3.564-27-25.812v-7.128c0-26.785,38.232-30.457,46.871-14.04v-10.261
				h4.537V1639.783z M1693.996,1583.082c0-10.584-8.639-19.225-19.225-19.225h-2.16c-10.584,0-19.871,8.641-19.871,19.225v7.561
				c0,10.584,9.287,19.224,19.871,19.224h2.16c10.586,0,19.225-8.64,19.225-19.224V1583.082z"/>
		</g>
		<g>
			<path fill="#8DD8D8" d="M1764.627,1611.271l-1.729,4.104c-2.375,0-6.047-4.32-6.588-8.425
				c-4.752,6.588-13.717,8.208-20.195,8.208c-9.828,0-24.193-0.972-24.193-21.06v-35.857h5.076c0,0,0,25.489,0,36.073
				c0,7.344,2.916,15.552,19.225,15.552c16.199,0,19.115-9.828,19.115-17.172c0-10.584,0-34.453,0-34.453h5.076v41.797
				C1760.414,1606.519,1761.711,1608.679,1764.627,1611.271z"/>
			<path fill="none" stroke="#8DD8D8" stroke-miterlimit="10" d="M1764.627,1611.271l-1.729,4.104c-2.375,0-6.047-4.32-6.588-8.425
				c-4.752,6.588-13.717,8.208-20.195,8.208c-9.828,0-24.193-0.972-24.193-21.06v-35.857h5.076c0,0,0,25.489,0,36.073
				c0,7.344,2.916,15.552,19.225,15.552c16.199,0,19.115-9.828,19.115-17.172c0-10.584,0-34.453,0-34.453h5.076v41.797
				C1760.414,1606.519,1761.711,1608.679,1764.627,1611.271z"/>
		</g>
		<g>
			<path fill="#8DD8D8" d="M1796.701,1615.807c-9.828,0-25.596-0.972-25.596-21.061c0-12.852,0-5.399,0-13.392
				c0-17.064,11.123-23.005,25.596-23.005c8.531,0,20.844,4.212,20.844,16.524c0,10.692-8.207,14.796-18.359,14.796
				c-9.504,0-23.004-2.592-23.004,8.208c0,4.86,3.348,13.608,19.871,13.608c11.018,0,17.82-7.236,17.82-12.96l4.32-0.648
				C1818.193,1609.326,1806.637,1615.807,1796.701,1615.807z M1812.793,1575.306c0-7.56-6.48-11.771-16.631-11.771
				c-19.225,0-20.521,14.147-20.09,24.948C1781.148,1580.058,1812.793,1592.694,1812.793,1575.306z"/>
			<path fill="none" stroke="#8DD8D8" stroke-miterlimit="10" d="M1796.701,1615.807c-9.828,0-25.596-0.972-25.596-21.061
				c0-12.852,0-5.399,0-13.392c0-17.064,11.123-23.005,25.596-23.005c8.531,0,20.844,4.212,20.844,16.524
				c0,10.692-8.207,14.796-18.359,14.796c-9.504,0-23.004-2.592-23.004,8.208c0,4.86,3.348,13.608,19.871,13.608
				c11.018,0,17.82-7.236,17.82-12.96l4.32-0.648C1818.193,1609.326,1806.637,1615.807,1796.701,1615.807z M1812.793,1575.306
				c0-7.56-6.48-11.771-16.631-11.771c-19.225,0-20.521,14.147-20.09,24.948C1781.148,1580.058,1812.793,1592.694,1812.793,1575.306
				z"/>
		</g>
	</g>
</g>
</svg>
