<?xml version="1.0" encoding="UTF-8" standalone="no"?>
<!-- Created with Inkscape (http://www.inkscape.org/) -->

<svg
   xmlns:dc="http://purl.org/dc/elements/1.1/"
   xmlns:cc="http://creativecommons.org/ns#"
   xmlns:rdf="http://www.w3.org/1999/02/22-rdf-syntax-ns#"
   xmlns:svg="http://www.w3.org/2000/svg"
   xmlns="http://www.w3.org/2000/svg"
   xmlns:xlink="http://www.w3.org/1999/xlink"
   xmlns:sodipodi="http://sodipodi.sourceforge.net/DTD/sodipodi-0.dtd"
   xmlns:inkscape="http://www.inkscape.org/namespaces/inkscape"
   viewBox="0 0 800 160"
   id="svg2"
   version="1.1"
   inkscape:version="0.48.4 r9939"
   sodipodi:docname="pred.svg"
   xml:space="preserve">
  <defs
     id="defs4">
    <linearGradient
       id="linearGradient3835">
      <stop
         style="stop-color:#000000;stop-opacity:0;"
         offset="0"
         id="stop3837" />
      <stop
         style="stop-color:#000000;stop-opacity:0;"
         offset="1"
         id="stop3839" />
    </linearGradient>
    <linearGradient
       id="linearGradient4675">
      <stop
         style="stop-color:#000000;stop-opacity:1;"
         offset="0"
         id="stop4677" />
      <stop
         style="stop-color:#ffffff;stop-opacity:1;"
         offset="1"
         id="stop4679" />
    </linearGradient>
    <radialGradient
       inkscape:collect="always"
       xlink:href="#linearGradient3835"
       id="radialGradient3841"
       cx="71.986524"
       cy="962.29087"
       fx="71.986524"
       fy="962.29087"
       r="52.602416"
       gradientTransform="matrix(0.92342075,0,0,0.92342075,3.0472303,79.138202)"
       gradientUnits="userSpaceOnUse" />
  </defs>
  <sodipodi:namedview
     id="base"
     pagecolor="#ffffff"
     bordercolor="#666666"
     borderopacity="1.0"
     inkscape:pageopacity="0.0"
     inkscape:pageshadow="2"
     inkscape:zoom="1.2412327"
     inkscape:cx="335.61124"
     inkscape:cy="99.65592"
     inkscape:document-units="px"
     inkscape:current-layer="layer1"
     showgrid="false"
     borderlayer="true"
     inkscape:showpageshadow="false"
     inkscape:window-width="1920"
     inkscape:window-height="1058"
     inkscape:window-x="1912"
     inkscape:window-y="-8"
     inkscape:window-maximized="1">
    <inkscape:grid
       type="xygrid"
       id="grid2985"
       empspacing="5"
       visible="true"
       enabled="true"
       snapvisiblegridlinesonly="true"
       spacingx="20px"
       spacingy="20px" />
  </sodipodi:namedview>
  <metadata
     id="metadata7">
    <rdf:RDF>
      <cc:Work
         rdf:about="">
        <dc:format>image/svg+xml</dc:format>
        <dc:type
           rdf:resource="http://purl.org/dc/dcmitype/StillImage" />
        <dc:title></dc:title>
      </cc:Work>
    </rdf:RDF>
  </metadata>
  <g
     inkscape:label="Layer 1"
     inkscape:groupmode="layer"
     id="layer1"
     transform="translate(0,-892.36218)">
    <rect
       style="fill:#98c8db;fill-opacity:1;fill-rule:nonzero;stroke:none"
       id="rect3049"
       width="800"
       height="160"
       x="0"
       y="892.36218"
       ry="8.7223263" />
    <path
       style="fill:none;stroke:#000000;stroke-width:3.69368291;stroke-linecap:round;stroke-linejoin:round;stroke-miterlimit:4;stroke-opacity:1;stroke-dasharray:none"
       d="m 43.45923,1007.7339 -13.030924,19.2102 c 27.193903,6.5825 51.521136,5.7444 78.185544,0 l -13.030923,-19.2102"
       id="path3833"
       inkscape:connector-curvature="0" />
    <path
       style="fill:url(#radialGradient3841);fill-opacity:1;stroke:#000000;stroke-width:3.69368291;stroke-linecap:round;stroke-linejoin:round;stroke-miterlimit:4;stroke-opacity:1;stroke-dasharray:none"
       d="m 116.2484,967.73778 c 0,25.80679 -20.92054,46.72732 -46.727322,46.72732 -25.806786,0 -46.727318,-20.92053 -46.727318,-46.72732 0,-25.80679 20.920532,-46.72732 46.727318,-46.72732 25.806782,0 46.727322,20.92053 46.727322,46.72732 z"
       id="path4664"
       inkscape:connector-curvature="0" />
    <path
       style="fill:none;stroke:#000000;stroke-width:4;stroke-linecap:round;stroke-linejoin:round;stroke-miterlimit:4;stroke-opacity:1;stroke-dasharray:none"
       d="m 70.351632,975.41191 c -18.945837,-23.91452 42.262248,-10.3186 12.753039,15.3984 -18.257543,15.91129 -44.422842,-5.81029 -40.494758,-23.19982 8.172753,-36.18066 45.598582,-30.24571 58.859367,-4.83816 25.04052,47.97747 65.87669,33.79248 108.61099,2.45607 42.72037,-31.3262 81.65177,14.92979 114.16821,34.58876 53.84748,32.55544 91.62205,-40.73786 123.49416,-2.03143 20.00584,18.75597 64.5752,-13.71546 81.60102,4.49057 28.5324,30.5101 65.71379,26.2982 88.13942,13.4419 20.08662,-11.5152 44.2553,-40.6819 56.23268,-58.48441 51.47968,-76.51661 -26.88099,-34.13849 -31.69212,8.20534 -4.13079,36.35597 39.24664,2.50945 57.73234,1.78412 32.46021,-1.27365 -14.80254,30.5821 -6.17535,48.67135 7.39873,15.5134 54.1145,-9.644 82.08941,-15.4153"
       id="path3817"
       inkscape:connector-curvature="0"
       sodipodi:nodetypes="sssssscsssccss" />
  </g>
</svg>
