<?xml version="1.0" encoding="UTF-8" standalone="no"?>
<!-- Generator: Adobe Illustrator 17.0.0, SVG Export Plug-In . SVG Version: 6.00 Build 0)  -->

<svg
   xmlns:dc="http://purl.org/dc/elements/1.1/"
   xmlns:cc="http://creativecommons.org/ns#"
   xmlns:rdf="http://www.w3.org/1999/02/22-rdf-syntax-ns#"
   xmlns:svg="http://www.w3.org/2000/svg"
   xmlns="http://www.w3.org/2000/svg"
   xmlns:sodipodi="http://sodipodi.sourceforge.net/DTD/sodipodi-0.dtd"
   xmlns:inkscape="http://www.inkscape.org/namespaces/inkscape"
   version="1.2"
   x="0px"
   y="0px"
   width="300"
   height="285.51001"
   viewBox="0 0 300 285.51001"
   xml:space="preserve"
   id="svg2"
   inkscape:version="0.48.4 r9939"
   sodipodi:docname="venn.svg"><metadata
   id="metadata285"><rdf:RDF><cc:Work
       rdf:about=""><dc:format>image/svg+xml</dc:format><dc:type
         rdf:resource="http://purl.org/dc/dcmitype/StillImage" /></cc:Work></rdf:RDF></metadata><defs
   id="defs283">
	
	
	
	
	
	
	
	
</defs><sodipodi:namedview
   pagecolor="#ffffff"
   bordercolor="#666666"
   borderopacity="1"
   objecttolerance="10"
   gridtolerance="10"
   guidetolerance="10"
   inkscape:pageopacity="0"
   inkscape:pageshadow="2"
   inkscape:window-width="868"
   inkscape:window-height="730"
   id="namedview281"
   showgrid="false"
   inkscape:zoom="0.78666667"
   inkscape:cx="263.91856"
   inkscape:cy="300"
   inkscape:window-x="161"
   inkscape:window-y="216"
   inkscape:window-maximized="0"
   inkscape:current-layer="svg2"
   fit-margin-top="0"
   fit-margin-left="0"
   fit-margin-right="0"
   fit-margin-bottom="0"
   borderlayer="true"
   inkscape:showpageshadow="false" />
<g
   id="Layer_3"
   display="none"
   style="display:none"
   transform="translate(-8.3839907,-314.48999)">
	<circle
   display="inline"
   cx="321"
   cy="400"
   r="200"
   id="circle5"
   sodipodi:cx="321"
   sodipodi:cy="400"
   sodipodi:rx="200"
   sodipodi:ry="200"
   style="fill:#29abe2;display:inline"
   d="m 521,400 c 0,110.45695 -89.54305,200 -200,200 -110.45695,0 -200,-89.54305 -200,-200 0,-110.45695 89.54305,-200 200,-200 110.45695,0 200,89.54305 200,200 z" />
	<circle
   display="inline"
   cx="433.58301"
   cy="205"
   r="200"
   id="circle7"
   sodipodi:cx="433.58301"
   sodipodi:cy="205"
   sodipodi:rx="200"
   sodipodi:ry="200"
   style="fill:#8dd8d8;display:inline"
   d="m 633.58301,205 c 0,110.45695 -89.54305,200 -200,200 -110.45695,0 -200,-89.54305 -200,-200 0,-110.45695 89.54305,-200 200,-200 110.45695,0 200,89.54305 200,200 z" />
	<circle
   display="inline"
   cx="208.41701"
   cy="205"
   r="200"
   id="circle9"
   sodipodi:cx="208.41701"
   sodipodi:cy="205"
   sodipodi:rx="200"
   sodipodi:ry="200"
   style="fill:#e0e2e2;display:inline"
   d="m 408.41701,205 c 0,110.45695 -89.54305,200 -200,200 C 97.960057,405 8.4170074,315.45695 8.4170074,205 8.4170074,94.54305 97.960057,5 208.41701,5 c 110.45695,0 200,89.54305 200,200 z" />
</g>



<g
   id="g3121"
   transform="matrix(0.47982137,0,0,0.47982137,-4.0228179,-2.3828056)"><path
     d="m 321,370.355 c -57.599,39.156 -133.598,46.636 -199.451,14.798 -0.36,4.903 -0.549,9.853 -0.549,14.847 0,110.457 89.543,200 200,200 110.457,0 200,-89.543 200,-200 0,-4.994 -0.189,-9.944 -0.549,-14.847 C 454.598,416.991 378.599,409.511 321,370.355 z"
     id="path12"
     inkscape:connector-curvature="0"
     style="fill:#b7b7b7;fill-opacity:1" /><path
     d="M 606.788,105 C 551.56,9.341 429.242,-23.434 333.583,31.795 c -4.325,2.497 -8.518,5.136 -12.583,7.899 60.499,41.111 92.021,110.669 86.91,180.129 62.71,30.304 107.187,92.381 112.541,165.331 4.426,-2.14 8.807,-4.451 13.132,-6.948 C 629.242,322.977 662.017,200.659 606.788,105 z"
     id="path14"
     inkscape:connector-curvature="0"
     style="fill:#d0d0d0;fill-opacity:1" /><path
     d="M 407.91,219.822 C 405.768,248.933 397.195,278.026 381.622,305 366.049,331.974 345.14,353.945 321,370.355 378.599,409.511 454.598,416.991 520.451,385.153 515.097,312.204 470.62,250.127 407.91,219.822 z"
     id="path16"
     inkscape:connector-curvature="0"
     style="fill:#7cb2cd;fill-opacity:1" /><path
     d="M 234.09,219.822 C 228.979,150.362 260.501,80.804 321,39.693 316.934,36.93 312.742,34.291 308.417,31.794 212.758,-23.434 90.44,9.341 35.212,105 c -55.228,95.659 -22.453,217.977 73.205,273.205 4.325,2.497 8.707,4.808 13.132,6.948 5.354,-72.949 49.831,-135.026 112.541,-165.331 z"
     id="path18"
     inkscape:connector-curvature="0"
     style="fill:#e3e3e3;fill-opacity:1" /><path
     d="M 321,370.355 C 296.86,353.945 275.951,331.973 260.378,305 244.805,278.027 236.232,248.933 234.09,219.822 171.38,250.126 126.903,312.203 121.549,385.153 187.402,416.991 263.401,409.511 321,370.355 z"
     id="path20"
     inkscape:connector-curvature="0"
     style="fill:#aac8dd;fill-opacity:1" /><path
     d="M 234.09,219.822 C 260.372,207.122 289.854,200 321,200 c 31.146,0 60.628,7.122 86.91,19.822 C 413.021,150.362 381.499,80.804 321,39.693 260.501,80.805 228.979,150.362 234.09,219.822 z"
     id="path22"
     inkscape:connector-curvature="0"
     style="fill:#c5ddeb;fill-opacity:1" /><path
     d="m 234.09,219.822 c 2.142,29.111 10.715,58.204 26.288,85.178 15.573,26.974 36.482,48.945 60.622,65.355 24.14,-16.41 45.049,-38.382 60.622,-65.355 15.573,-26.973 24.146,-56.067 26.288,-85.178 C 381.628,207.122 352.146,200 321,200 c -31.146,0 -60.628,7.122 -86.91,19.822 z"
     id="path24"
     inkscape:connector-curvature="0"
     style="fill:#006f9a;fill-opacity:1" /><g
     id="g26">
	</g><g
     transform="matrix(0.97204087,0,0,0.97134265,8.974182,8.1841636)"
     style="fill:none;stroke:#000000;stroke-opacity:1"
     id="Layer_4">
	<path
   inkscape:connector-curvature="0"
   style="fill:none;stroke:#000000;stroke-width:5;stroke-miterlimit:10;stroke-opacity:1"
   id="path29"
   d="M 381.622,305 C 397.195,278.027 405.768,248.933 407.91,219.822 381.628,207.122 352.146,200 321,200 c -31.146,0 -60.628,7.122 -86.91,19.822 2.142,29.111 10.715,58.204 26.288,85.178 15.573,26.974 36.482,48.945 60.622,65.355 24.14,-16.41 45.049,-38.382 60.622,-65.355 z"
   stroke-miterlimit="10" />
</g><g
     id="Layer_1">
	<g
   style="fill:#ffffff;fill-opacity:1"
   id="g32">
		<path
   style="fill:#ffffff;fill-opacity:1"
   id="path34"
   d="m 304.841,238.165 c 1.883,1.723 2.825,4.12 2.825,7.189 0,3.07 -0.918,5.5 -2.754,7.289 -1.836,1.789 -4.638,2.684 -8.404,2.684 h -6.752 V 235.58 h 6.978 c 3.52,0 6.223,0.861 8.107,2.585 z m -3.235,11.737 c 1.083,-1.017 1.625,-2.495 1.625,-4.435 0,-1.94 -0.542,-3.433 -1.625,-4.478 -1.083,-1.045 -2.745,-1.568 -4.986,-1.568 h -2.458 v 12.007 h 2.797 c 2.015,0 3.563,-0.509 4.647,-1.526 z"
   inkscape:connector-curvature="0" />
		<path
   style="fill:#ffffff;fill-opacity:1"
   id="path36"
   d="m 323.769,255.327 h -3.983 v -1.836 c -1.092,1.375 -2.443,2.063 -4.054,2.063 -1.611,0 -2.962,-0.466 -4.054,-1.398 -1.093,-0.932 -1.639,-2.175 -1.639,-3.729 0,-1.554 0.565,-2.717 1.695,-3.489 1.13,-0.772 2.674,-1.158 4.633,-1.158 h 3.164 v -0.084 c 0,-1.62 -0.857,-2.43 -2.571,-2.43 -0.734,0 -1.511,0.146 -2.331,0.438 -0.82,0.292 -1.512,0.654 -2.077,1.087 l -1.893,-2.74 c 1.996,-1.45 4.275,-2.175 6.836,-2.175 1.846,0 3.353,0.462 4.521,1.384 1.167,0.923 1.751,2.383 1.751,4.379 v 9.688 z m -4.266,-5.792 v -0.734 h -2.655 c -1.695,0 -2.543,0.527 -2.543,1.582 0,0.546 0.203,0.965 0.607,1.257 0.404,0.292 0.984,0.438 1.738,0.438 0.752,0 1.417,-0.23 1.992,-0.692 0.574,-0.462 0.861,-1.078 0.861,-1.851 z"
   inkscape:connector-curvature="0" />
		<path
   style="fill:#ffffff;fill-opacity:1"
   id="path38"
   d="m 332.525,243.179 v 6.809 c 0,0.584 0.15,1.041 0.452,1.37 0.301,0.33 0.659,0.495 1.073,0.495 0.791,0 1.46,-0.358 2.006,-1.074 l 1.582,2.966 c -1.318,1.206 -2.707,1.808 -4.167,1.808 -1.46,0 -2.693,-0.48 -3.7,-1.441 -1.008,-0.96 -1.512,-2.269 -1.512,-3.927 v -7.006 h -1.78 v -3.051 h 1.78 v -4.548 h 4.266 v 4.548 h 3.673 v 3.051 h -3.673 z"
   inkscape:connector-curvature="0" />
		<path
   style="fill:#ffffff;fill-opacity:1"
   id="path40"
   d="m 352.809,255.327 h -3.983 v -1.836 c -1.092,1.375 -2.443,2.063 -4.054,2.063 -1.611,0 -2.962,-0.466 -4.054,-1.398 -1.093,-0.932 -1.639,-2.175 -1.639,-3.729 0,-1.554 0.565,-2.717 1.695,-3.489 1.13,-0.772 2.674,-1.158 4.633,-1.158 h 3.164 v -0.084 c 0,-1.62 -0.857,-2.43 -2.57,-2.43 -0.735,0 -1.512,0.146 -2.331,0.438 -0.819,0.292 -1.512,0.654 -2.076,1.087 l -1.894,-2.74 c 1.996,-1.45 4.275,-2.175 6.837,-2.175 1.846,0 3.353,0.462 4.521,1.384 1.167,0.923 1.751,2.383 1.751,4.379 v 9.688 z m -4.266,-5.792 v -0.734 h -2.655 c -1.695,0 -2.543,0.527 -2.543,1.582 0,0.546 0.202,0.965 0.607,1.257 0.405,0.292 0.984,0.438 1.737,0.438 0.753,0 1.417,-0.23 1.992,-0.692 0.575,-0.462 0.862,-1.078 0.862,-1.851 z"
   inkscape:connector-curvature="0" />
		<path
   style="fill:#ffffff;fill-opacity:1"
   id="path42"
   d="m 271.986,273.421 c -0.423,0.349 -0.635,0.81 -0.635,1.384 0,0.575 0.258,1.031 0.777,1.37 0.518,0.339 1.713,0.739 3.588,1.201 1.874,0.461 3.329,1.154 4.365,2.076 1.035,0.923 1.554,2.27 1.554,4.04 0,1.771 -0.664,3.207 -1.992,4.308 -1.328,1.102 -3.075,1.653 -5.241,1.653 -3.126,0 -5.942,-1.158 -8.447,-3.475 l 2.627,-3.22 c 2.128,1.864 4.096,2.797 5.904,2.797 0.81,0 1.445,-0.174 1.907,-0.523 0.461,-0.348 0.692,-0.819 0.692,-1.413 0,-0.594 -0.245,-1.063 -0.735,-1.413 -0.49,-0.348 -1.459,-0.701 -2.91,-1.059 -2.298,-0.546 -3.979,-1.257 -5.042,-2.133 -1.064,-0.876 -1.596,-2.25 -1.596,-4.125 0,-1.874 0.673,-3.319 2.02,-4.336 1.347,-1.017 3.027,-1.525 5.043,-1.525 1.318,0 2.637,0.226 3.955,0.678 1.318,0.452 2.467,1.092 3.447,1.921 l -2.232,3.221 c -1.714,-1.3 -3.485,-1.95 -5.311,-1.95 -0.735,0 -1.314,0.175 -1.738,0.523 z"
   inkscape:connector-curvature="0" />
		<path
   style="fill:#ffffff;fill-opacity:1"
   id="path44"
   d="m 292.255,285.696 c 1.413,0 2.684,-0.707 3.814,-2.119 l 2.514,2.825 c -1.959,2.034 -4.078,3.051 -6.356,3.051 -2.278,0 -4.205,-0.721 -5.777,-2.161 -1.573,-1.441 -2.359,-3.324 -2.359,-5.65 0,-2.326 0.795,-4.218 2.387,-5.678 1.591,-1.459 3.479,-2.189 5.665,-2.189 1.092,0 2.199,0.226 3.319,0.678 1.12,0.452 2.104,1.121 2.952,2.005 l -2.204,2.882 c -0.49,-0.583 -1.087,-1.036 -1.794,-1.356 -0.706,-0.32 -1.408,-0.48 -2.104,-0.48 -1.112,0 -2.067,0.363 -2.868,1.088 -0.801,0.725 -1.201,1.733 -1.201,3.022 0,1.291 0.4,2.293 1.201,3.009 0.801,0.716 1.738,1.073 2.811,1.073 z"
   inkscape:connector-curvature="0" />
		<path
   style="fill:#ffffff;fill-opacity:1"
   id="path46"
   d="m 301.761,272.093 c -0.48,-0.48 -0.72,-1.068 -0.72,-1.766 0,-0.696 0.24,-1.285 0.72,-1.766 0.48,-0.48 1.069,-0.72 1.766,-0.72 0.697,0 1.286,0.24 1.766,0.72 0.48,0.48 0.721,1.069 0.721,1.766 0,0.697 -0.24,1.286 -0.721,1.766 -0.48,0.48 -1.069,0.721 -1.766,0.721 -0.697,0 -1.285,-0.24 -1.766,-0.721 z m 3.885,17.135 h -4.237 v -15.199 h 4.237 v 15.199 z"
   inkscape:connector-curvature="0" />
		<path
   style="fill:#ffffff;fill-opacity:1"
   id="path48"
   d="m 322.822,287.024 c -1.714,1.62 -3.725,2.43 -6.032,2.43 -2.307,0 -4.214,-0.711 -5.721,-2.133 -1.507,-1.422 -2.26,-3.329 -2.26,-5.721 0,-2.391 0.767,-4.294 2.303,-5.707 1.535,-1.413 3.348,-2.119 5.438,-2.119 2.09,0 3.866,0.631 5.326,1.893 1.459,1.262 2.189,2.995 2.189,5.198 v 2.26 H 312.99 c 0.131,0.829 0.565,1.507 1.299,2.034 0.735,0.527 1.563,0.791 2.486,0.791 1.487,0 2.712,-0.499 3.673,-1.498 l 2.374,2.572 z m -4.068,-9.012 c -0.584,-0.49 -1.295,-0.735 -2.133,-0.735 -0.838,0 -1.606,0.254 -2.303,0.763 -0.697,0.509 -1.102,1.196 -1.215,2.063 h 6.667 c -0.093,-0.904 -0.432,-1.601 -1.016,-2.091 z"
   inkscape:connector-curvature="0" />
		<path
   style="fill:#ffffff;fill-opacity:1"
   id="path50"
   d="m 331.354,280.752 v 8.475 h -4.237 v -15.199 h 4.237 v 1.695 c 1.281,-1.299 2.722,-1.949 4.322,-1.949 1.6,0 2.942,0.565 4.026,1.695 1.082,1.13 1.624,2.637 1.624,4.521 v 9.238 h -4.237 v -8.588 c 0,-2.335 -0.857,-3.503 -2.571,-3.503 -0.848,0 -1.587,0.306 -2.218,0.918 -0.631,0.612 -0.946,1.511 -0.946,2.697 z"
   inkscape:connector-curvature="0" />
		<path
   style="fill:#ffffff;fill-opacity:1"
   id="path52"
   d="m 352.457,285.696 c 1.412,0 2.684,-0.707 3.813,-2.119 l 2.515,2.825 c -1.959,2.034 -4.078,3.051 -6.356,3.051 -2.279,0 -4.205,-0.721 -5.777,-2.161 -1.573,-1.441 -2.359,-3.324 -2.359,-5.65 0,-2.326 0.796,-4.218 2.388,-5.678 1.591,-1.459 3.479,-2.189 5.664,-2.189 1.092,0 2.198,0.226 3.319,0.678 1.12,0.452 2.104,1.121 2.952,2.005 l -2.203,2.882 c -0.49,-0.583 -1.088,-1.036 -1.794,-1.356 -0.707,-0.32 -1.408,-0.48 -2.105,-0.48 -1.111,0 -2.066,0.363 -2.867,1.088 -0.801,0.725 -1.2,1.733 -1.2,3.022 0,1.291 0.399,2.293 1.2,3.009 0.799,0.716 1.736,1.073 2.81,1.073 z"
   inkscape:connector-curvature="0" />
		<path
   style="fill:#ffffff;fill-opacity:1"
   id="path54"
   d="m 374.774,287.024 c -1.714,1.62 -3.725,2.43 -6.032,2.43 -2.307,0 -4.214,-0.711 -5.721,-2.133 -1.507,-1.422 -2.26,-3.329 -2.26,-5.721 0,-2.391 0.768,-4.294 2.303,-5.707 1.534,-1.413 3.348,-2.119 5.438,-2.119 2.09,0 3.865,0.631 5.325,1.893 1.459,1.262 2.189,2.995 2.189,5.198 v 2.26 h -11.074 c 0.131,0.829 0.564,1.507 1.299,2.034 0.735,0.527 1.563,0.791 2.486,0.791 1.487,0 2.712,-0.499 3.673,-1.498 l 2.374,2.572 z m -4.068,-9.012 c -0.584,-0.49 -1.295,-0.735 -2.133,-0.735 -0.839,0 -1.606,0.254 -2.303,0.763 -0.697,0.509 -1.102,1.196 -1.215,2.063 h 6.667 c -0.093,-0.904 -0.432,-1.601 -1.016,-2.091 z"
   inkscape:connector-curvature="0" />
	</g>
	<g
   id="g56">
		<path
   id="path58"
   d="m 284,143.873 h -2.36 v -13.98 h 3.68 l 4.22,8.78 4.22,-8.78 h 3.66 v 13.98 h -2.36 v -10.92 l -4.88,9.7 h -1.32 l -4.86,-9.7 v 10.92 z"
   inkscape:connector-curvature="0" />
		<path
   id="path60"
   d="m 309.601,143.873 h -2.04 v -1.42 c -0.88,1.053 -2.06,1.58 -3.54,1.58 -1.107,0 -2.023,-0.313 -2.75,-0.94 -0.727,-0.627 -1.09,-1.463 -1.09,-2.51 0,-1.046 0.387,-1.83 1.16,-2.35 0.773,-0.52 1.82,-0.78 3.14,-0.78 h 2.9 v -0.4 c 0,-1.413 -0.787,-2.12 -2.36,-2.12 -0.987,0 -2.014,0.36 -3.08,1.08 l -1,-1.4 c 1.293,-1.027 2.76,-1.54 4.4,-1.54 1.253,0 2.276,0.317 3.07,0.95 0.793,0.633 1.19,1.63 1.19,2.99 v 6.86 z m -2.241,-3.96 v -0.9 h -2.52 c -1.613,0 -2.42,0.507 -2.42,1.52 0,0.52 0.2,0.917 0.6,1.19 0.4,0.273 0.957,0.41 1.67,0.41 0.713,0 1.336,-0.2 1.87,-0.6 0.533,-0.4 0.8,-0.94 0.8,-1.62 z"
   inkscape:connector-curvature="0" />
		<path
   id="path62"
   d="m 317.44,144.033 c -1.48,0 -2.753,-0.503 -3.82,-1.51 -1.067,-1.006 -1.6,-2.323 -1.6,-3.95 0,-1.627 0.557,-2.95 1.67,-3.97 1.113,-1.02 2.47,-1.53 4.07,-1.53 1.6,0 2.953,0.553 4.06,1.66 l -1.32,1.62 c -0.92,-0.8 -1.847,-1.2 -2.78,-1.2 -0.934,0 -1.744,0.31 -2.43,0.93 -0.687,0.62 -1.03,1.42 -1.03,2.4 0,0.98 0.34,1.81 1.02,2.49 0.68,0.68 1.517,1.02 2.51,1.02 0.993,0 1.93,-0.453 2.81,-1.36 l 1.32,1.44 c -1.294,1.307 -2.787,1.96 -4.48,1.96 z"
   inkscape:connector-curvature="0" />
		<path
   id="path64"
   d="m 326.479,138.113 v 5.76 h -2.239 v -14.82 h 2.239 v 6.12 c 0.32,-0.653 0.804,-1.167 1.45,-1.54 0.646,-0.373 1.344,-0.56 2.09,-0.56 1.2,0 2.17,0.367 2.91,1.1 0.74,0.733 1.11,1.793 1.11,3.18 v 6.52 h -2.24 v -5.84 c 0,-1.96 -0.813,-2.94 -2.439,-2.94 -0.773,0 -1.447,0.257 -2.021,0.77 -0.574,0.513 -0.86,1.263 -0.86,2.25 z"
   inkscape:connector-curvature="0" />
		<path
   id="path66"
   d="m 337.3,131.113 c -0.28,-0.28 -0.42,-0.613 -0.42,-1 0,-0.387 0.14,-0.72 0.42,-1 0.28,-0.28 0.613,-0.42 1,-0.42 0.387,0 0.72,0.14 1,0.42 0.28,0.28 0.42,0.613 0.42,1 0,0.387 -0.14,0.72 -0.42,1 -0.28,0.28 -0.613,0.42 -1,0.42 -0.387,0 -0.72,-0.14 -1,-0.42 z m 2.099,12.76 h -2.239 v -10.64 h 2.239 v 10.64 z"
   inkscape:connector-curvature="0" />
		<path
   id="path68"
   d="m 344.879,138.113 v 5.76 h -2.239 v -10.64 h 2.239 v 1.94 c 0.36,-0.653 0.857,-1.167 1.49,-1.54 0.633,-0.373 1.316,-0.56 2.05,-0.56 1.2,0 2.17,0.367 2.91,1.1 0.74,0.733 1.11,1.793 1.11,3.18 v 6.52 h -2.24 v -5.84 c 0,-1.96 -0.813,-2.94 -2.439,-2.94 -0.773,0 -1.447,0.257 -2.021,0.77 -0.574,0.513 -0.86,1.263 -0.86,2.25 z"
   inkscape:connector-curvature="0" />
		<path
   id="path70"
   d="m 365.459,139.533 h -8.34 c 0.053,0.773 0.406,1.396 1.061,1.87 0.652,0.474 1.399,0.71 2.239,0.71 1.333,0 2.347,-0.42 3.04,-1.26 l 1.28,1.4 c -1.146,1.187 -2.64,1.78 -4.48,1.78 -1.493,0 -2.763,-0.497 -3.81,-1.49 -1.047,-0.993 -1.57,-2.327 -1.57,-4 0,-1.673 0.533,-3.003 1.601,-3.99 1.066,-0.987 2.323,-1.48 3.77,-1.48 1.447,0 2.677,0.437 3.69,1.31 1.013,0.874 1.52,2.077 1.52,3.61 v 1.54 z m -8.34,-1.76 h 6.1 c 0,-0.893 -0.279,-1.58 -0.84,-2.06 -0.56,-0.48 -1.25,-0.72 -2.069,-0.72 -0.82,0 -1.558,0.25 -2.21,0.75 -0.655,0.5 -0.981,1.177 -0.981,2.03 z"
   inkscape:connector-curvature="0" />
		<path
   id="path72"
   d="m 281.061,167.873 v -13.98 h 2.36 v 11.74 h 6.38 v 2.24 h -8.74 z"
   inkscape:connector-curvature="0" />
		<path
   id="path74"
   d="m 301.96,163.533 h -8.34 c 0.053,0.773 0.406,1.396 1.06,1.87 0.653,0.474 1.4,0.71 2.24,0.71 1.333,0 2.347,-0.42 3.04,-1.26 l 1.28,1.4 c -1.146,1.187 -2.64,1.78 -4.48,1.78 -1.493,0 -2.763,-0.497 -3.81,-1.49 -1.047,-0.993 -1.57,-2.327 -1.57,-4 0,-1.673 0.533,-3.003 1.6,-3.99 1.066,-0.987 2.323,-1.48 3.77,-1.48 1.446,0 2.676,0.437 3.69,1.31 1.013,0.874 1.52,2.077 1.52,3.61 v 1.54 z m -8.339,-1.76 h 6.1 c 0,-0.893 -0.28,-1.58 -0.84,-2.06 -0.56,-0.48 -1.25,-0.72 -2.07,-0.72 -0.82,0 -1.557,0.25 -2.21,0.75 -0.654,0.5 -0.98,1.177 -0.98,2.03 z"
   inkscape:connector-curvature="0" />
		<path
   id="path76"
   d="M 313.041,167.873 H 311 v -1.42 c -0.88,1.053 -2.06,1.58 -3.54,1.58 -1.107,0 -2.023,-0.313 -2.75,-0.94 -0.727,-0.627 -1.09,-1.463 -1.09,-2.51 0,-1.046 0.387,-1.83 1.16,-2.35 0.773,-0.52 1.82,-0.78 3.14,-0.78 h 2.9 v -0.4 c 0,-1.413 -0.787,-2.12 -2.36,-2.12 -0.987,0 -2.014,0.36 -3.08,1.08 l -1,-1.4 c 1.293,-1.027 2.76,-1.54 4.4,-1.54 1.253,0 2.276,0.317 3.07,0.95 0.793,0.633 1.19,1.63 1.19,2.99 v 6.86 z m -2.241,-3.96 v -0.9 h -2.52 c -1.613,0 -2.42,0.507 -2.42,1.52 0,0.52 0.2,0.917 0.6,1.19 0.4,0.273 0.957,0.41 1.67,0.41 0.713,0 1.336,-0.2 1.87,-0.6 0.533,-0.4 0.8,-0.94 0.8,-1.62 z"
   inkscape:connector-curvature="0" />
		<path
   id="path78"
   d="m 321.74,159.333 c -1.107,0 -1.94,0.36 -2.5,1.08 -0.56,0.72 -0.84,1.687 -0.84,2.9 v 4.56 h -2.24 v -10.64 h 2.24 v 2.14 c 0.36,-0.667 0.85,-1.213 1.47,-1.64 0.62,-0.426 1.276,-0.646 1.97,-0.66 l 0.02,2.26 c -0.04,0 -0.08,0 -0.12,0 z"
   inkscape:connector-curvature="0" />
		<path
   id="path80"
   d="m 326.34,162.113 v 5.76 h -2.24 v -10.64 h 2.24 v 1.94 c 0.36,-0.653 0.856,-1.167 1.49,-1.54 0.633,-0.373 1.316,-0.56 2.05,-0.56 1.2,0 2.17,0.367 2.91,1.1 0.739,0.733 1.109,1.793 1.109,3.18 v 6.52 h -2.239 v -5.84 c 0,-1.96 -0.813,-2.94 -2.44,-2.94 -0.773,0 -1.447,0.257 -2.02,0.77 -0.574,0.513 -0.86,1.263 -0.86,2.25 z"
   inkscape:connector-curvature="0" />
		<path
   id="path82"
   d="m 337.159,155.113 c -0.279,-0.28 -0.42,-0.613 -0.42,-1 0,-0.387 0.141,-0.72 0.42,-1 0.28,-0.28 0.613,-0.42 1,-0.42 0.387,0 0.721,0.14 1,0.42 0.28,0.28 0.421,0.613 0.421,1 0,0.387 -0.141,0.72 -0.421,1 -0.279,0.28 -0.613,0.42 -1,0.42 -0.387,0 -0.72,-0.14 -1,-0.42 z m 2.101,12.76 h -2.24 v -10.64 h 2.24 v 10.64 z"
   inkscape:connector-curvature="0" />
		<path
   id="path84"
   d="m 344.739,162.113 v 5.76 H 342.5 v -10.64 h 2.239 v 1.94 c 0.36,-0.653 0.857,-1.167 1.49,-1.54 0.633,-0.373 1.316,-0.56 2.05,-0.56 1.2,0 2.17,0.367 2.91,1.1 0.74,0.733 1.11,1.793 1.11,3.18 v 6.52 h -2.24 v -5.84 c 0,-1.96 -0.813,-2.94 -2.439,-2.94 -0.773,0 -1.447,0.257 -2.021,0.77 -0.574,0.513 -0.86,1.263 -0.86,2.25 z"
   inkscape:connector-curvature="0" />
		<path
   id="path86"
   d="m 365.26,157.233 v 9.28 c 0,1.88 -0.51,3.29 -1.53,4.23 -1.02,0.94 -2.33,1.41 -3.93,1.41 -1.601,0 -3.047,-0.5 -4.34,-1.5 l 1.06,-1.7 c 1.04,0.787 2.09,1.18 3.15,1.18 1.06,0 1.899,-0.273 2.52,-0.82 0.62,-0.547 0.93,-1.42 0.93,-2.62 v -1.36 c -0.333,0.627 -0.81,1.127 -1.43,1.5 -0.62,0.374 -1.316,0.56 -2.09,0.56 -1.413,0 -2.573,-0.493 -3.48,-1.48 -0.906,-0.987 -1.359,-2.213 -1.359,-3.68 0,-1.466 0.453,-2.693 1.359,-3.68 0.907,-0.987 2.063,-1.48 3.471,-1.48 1.406,0 2.55,0.58 3.43,1.74 v -1.58 h 2.239 z m -8.3,4.91 c 0,0.874 0.27,1.627 0.81,2.26 0.54,0.634 1.267,0.95 2.18,0.95 0.913,0 1.653,-0.307 2.221,-0.92 0.566,-0.613 0.85,-1.376 0.85,-2.29 0,-0.913 -0.287,-1.687 -0.86,-2.32 -0.573,-0.633 -1.313,-0.95 -2.22,-0.95 -0.907,0 -1.63,0.327 -2.17,0.98 -0.54,0.653 -0.811,1.417 -0.811,2.29 z"
   inkscape:connector-curvature="0" />
	</g>
	<g
   id="g88">
		<path
   id="path90"
   d="m 389.421,324.964 v 11.82 h -2.359 v -11.82 h -4.24 v -2.16 h 10.84 v 2.16 h -4.241 z"
   inkscape:connector-curvature="0" />
		<path
   id="path92"
   d="m 401.481,328.244 c -1.107,0 -1.94,0.36 -2.5,1.08 -0.561,0.72 -0.84,1.687 -0.84,2.9 v 4.56 h -2.24 v -10.64 h 2.24 v 2.14 c 0.359,-0.667 0.85,-1.213 1.47,-1.64 0.62,-0.427 1.276,-0.646 1.97,-0.66 l 0.021,2.26 c -0.04,0 -0.081,0 -0.121,0 z"
   inkscape:connector-curvature="0" />
		<path
   id="path94"
   d="m 412.361,336.784 h -2.04 v -1.42 c -0.88,1.054 -2.061,1.58 -3.54,1.58 -1.107,0 -2.023,-0.313 -2.75,-0.94 -0.727,-0.626 -1.09,-1.463 -1.09,-2.51 0,-1.047 0.387,-1.83 1.16,-2.35 0.772,-0.521 1.819,-0.78 3.14,-0.78 h 2.899 v -0.4 c 0,-1.413 -0.786,-2.12 -2.359,-2.12 -0.987,0 -2.014,0.36 -3.08,1.08 l -1,-1.399 c 1.293,-1.026 2.76,-1.54 4.4,-1.54 1.253,0 2.276,0.316 3.069,0.95 0.793,0.633 1.19,1.63 1.19,2.989 v 6.86 z m -2.24,-3.96 v -0.9 h -2.52 c -1.614,0 -2.421,0.507 -2.421,1.521 0,0.52 0.2,0.917 0.601,1.189 0.399,0.273 0.956,0.41 1.67,0.41 0.713,0 1.337,-0.2 1.87,-0.6 0.533,-0.4 0.8,-0.94 0.8,-1.62 z"
   inkscape:connector-curvature="0" />
		<path
   id="path96"
   d="m 416.302,335.424 c -1,-1.013 -1.5,-2.347 -1.5,-4 0,-1.652 0.513,-2.973 1.54,-3.96 1.026,-0.986 2.25,-1.479 3.67,-1.479 1.42,0 2.563,0.6 3.43,1.8 v -5.84 h 2.24 v 14.84 h -2.24 v -1.6 c -0.827,1.173 -2.033,1.76 -3.62,1.76 -1.347,-10e-4 -2.52,-0.507 -3.52,-1.521 z m 0.739,-3.909 c 0,1.02 0.327,1.85 0.98,2.489 0.653,0.641 1.42,0.96 2.3,0.96 0.88,0 1.627,-0.323 2.24,-0.97 0.613,-0.647 0.92,-1.477 0.92,-2.49 0,-1.013 -0.307,-1.859 -0.92,-2.54 -0.613,-0.68 -1.367,-1.02 -2.26,-1.02 -0.894,0 -1.66,0.34 -2.301,1.02 -0.639,0.681 -0.959,1.53 -0.959,2.551 z"
   inkscape:connector-curvature="0" />
		<path
   id="path98"
   d="m 429.061,324.024 c -0.279,-0.28 -0.42,-0.613 -0.42,-1 0,-0.387 0.141,-0.721 0.42,-1 0.28,-0.28 0.613,-0.42 1,-0.42 0.387,0 0.721,0.14 1,0.42 0.28,0.279 0.42,0.613 0.42,1 0,0.387 -0.14,0.72 -0.42,1 -0.279,0.279 -0.613,0.42 -1,0.42 -0.387,0 -0.72,-0.14 -1,-0.42 z m 2.1,12.76 h -2.24 v -10.64 h 2.24 v 10.64 z"
   inkscape:connector-curvature="0" />
		<path
   id="path100"
   d="m 437.16,327.944 v 5.399 c 0,0.507 0.133,0.91 0.4,1.21 0.267,0.301 0.64,0.45 1.12,0.45 0.479,0 0.939,-0.232 1.38,-0.7 l 0.92,1.58 c -0.787,0.707 -1.657,1.061 -2.61,1.061 -0.953,0 -1.767,-0.33 -2.439,-0.99 -0.674,-0.66 -1.011,-1.55 -1.011,-2.67 v -5.34 h -1.34 v -1.8 h 1.34 v -3.341 h 2.24 v 3.341 h 2.8 v 1.8 h -2.8 z"
   inkscape:connector-curvature="0" />
		<path
   id="path102"
   d="m 442.9,324.024 c -0.279,-0.28 -0.42,-0.613 -0.42,-1 0,-0.387 0.141,-0.721 0.42,-1 0.28,-0.28 0.613,-0.42 1,-0.42 0.387,0 0.721,0.14 1,0.42 0.28,0.279 0.42,0.613 0.42,1 0,0.387 -0.14,0.72 -0.42,1 -0.279,0.279 -0.613,0.42 -1,0.42 -0.387,0 -0.719,-0.14 -1,-0.42 z m 2.101,12.76 h -2.24 v -10.64 h 2.24 v 10.64 z"
   inkscape:connector-curvature="0" />
		<path
   id="path104"
   d="m 457.14,335.354 c -1.066,1.06 -2.399,1.59 -4,1.59 -1.6,0 -2.933,-0.53 -4,-1.59 -1.066,-1.061 -1.6,-2.356 -1.6,-3.891 0,-1.533 0.533,-2.83 1.6,-3.89 1.067,-1.06 2.4,-1.59 4,-1.59 1.601,0 2.934,0.53 4,1.59 1.067,1.06 1.601,2.356 1.601,3.89 -10e-4,1.535 -0.534,2.831 -1.601,3.891 z m -6.41,-1.379 c 0.633,0.646 1.437,0.97 2.409,0.97 0.974,0 1.777,-0.323 2.41,-0.97 0.634,-0.647 0.95,-1.483 0.95,-2.511 0,-1.026 -0.316,-1.863 -0.95,-2.51 -0.633,-0.646 -1.437,-0.97 -2.41,-0.97 -0.973,0 -1.776,0.323 -2.409,0.97 -0.634,0.646 -0.95,1.483 -0.95,2.51 0,1.027 0.317,1.863 0.95,2.511 z"
   inkscape:connector-curvature="0" />
		<path
   id="path106"
   d="m 463.521,331.024 v 5.76 h -2.24 v -10.64 h 2.24 v 1.939 c 0.359,-0.653 0.856,-1.166 1.489,-1.54 0.634,-0.373 1.317,-0.56 2.051,-0.56 1.199,0 2.17,0.366 2.909,1.1 0.74,0.733 1.11,1.794 1.11,3.181 v 6.52 h -2.24 v -5.84 c 0,-1.96 -0.813,-2.94 -2.439,-2.94 -0.773,0 -1.447,0.257 -2.021,0.771 -0.574,0.514 -0.859,1.263 -0.859,2.249 z"
   inkscape:connector-curvature="0" />
		<path
   id="path108"
   d="m 482.82,336.784 h -2.04 v -1.42 c -0.88,1.054 -2.061,1.58 -3.54,1.58 -1.107,0 -2.023,-0.313 -2.75,-0.94 -0.727,-0.626 -1.09,-1.463 -1.09,-2.51 0,-1.047 0.387,-1.83 1.16,-2.35 0.772,-0.521 1.819,-0.78 3.14,-0.78 h 2.899 v -0.4 c 0,-1.413 -0.786,-2.12 -2.359,-2.12 -0.987,0 -2.014,0.36 -3.08,1.08 l -1,-1.399 c 1.293,-1.026 2.76,-1.54 4.4,-1.54 1.253,0 2.276,0.316 3.069,0.95 0.793,0.633 1.19,1.63 1.19,2.989 v 6.86 z m -2.24,-3.96 v -0.9 h -2.52 c -1.614,0 -2.421,0.507 -2.421,1.521 0,0.52 0.2,0.917 0.601,1.189 0.399,0.273 0.956,0.41 1.67,0.41 0.713,0 1.337,-0.2 1.87,-0.6 0.533,-0.4 0.8,-0.94 0.8,-1.62 z"
   inkscape:connector-curvature="0" />
		<path
   id="path110"
   d="m 488.181,336.784 h -2.24 v -14.84 h 2.24 v 14.84 z"
   inkscape:connector-curvature="0" />
		<path
   id="path112"
   d="m 402.34,351.344 c 0,2.308 -1.007,3.761 -3.02,4.36 l 3.66,5.08 h -3 l -3.34,-4.7 h -3.101 v 4.7 h -2.359 v -13.98 h 5.199 c 2.134,0 3.66,0.36 4.58,1.08 0.921,0.72 1.381,1.874 1.381,3.46 z m -3.14,1.98 c 0.48,-0.413 0.72,-1.076 0.72,-1.99 0,-0.913 -0.246,-1.54 -0.739,-1.88 -0.494,-0.34 -1.374,-0.51 -2.641,-0.51 h -3 v 5 h 2.94 c 1.333,0 2.241,-0.207 2.72,-0.62 z"
   inkscape:connector-curvature="0" />
		<path
   id="path114"
   d="m 415.319,356.444 h -8.34 c 0.054,0.773 0.407,1.396 1.061,1.87 0.654,0.474 1.399,0.71 2.24,0.71 1.333,0 2.346,-0.42 3.039,-1.26 l 1.28,1.399 c -1.146,1.187 -2.64,1.78 -4.479,1.78 -1.494,0 -2.764,-0.497 -3.811,-1.49 -1.047,-0.993 -1.569,-2.326 -1.569,-4 0,-1.673 0.532,-3.003 1.6,-3.99 1.066,-0.986 2.323,-1.479 3.77,-1.479 1.447,0 2.677,0.437 3.69,1.31 1.013,0.874 1.52,2.077 1.52,3.61 v 1.54 z m -8.34,-1.759 h 6.101 c 0,-0.894 -0.28,-1.58 -0.84,-2.061 -0.561,-0.479 -1.25,-0.72 -2.07,-0.72 -0.82,0 -1.557,0.25 -2.21,0.75 -0.653,0.5 -0.981,1.177 -0.981,2.031 z"
   inkscape:connector-curvature="0" />
		<path
   id="path116"
   d="m 425.36,357.604 c 0,1.013 -0.367,1.823 -1.101,2.43 -0.734,0.607 -1.673,0.91 -2.819,0.91 -0.773,0 -1.577,-0.141 -2.41,-0.42 -0.834,-0.28 -1.57,-0.674 -2.21,-1.181 l 1.08,-1.739 c 1.24,0.934 2.439,1.399 3.6,1.399 0.507,0 0.906,-0.116 1.2,-0.35 0.293,-0.233 0.44,-0.53 0.44,-0.89 0,-0.533 -0.707,-1.014 -2.12,-1.44 -0.107,-0.04 -0.188,-0.066 -0.24,-0.08 -2.214,-0.6 -3.32,-1.6 -3.32,-3 0,-0.986 0.384,-1.776 1.15,-2.37 0.767,-0.593 1.763,-0.89 2.99,-0.89 1.227,0 2.386,0.359 3.479,1.08 l -0.84,1.66 c -0.867,-0.573 -1.807,-0.86 -2.82,-0.86 -0.533,0 -0.967,0.097 -1.3,0.29 -0.333,0.193 -0.5,0.483 -0.5,0.87 0,0.347 0.173,0.6 0.521,0.76 0.239,0.12 0.576,0.233 1.01,0.34 0.433,0.107 0.816,0.214 1.149,0.32 0.333,0.106 0.657,0.227 0.971,0.359 0.313,0.134 0.649,0.32 1.01,0.561 0.72,0.481 1.08,1.228 1.08,2.241 z"
   inkscape:connector-curvature="0" />
		<path
   id="path118"
   d="m 437.8,356.444 h -8.34 c 0.054,0.773 0.407,1.396 1.061,1.87 0.654,0.474 1.399,0.71 2.24,0.71 1.333,0 2.346,-0.42 3.039,-1.26 l 1.28,1.399 c -1.146,1.187 -2.64,1.78 -4.479,1.78 -1.494,0 -2.764,-0.497 -3.811,-1.49 -1.047,-0.993 -1.569,-2.326 -1.569,-4 0,-1.673 0.532,-3.003 1.6,-3.99 1.066,-0.986 2.323,-1.479 3.77,-1.479 1.447,0 2.677,0.437 3.69,1.31 1.013,0.874 1.52,2.077 1.52,3.61 v 1.54 z m -8.34,-1.759 h 6.101 c 0,-0.894 -0.28,-1.58 -0.84,-2.061 -0.561,-0.479 -1.25,-0.72 -2.07,-0.72 -0.82,0 -1.557,0.25 -2.21,0.75 -0.653,0.5 -0.981,1.177 -0.981,2.031 z"
   inkscape:connector-curvature="0" />
		<path
   id="path120"
   d="m 448.881,360.784 h -2.04 v -1.42 c -0.88,1.054 -2.061,1.58 -3.54,1.58 -1.107,0 -2.023,-0.313 -2.75,-0.94 -0.727,-0.626 -1.09,-1.463 -1.09,-2.51 0,-1.047 0.387,-1.83 1.16,-2.35 0.772,-0.521 1.819,-0.78 3.14,-0.78 h 2.899 v -0.4 c 0,-1.413 -0.786,-2.12 -2.359,-2.12 -0.987,0 -2.014,0.36 -3.08,1.08 l -1,-1.399 c 1.293,-1.026 2.76,-1.54 4.4,-1.54 1.253,0 2.276,0.316 3.069,0.95 0.793,0.633 1.19,1.63 1.19,2.989 v 6.86 z m -2.24,-3.96 v -0.9 h -2.52 c -1.614,0 -2.421,0.507 -2.421,1.521 0,0.52 0.2,0.917 0.601,1.189 0.399,0.273 0.956,0.41 1.67,0.41 0.713,0 1.337,-0.2 1.87,-0.6 0.533,-0.4 0.8,-0.94 0.8,-1.62 z"
   inkscape:connector-curvature="0" />
		<path
   id="path122"
   d="m 457.581,352.244 c -1.107,0 -1.94,0.36 -2.5,1.08 -0.561,0.72 -0.84,1.687 -0.84,2.9 v 4.56 h -2.24 v -10.64 h 2.24 v 2.14 c 0.359,-0.667 0.85,-1.213 1.47,-1.64 0.62,-0.427 1.276,-0.646 1.97,-0.66 l 0.021,2.26 c -0.041,0 -0.081,0 -0.121,0 z"
   inkscape:connector-curvature="0" />
		<path
   id="path124"
   d="m 464.66,360.944 c -1.479,0 -2.753,-0.503 -3.82,-1.51 -1.066,-1.007 -1.6,-2.323 -1.6,-3.95 0,-1.627 0.557,-2.95 1.67,-3.97 1.113,-1.021 2.47,-1.53 4.07,-1.53 1.6,0 2.953,0.554 4.06,1.66 l -1.319,1.62 c -0.92,-0.801 -1.848,-1.2 -2.78,-1.2 -0.934,0 -1.743,0.31 -2.43,0.93 -0.688,0.62 -1.03,1.42 -1.03,2.4 0,0.979 0.34,1.81 1.02,2.489 0.681,0.681 1.517,1.021 2.511,1.021 0.993,0 1.93,-0.453 2.81,-1.36 l 1.32,1.44 c -1.295,1.307 -2.788,1.96 -4.482,1.96 z"
   inkscape:connector-curvature="0" />
		<path
   id="path126"
   d="m 473.7,355.024 v 5.76 h -2.24 v -14.82 h 2.24 v 6.12 c 0.319,-0.653 0.803,-1.166 1.449,-1.54 0.647,-0.373 1.344,-0.56 2.091,-0.56 1.199,0 2.17,0.366 2.909,1.1 0.74,0.733 1.11,1.794 1.11,3.181 v 6.52 h -2.24 v -5.84 c 0,-1.96 -0.813,-2.94 -2.439,-2.94 -0.773,0 -1.447,0.257 -2.021,0.771 -0.574,0.514 -0.859,1.262 -0.859,2.248 z"
   inkscape:connector-curvature="0" />
	</g>
	<g
   id="g128">
		<path
   id="path130"
   d="m 184.096,324.634 c 1.347,1.221 2.021,2.917 2.021,5.091 0,2.173 -0.653,3.893 -1.96,5.159 -1.307,1.268 -3.307,1.9 -6,1.9 h -4.64 v -13.98 h 4.8 c 2.506,0 4.433,0.61 5.779,1.83 z m -0.359,5.15 c 0,-3.2 -1.834,-4.8 -5.5,-4.8 h -2.36 v 9.58 h 2.62 c 1.693,0 2.99,-0.403 3.89,-1.21 0.9,-0.806 1.35,-1.997 1.35,-3.57 z"
   inkscape:connector-curvature="0" />
		<path
   id="path132"
   d="m 197.457,336.784 h -2.04 v -1.42 c -0.88,1.054 -2.061,1.58 -3.54,1.58 -1.107,0 -2.023,-0.313 -2.75,-0.94 -0.727,-0.626 -1.09,-1.463 -1.09,-2.51 0,-1.047 0.387,-1.83 1.16,-2.35 0.772,-0.521 1.819,-0.78 3.14,-0.78 h 2.899 v -0.4 c 0,-1.413 -0.786,-2.12 -2.359,-2.12 -0.987,0 -2.014,0.36 -3.08,1.08 l -1,-1.399 c 1.293,-1.026 2.76,-1.54 4.4,-1.54 1.253,0 2.276,0.316 3.069,0.95 0.793,0.633 1.19,1.63 1.19,2.989 v 6.86 z m -2.241,-3.96 v -0.9 h -2.52 c -1.614,0 -2.421,0.507 -2.421,1.521 0,0.52 0.2,0.917 0.601,1.189 0.399,0.273 0.956,0.41 1.67,0.41 0.713,0 1.337,-0.2 1.87,-0.6 0.534,-0.4 0.8,-0.94 0.8,-1.62 z"
   inkscape:connector-curvature="0" />
		<path
   id="path134"
   d="m 202.817,331.024 v 5.76 h -2.24 v -10.64 h 2.24 v 1.939 c 0.359,-0.653 0.856,-1.166 1.489,-1.54 0.634,-0.373 1.317,-0.56 2.051,-0.56 1.199,0 2.17,0.366 2.909,1.1 0.74,0.733 1.11,1.794 1.11,3.181 v 6.52 h -2.24 v -5.84 c 0,-1.96 -0.813,-2.94 -2.439,-2.94 -0.773,0 -1.447,0.257 -2.021,0.771 -0.574,0.514 -0.859,1.263 -0.859,2.249 z"
   inkscape:connector-curvature="0" />
		<path
   id="path136"
   d="m 223.336,326.145 v 9.279 c 0,1.88 -0.51,3.29 -1.53,4.23 -1.02,0.939 -2.33,1.41 -3.93,1.41 -1.6,0 -3.047,-0.5 -4.34,-1.5 l 1.06,-1.7 c 1.04,0.786 2.09,1.18 3.15,1.18 1.06,0 1.899,-0.273 2.52,-0.819 0.62,-0.547 0.931,-1.421 0.931,-2.62 v -1.36 c -0.334,0.627 -0.811,1.127 -1.431,1.5 -0.62,0.373 -1.316,0.56 -2.09,0.56 -1.413,0 -2.573,-0.492 -3.479,-1.479 -0.907,-0.986 -1.36,-2.213 -1.36,-3.68 0,-1.467 0.453,-2.693 1.36,-3.681 0.906,-0.986 2.063,-1.479 3.47,-1.479 1.406,0 2.55,0.58 3.43,1.74 v -1.58 h 2.239 z m -8.299,4.909 c 0,0.874 0.27,1.627 0.81,2.261 0.54,0.633 1.267,0.95 2.181,0.95 0.913,0 1.652,-0.307 2.22,-0.921 0.566,-0.612 0.85,-1.376 0.85,-2.29 0,-0.913 -0.286,-1.687 -0.859,-2.319 -0.574,-0.634 -1.313,-0.95 -2.221,-0.95 -0.906,0 -1.63,0.327 -2.17,0.98 -0.54,0.653 -0.811,1.416 -0.811,2.289 z"
   inkscape:connector-curvature="0" />
		<path
   id="path138"
   d="m 236.476,332.444 h -8.34 c 0.054,0.773 0.407,1.396 1.061,1.87 0.654,0.474 1.399,0.71 2.24,0.71 1.333,0 2.346,-0.42 3.039,-1.26 l 1.28,1.399 c -1.146,1.187 -2.64,1.78 -4.479,1.78 -1.494,0 -2.764,-0.497 -3.811,-1.49 -1.047,-0.993 -1.569,-2.326 -1.569,-4 0,-1.673 0.532,-3.003 1.6,-3.99 1.066,-0.986 2.323,-1.479 3.77,-1.479 1.447,0 2.677,0.437 3.69,1.31 1.013,0.874 1.52,2.077 1.52,3.61 v 1.54 z m -8.34,-1.759 h 6.101 c 0,-0.894 -0.28,-1.58 -0.84,-2.061 -0.561,-0.479 -1.25,-0.72 -2.07,-0.72 -0.82,0 -1.557,0.25 -2.21,0.75 -0.653,0.5 -0.981,1.177 -0.981,2.031 z"
   inkscape:connector-curvature="0" />
		<path
   id="path140"
   d="m 244.517,328.244 c -1.107,0 -1.94,0.36 -2.5,1.08 -0.561,0.72 -0.84,1.687 -0.84,2.9 v 4.56 h -2.24 v -10.64 h 2.24 v 2.14 c 0.359,-0.667 0.85,-1.213 1.47,-1.64 0.62,-0.427 1.276,-0.646 1.97,-0.66 l 0.021,2.26 c -0.041,0 -0.081,0 -0.121,0 z"
   inkscape:connector-curvature="0" />
		<path
   id="path142"
   d="m 188.777,348.964 h -7.88 v -2.16 h 11.16 v 1.841 l -8.12,9.899 v 0.061 h 8.24 v 2.18 h -11.54 v -1.82 l 8.14,-9.939 v -0.062 z"
   inkscape:connector-curvature="0" />
		<path
   id="path144"
   d="m 203.436,359.354 c -1.066,1.06 -2.399,1.59 -4,1.59 -1.6,0 -2.933,-0.53 -4,-1.59 -1.066,-1.061 -1.6,-2.356 -1.6,-3.891 0,-1.533 0.533,-2.83 1.6,-3.89 1.067,-1.06 2.4,-1.59 4,-1.59 1.601,0 2.934,0.53 4,1.59 1.067,1.06 1.601,2.356 1.601,3.89 0,1.535 -0.534,2.831 -1.601,3.891 z m -6.409,-1.379 c 0.633,0.646 1.437,0.97 2.409,0.97 0.974,0 1.777,-0.323 2.41,-0.97 0.634,-0.647 0.95,-1.483 0.95,-2.511 0,-1.026 -0.316,-1.863 -0.95,-2.51 -0.633,-0.646 -1.437,-0.97 -2.41,-0.97 -0.973,0 -1.776,0.323 -2.409,0.97 -0.634,0.646 -0.95,1.483 -0.95,2.51 0,1.027 0.316,1.863 0.95,2.511 z"
   inkscape:connector-curvature="0" />
		<path
   id="path146"
   d="m 209.817,355.024 v 5.76 h -2.24 v -10.64 h 2.24 v 1.939 c 0.359,-0.653 0.856,-1.166 1.489,-1.54 0.634,-0.373 1.317,-0.56 2.051,-0.56 1.199,0 2.17,0.366 2.909,1.1 0.74,0.733 1.11,1.794 1.11,3.181 v 6.52 h -2.24 v -5.84 c 0,-1.96 -0.813,-2.94 -2.439,-2.94 -0.773,0 -1.447,0.257 -2.021,0.771 -0.574,0.514 -0.859,1.263 -0.859,2.249 z"
   inkscape:connector-curvature="0" />
		<path
   id="path148"
   d="m 230.396,356.444 h -8.34 c 0.054,0.773 0.407,1.396 1.061,1.87 0.654,0.474 1.399,0.71 2.24,0.71 1.333,0 2.346,-0.42 3.039,-1.26 l 1.28,1.399 c -1.146,1.187 -2.64,1.78 -4.479,1.78 -1.494,0 -2.764,-0.497 -3.811,-1.49 -1.047,-0.993 -1.569,-2.326 -1.569,-4 0,-1.673 0.532,-3.003 1.6,-3.99 1.066,-0.986 2.323,-1.479 3.77,-1.479 1.447,0 2.677,0.437 3.69,1.31 1.013,0.874 1.52,2.077 1.52,3.61 v 1.54 z m -8.34,-1.759 h 6.101 c 0,-0.894 -0.28,-1.58 -0.84,-2.061 -0.561,-0.479 -1.25,-0.72 -2.07,-0.72 -0.82,0 -1.557,0.25 -2.21,0.75 -0.653,0.5 -0.981,1.177 -0.981,2.031 z"
   inkscape:connector-curvature="0" />
		<path
   id="path150"
   d="m 234.207,360.944 c -0.406,0 -0.757,-0.147 -1.05,-0.44 -0.293,-0.293 -0.439,-0.643 -0.439,-1.05 0,-0.406 0.146,-0.757 0.439,-1.05 0.293,-0.293 0.644,-0.44 1.05,-0.44 0.407,0 0.757,0.147 1.05,0.44 0.294,0.293 0.44,0.644 0.44,1.05 0,0.407 -0.146,0.757 -0.44,1.05 -0.294,0.293 -0.643,0.44 -1.05,0.44 z m -1.411,-14.48 h 2.801 v 2.58 l -0.601,7.221 h -1.6 l -0.601,-7.221 v -2.58 z"
   inkscape:connector-curvature="0" />
	</g>
</g><g
     transform="matrix(1.0213852,0,0,1.0213852,-6.8842402,-6.483447)"
     id="Layer_2">
	<g
   id="g153">
		<path
   style="fill:none"
   inkscape:connector-curvature="0"
   id="path155"
   d="M 143.428,317.593 C 81.26,281.692 59.96,202.178 95.852,139.994 131.744,77.81 211.238,56.505 273.406,92.406 c 62.168,35.901 83.468,115.416 47.575,177.599 -35.893,62.183 -115.386,83.49 -177.553,47.588 z" />
		<path
   inkscape:connector-curvature="0"
   id="path157"
   d="m 91.383,228.763 -21.64,2.716 -0.458,-3.652 9.38,-1.177 -1.348,-10.74 -9.38,1.178 -0.458,-3.652 21.64,-2.716 0.458,3.652 -8.854,1.111 1.348,10.74 8.854,-1.111 0.458,3.651 z" />
		<path
   inkscape:connector-curvature="0"
   id="path159"
   d="m 89.673,193.473 -0.123,3.179 -2.213,-0.085 c 1.589,1.435 2.339,3.306 2.25,5.612 -0.067,1.725 -0.61,3.135 -1.631,4.229 -1.021,1.095 -2.347,1.611 -3.979,1.548 -1.632,-0.063 -2.83,-0.713 -3.594,-1.95 -0.764,-1.236 -1.106,-2.883 -1.027,-4.94 l 0.175,-4.52 -0.624,-0.024 c -2.203,-0.085 -3.352,1.099 -3.447,3.55 -0.06,1.538 0.44,3.16 1.498,4.865 l -2.243,1.474 c -1.522,-2.077 -2.234,-4.395 -2.136,-6.95 0.076,-1.953 0.631,-3.529 1.666,-4.728 1.035,-1.198 2.613,-1.756 4.733,-1.674 l 10.695,0.414 z m -6.308,3.253 -1.403,-0.054 -0.152,3.927 c -0.097,2.515 0.645,3.802 2.224,3.863 0.811,0.031 1.441,-0.256 1.892,-0.863 0.451,-0.607 0.697,-1.466 0.74,-2.578 0.043,-1.111 -0.231,-2.095 -0.823,-2.951 -0.593,-0.855 -1.418,-1.303 -2.478,-1.344 z" />
		<path
   inkscape:connector-curvature="0"
   id="path161"
   d="m 91.618,182.939 c -0.411,2.271 -1.537,4.086 -3.378,5.444 -1.841,1.358 -4.01,1.811 -6.508,1.359 -2.497,-0.452 -4.375,-1.673 -5.631,-3.666 -1.257,-1.991 -1.664,-4.215 -1.219,-6.671 0.444,-2.456 1.669,-4.379 3.675,-5.771 l 2.121,2.476 c -1.483,1.19 -2.355,2.501 -2.614,3.934 -0.259,1.433 -0.008,2.762 0.753,3.988 0.761,1.226 1.894,1.975 3.398,2.247 1.504,0.272 2.873,-0.02 4.106,-0.874 1.232,-0.855 1.987,-2.044 2.262,-3.569 0.276,-1.524 -0.16,-3.088 -1.308,-4.69 l 2.577,-1.626 c 1.648,2.347 2.236,4.821 1.766,7.419 z" />
		<path
   inkscape:connector-curvature="0"
   id="path163"
   d="m 94.317,170.694 -1.094,3.318 -21.987,-7.251 1.094,-3.318 12.919,4.261 -4.586,-8.607 1.407,-4.266 4.279,8.046 11.631,-3.292 -1.329,4.029 -8.448,2.404 1.639,3.201 4.475,1.475 z" />
		<path
   inkscape:connector-curvature="0"
   id="path165"
   d="m 80.896,149.673 c -0.577,0.22 -1.141,0.207 -1.691,-0.04 -0.55,-0.247 -0.936,-0.659 -1.156,-1.236 -0.22,-0.577 -0.207,-1.141 0.04,-1.691 0.247,-0.55 0.658,-0.936 1.235,-1.155 0.578,-0.22 1.142,-0.207 1.692,0.04 0.551,0.247 0.936,0.659 1.156,1.236 0.22,0.577 0.207,1.141 -0.04,1.691 -0.247,0.55 -0.658,0.935 -1.236,1.155 z m 19.505,5.152 -1.429,3.188 -15.147,-6.788 1.429,-3.188 15.147,6.788 z" />
		<path
   inkscape:connector-curvature="0"
   id="path167"
   d="m 95.876,143.664 7.709,4.618 -1.795,2.997 -14.24,-8.53 1.795,-2.997 2.596,1.555 c -0.585,-1.005 -0.875,-2.081 -0.867,-3.228 0.008,-1.146 0.306,-2.21 0.894,-3.192 0.962,-1.605 2.23,-2.609 3.804,-3.012 1.575,-0.402 3.29,-0.047 5.146,1.064 l 8.726,5.227 -1.795,2.997 -7.816,-4.682 c -2.623,-1.571 -4.586,-1.269 -5.89,0.908 -0.62,1.035 -0.816,2.142 -0.588,3.32 0.227,1.179 1.001,2.164 2.321,2.955 z" />
		<path
   inkscape:connector-curvature="0"
   id="path169"
   d="m 108.328,113.021 11.208,9.163 c 2.271,1.856 3.47,3.865 3.599,6.024 0.129,2.159 -0.597,4.206 -2.176,6.138 -1.579,1.932 -3.612,3.186 -6.096,3.759 l -1.007,-2.958 c 1.977,-0.479 3.488,-1.358 4.535,-2.638 1.046,-1.28 1.545,-2.564 1.498,-3.853 -0.049,-1.289 -0.797,-2.525 -2.247,-3.71 l -1.643,-1.343 c 0.428,1.021 0.562,2.09 0.4,3.208 -0.161,1.118 -0.624,2.143 -1.387,3.077 -1.395,1.707 -3.136,2.621 -5.223,2.741 -2.087,0.121 -4.016,-0.543 -5.787,-1.991 -1.771,-1.448 -2.806,-3.207 -3.103,-5.276 -0.297,-2.069 0.249,-3.953 1.638,-5.651 1.389,-1.698 3.218,-2.506 5.487,-2.424 l -1.908,-1.56 2.212,-2.706 z m -2.263,14.87 c 1.055,0.863 2.231,1.28 3.529,1.253 1.298,-0.026 2.398,-0.591 3.3,-1.694 0.901,-1.103 1.261,-2.299 1.08,-3.589 -0.181,-1.29 -0.824,-2.386 -1.927,-3.288 -1.103,-0.901 -2.32,-1.319 -3.651,-1.252 -1.331,0.067 -2.444,0.648 -3.339,1.743 -0.895,1.095 -1.214,2.291 -0.958,3.588 0.256,1.297 0.912,2.377 1.966,3.239 z" />
		<path
   inkscape:connector-curvature="0"
   id="path171"
   d="m 123.136,96.418 c -0.843,0.661 -1.4,1.374 -1.671,2.141 -0.271,0.767 -0.134,1.499 0.411,2.194 0.545,0.696 1.232,1.017 2.061,0.962 0.829,-0.055 2.29,-0.558 4.384,-1.51 2.093,-0.952 3.888,-1.393 5.383,-1.322 1.495,0.072 2.829,0.856 4.002,2.355 1.173,1.499 1.561,3.157 1.162,4.975 -0.399,1.818 -1.516,3.445 -3.349,4.881 -2.686,2.103 -5.792,3.043 -9.321,2.82 l 0.105,-3.609 c 2.916,0.148 5.307,-0.509 7.173,-1.97 0.933,-0.731 1.517,-1.511 1.751,-2.342 0.234,-0.831 0.092,-1.578 -0.428,-2.241 -0.519,-0.663 -1.181,-0.977 -1.985,-0.942 -0.804,0.035 -1.955,0.396 -3.453,1.079 -1.499,0.685 -2.674,1.156 -3.528,1.415 -0.854,0.259 -1.695,0.383 -2.523,0.37 -1.618,0.025 -3.048,-0.756 -4.292,-2.345 -1.244,-1.588 -1.625,-3.265 -1.144,-5.029 0.481,-1.764 1.573,-3.312 3.276,-4.645 1.097,-0.859 2.327,-1.531 3.69,-2.017 1.363,-0.485 2.693,-0.708 3.992,-0.669 l 0.165,3.398 c -0.867,-0.061 -1.85,0.101 -2.948,0.485 -1.099,0.384 -2.07,0.906 -2.913,1.566 z" />
		<path
   inkscape:connector-curvature="0"
   id="path173"
   d="m 146.683,103.077 -3.035,1.731 -11.469,-20.111 3.035,-1.731 6.739,11.817 2.359,-9.463 3.902,-2.225 -2.212,8.84 10.841,5.347 -3.685,2.102 -7.883,-3.874 -0.927,3.474 2.335,4.093 z" />
		<path
   inkscape:connector-curvature="0"
   id="path175"
   d="m 150.765,78.491 c -0.576,-0.223 -0.986,-0.61 -1.229,-1.162 -0.244,-0.552 -0.254,-1.116 -0.031,-1.692 0.223,-0.576 0.61,-0.986 1.162,-1.229 0.552,-0.243 1.116,-0.254 1.691,-0.031 0.576,0.223 0.986,0.61 1.23,1.162 0.244,0.552 0.254,1.116 0.031,1.692 -0.223,0.576 -0.61,0.986 -1.162,1.229 -0.552,0.243 -1.116,0.254 -1.692,0.031 z m 11.04,16.884 -3.196,1.412 -6.708,-15.183 3.196,-1.412 6.708,15.183 z" />
		<path
   inkscape:connector-curvature="0"
   id="path177"
   d="m 169.126,92.548 -3.281,1.199 -7.947,-21.745 3.281,-1.199 7.947,21.745 z" />
		<path
   inkscape:connector-curvature="0"
   id="path179"
   d="m 176.609,90.208 -3.353,0.982 -6.508,-22.217 3.353,-0.982 6.508,22.217 z" />
		<path
   inkscape:connector-curvature="0"
   id="path181"
   d="m 191.15,81.965 c 0.302,1.552 -0.019,2.901 -0.961,4.048 -0.942,1.148 -2.291,1.892 -4.046,2.233 -1.184,0.23 -2.456,0.255 -3.815,0.074 -1.359,-0.181 -2.604,-0.564 -3.734,-1.149 l 1.135,-2.986 c 2.176,1.061 4.152,1.418 5.928,1.073 0.776,-0.151 1.354,-0.448 1.733,-0.893 0.379,-0.444 0.516,-0.942 0.409,-1.494 -0.159,-0.816 -1.384,-1.341 -3.674,-1.575 -0.176,-0.029 -0.306,-0.046 -0.392,-0.051 -3.567,-0.26 -5.559,-1.462 -5.976,-3.606 -0.294,-1.511 0.058,-2.834 1.055,-3.972 0.997,-1.136 2.435,-1.888 4.313,-2.252 1.877,-0.365 3.761,-0.159 5.649,0.618 l -0.792,2.792 c -1.498,-0.62 -3.022,-0.779 -4.573,-0.478 -0.816,0.159 -1.451,0.436 -1.904,0.831 -0.453,0.396 -0.622,0.889 -0.507,1.481 0.104,0.531 0.444,0.867 1.022,1.009 0.403,0.112 0.952,0.186 1.647,0.22 0.695,0.035 1.314,0.084 1.856,0.148 0.542,0.064 1.073,0.152 1.592,0.263 0.519,0.111 1.09,0.296 1.713,0.557 1.247,0.521 2.021,1.558 2.322,3.109 z" />
	</g>
	<g
   id="g183">
		<path
   style="fill:none"
   inkscape:connector-curvature="0"
   id="path185"
   d="M 368.594,317.593 C 306.426,281.691 285.126,202.177 321.019,139.994 356.912,77.811 436.405,56.505 498.573,92.406 c 62.168,35.901 83.468,115.416 47.575,177.599 -35.893,62.183 -115.386,83.49 -177.554,47.588 z" />
		<path
   inkscape:connector-curvature="0"
   id="path187"
   d="m 454.806,87.444 -3.564,-0.916 5.43,-21.123 5.559,1.429 2.964,14.905 9.785,-11.627 5.528,1.421 -5.43,21.123 -3.564,-0.917 4.24,-16.499 -11.139,12.761 -1.993,-0.513 -3.574,-16.543 -4.242,16.499 z" />
		<path
   inkscape:connector-curvature="0"
   id="path189"
   d="m 490.375,100.093 -2.878,-1.356 0.944,-2.004 c -1.942,0.901 -3.957,0.86 -6.045,-0.125 -1.562,-0.736 -2.646,-1.787 -3.255,-3.155 -0.609,-1.368 -0.564,-2.79 0.132,-4.267 0.696,-1.477 1.763,-2.325 3.199,-2.545 1.438,-0.22 3.087,0.11 4.949,0.987 l 4.091,1.929 0.267,-0.564 c 0.939,-1.994 0.3,-3.515 -1.92,-4.561 -1.392,-0.656 -3.08,-0.831 -5.063,-0.524 l -0.479,-2.641 c 2.507,-0.589 4.918,-0.338 7.232,0.752 1.768,0.833 3.001,1.961 3.699,3.382 0.697,1.421 0.595,3.092 -0.311,5.011 l -4.562,9.681 z m -0.526,-7.078 0.599,-1.27 -3.555,-1.676 c -2.276,-1.073 -3.752,-0.894 -4.426,0.536 -0.346,0.734 -0.327,1.427 0.056,2.079 0.382,0.652 1.076,1.214 2.083,1.689 1.006,0.474 2.019,0.606 3.037,0.396 1.018,-0.21 1.753,-0.794 2.206,-1.754 z" />
		<path
   inkscape:connector-curvature="0"
   id="path191"
   d="m 504.249,92.456 -4.46,7.147 c -0.419,0.671 -0.575,1.314 -0.47,1.932 0.104,0.617 0.475,1.124 1.11,1.521 0.635,0.396 1.436,0.468 2.403,0.213 l -0.087,2.851 c -1.625,0.286 -3.068,0.035 -4.329,-0.752 -1.262,-0.787 -2.065,-1.896 -2.411,-3.325 -0.346,-1.43 -0.056,-2.885 0.869,-4.368 l 4.41,-7.067 -1.772,-1.106 1.486,-2.382 1.773,1.106 2.759,-4.42 2.963,1.85 -2.758,4.42 3.704,2.312 -1.486,2.382 -3.704,-2.314 z" />
		<path
   inkscape:connector-curvature="0"
   id="path193"
   d="m 511.583,103.31 -5.685,6.959 -2.706,-2.21 14.628,-17.905 2.705,2.21 -6.04,7.394 c 1.031,-0.473 2.121,-0.617 3.271,-0.43 1.148,0.187 2.175,0.648 3.076,1.386 1.45,1.184 2.26,2.584 2.43,4.2 0.17,1.616 -0.43,3.262 -1.798,4.937 l -6.436,7.877 -2.705,-2.21 5.764,-7.056 c 1.935,-2.368 1.919,-4.354 -0.045,-5.959 -0.935,-0.763 -2.002,-1.117 -3.2,-1.063 -1.198,0.055 -2.285,0.678 -3.259,1.87 z" />
		<path
   inkscape:connector-curvature="0"
   id="path195"
   d="m 526.43,130.745 c -1.246,-1.613 -1.858,-3.333 -1.839,-5.162 0.021,-1.829 0.813,-3.347 2.377,-4.555 1.859,-1.437 4.557,-1.365 8.09,0.215 0.252,-1.272 0.521,-2.235 0.805,-2.888 0.284,-0.653 0.805,-1.271 1.563,-1.856 1.316,-1.017 2.704,-1.314 4.162,-0.89 1.458,0.424 2.695,1.294 3.712,2.611 1.018,1.317 1.544,2.696 1.581,4.14 0.036,1.443 -0.554,2.635 -1.771,3.576 -1.63,1.259 -4.187,1.131 -7.669,-0.383 -0.597,2.563 -1.005,4.586 -1.226,6.07 1.151,-0.075 2.337,-0.36 3.558,-0.855 l 0.132,3.13 c -1.467,0.449 -2.838,0.733 -4.113,0.851 -0.167,1.18 -0.333,2.648 -0.5,4.406 l -3.158,-0.516 0.493,-4.007 c -2.454,-0.42 -4.52,-1.715 -6.197,-3.887 z m 1.44,-4.542 c 0.014,0.988 0.421,2 1.222,3.037 0.801,1.037 2.13,1.771 3.987,2.202 0.461,-3.01 0.909,-5.458 1.345,-7.345 -2.441,-1.084 -4.262,-1.162 -5.464,-0.234 -0.74,0.573 -1.105,1.352 -1.09,2.34 z m 15.222,-6.298 c -0.426,-0.551 -0.98,-0.912 -1.662,-1.081 -0.683,-0.169 -1.255,-0.075 -1.716,0.28 -0.461,0.356 -0.791,0.788 -0.989,1.296 -0.199,0.508 -0.418,1.289 -0.657,2.34 2.358,1.147 3.933,1.416 4.723,0.806 0.658,-0.508 0.98,-1.105 0.965,-1.789 -0.018,-0.683 -0.238,-1.301 -0.664,-1.852 z" />
		<path
   inkscape:connector-curvature="0"
   id="path197"
   d="m 558.75,146.813 c -0.449,-0.972 -1.016,-1.678 -1.7,-2.118 -0.684,-0.439 -1.428,-0.474 -2.23,-0.104 -0.802,0.37 -1.271,0.966 -1.409,1.785 -0.137,0.819 0.018,2.356 0.464,4.613 0.446,2.257 0.464,4.104 0.052,5.543 -0.413,1.438 -1.482,2.557 -3.211,3.355 -1.728,0.798 -3.431,0.794 -5.108,-0.011 -1.679,-0.806 -3.006,-2.266 -3.982,-4.38 -1.43,-3.097 -1.632,-6.336 -0.605,-9.719 l 3.489,0.931 c -0.813,2.804 -0.723,5.282 0.271,7.434 0.497,1.076 1.122,1.824 1.878,2.243 0.754,0.418 1.515,0.451 2.279,0.098 0.765,-0.354 1.222,-0.925 1.372,-1.716 0.15,-0.791 0.064,-1.994 -0.258,-3.609 -0.322,-1.615 -0.512,-2.868 -0.567,-3.758 -0.055,-0.89 0.017,-1.737 0.219,-2.541 0.347,-1.581 1.437,-2.793 3.269,-3.64 1.831,-0.846 3.55,-0.833 5.156,0.041 1.606,0.874 2.862,2.291 3.77,4.255 0.584,1.265 0.956,2.616 1.116,4.054 0.16,1.438 0.071,2.784 -0.265,4.039 l -3.345,-0.62 c 0.258,-0.829 0.326,-1.823 0.204,-2.98 -0.125,-1.157 -0.41,-2.222 -0.859,-3.195 z" />
		<path
   inkscape:connector-curvature="0"
   id="path199"
   d="m 560.175,164.64 -8.021,2.574 c -0.753,0.242 -1.288,0.631 -1.606,1.171 -0.319,0.539 -0.363,1.165 -0.135,1.877 0.229,0.713 0.794,1.285 1.697,1.716 l -1.908,2.12 c -1.426,-0.832 -2.364,-1.956 -2.819,-3.371 -0.454,-1.416 -0.352,-2.781 0.309,-4.096 0.659,-1.314 1.821,-2.239 3.484,-2.772 l 7.933,-2.546 -0.639,-1.99 2.674,-0.858 0.639,1.99 4.961,-1.592 1.067,3.327 -4.961,1.592 1.334,4.158 -2.674,0.858 -1.335,-4.158 z" />
		<path
   inkscape:connector-curvature="0"
   id="path201"
   d="m 551.802,189.158 -0.604,-3.124 2.175,-0.42 c -1.873,-1.036 -3.029,-2.688 -3.467,-4.954 -0.327,-1.695 -0.118,-3.191 0.627,-4.489 0.744,-1.299 1.919,-2.102 3.522,-2.412 1.603,-0.31 2.917,0.05 3.942,1.081 1.025,1.03 1.733,2.557 2.123,4.578 l 0.857,4.441 0.613,-0.118 c 2.164,-0.418 3.015,-1.832 2.549,-4.241 -0.291,-1.511 -1.146,-2.977 -2.564,-4.397 l 1.849,-1.945 c 1.955,1.676 3.175,3.771 3.66,6.282 0.37,1.919 0.188,3.58 -0.548,4.982 -0.735,1.402 -2.145,2.304 -4.228,2.707 l -10.506,2.029 z m 5.403,-4.602 1.378,-0.266 -0.745,-3.859 c -0.477,-2.471 -1.491,-3.556 -3.044,-3.256 -0.796,0.154 -1.345,0.577 -1.645,1.271 -0.301,0.693 -0.346,1.586 -0.135,2.679 0.211,1.093 0.702,1.988 1.473,2.686 0.77,0.697 1.676,0.946 2.718,0.745 z" />
		<path
   inkscape:connector-curvature="0"
   id="path203"
   d="m 566.147,195.86 -8.402,0.606 c -0.789,0.057 -1.401,0.309 -1.838,0.758 -0.438,0.448 -0.629,1.046 -0.575,1.792 0.055,0.747 0.469,1.436 1.244,2.068 l -2.354,1.608 c -1.188,-1.145 -1.836,-2.458 -1.942,-3.941 -0.107,-1.483 0.314,-2.786 1.267,-3.907 0.951,-1.122 2.298,-1.746 4.041,-1.871 l 8.309,-0.6 -0.15,-2.084 2.801,-0.202 0.15,2.084 5.197,-0.375 0.252,3.484 -5.197,0.375 0.314,4.355 -2.801,0.202 -0.316,-4.352 z" />
		<path
   inkscape:connector-curvature="0"
   id="path205"
   d="m 552.652,208.156 0.038,-3.494 16.598,0.18 -0.037,3.494 -16.599,-0.18 z m 19.941,-3.059 c 0.442,-0.432 0.964,-0.645 1.567,-0.638 0.604,0.006 1.121,0.23 1.553,0.672 0.433,0.441 0.646,0.963 0.639,1.566 -0.007,0.603 -0.23,1.121 -0.672,1.553 -0.441,0.432 -0.965,0.645 -1.567,0.638 -0.604,-0.007 -1.121,-0.23 -1.553,-0.672 -0.433,-0.441 -0.645,-0.964 -0.639,-1.567 0.007,-0.604 0.23,-1.121 0.672,-1.552 z" />
		<path
   inkscape:connector-curvature="0"
   id="path207"
   d="m 556.29,224.465 c -1.572,-0.165 -2.77,-0.866 -3.591,-2.103 -0.822,-1.236 -1.14,-2.744 -0.952,-4.522 0.126,-1.2 0.474,-2.423 1.044,-3.669 0.57,-1.247 1.301,-2.326 2.191,-3.236 l 2.523,1.959 c -1.65,1.771 -2.57,3.557 -2.759,5.356 -0.083,0.786 0.033,1.425 0.348,1.918 0.313,0.493 0.75,0.769 1.309,0.827 0.827,0.087 1.688,-0.931 2.58,-3.053 0.079,-0.16 0.134,-0.279 0.163,-0.359 1.292,-3.335 3.023,-4.889 5.195,-4.661 1.531,0.161 2.694,0.884 3.49,2.17 0.795,1.286 1.093,2.88 0.894,4.783 -0.2,1.902 -0.948,3.643 -2.243,5.222 l -2.438,-1.574 c 1.03,-1.251 1.629,-2.662 1.794,-4.234 0.087,-0.827 0.007,-1.516 -0.238,-2.063 -0.246,-0.549 -0.669,-0.854 -1.269,-0.917 -0.538,-0.057 -0.959,0.171 -1.264,0.683 -0.226,0.353 -0.456,0.856 -0.692,1.511 -0.236,0.654 -0.464,1.232 -0.684,1.731 -0.22,0.499 -0.459,0.981 -0.717,1.446 -0.258,0.464 -0.603,0.956 -1.033,1.475 -0.862,1.038 -2.079,1.475 -3.651,1.31 z" />
		<path
   inkscape:connector-curvature="0"
   id="path209"
   d="m 563.323,233.818 -8.229,-1.809 c -0.772,-0.17 -1.431,-0.102 -1.978,0.204 -0.546,0.306 -0.899,0.824 -1.061,1.555 -0.16,0.731 0.04,1.51 0.604,2.336 l -2.716,0.873 c -0.813,-1.436 -1.06,-2.879 -0.74,-4.331 0.318,-1.452 1.094,-2.581 2.325,-3.385 1.231,-0.805 2.7,-1.019 4.406,-0.644 l 8.137,1.789 0.448,-2.041 2.743,0.603 -0.449,2.041 5.089,1.119 -0.75,3.412 -5.089,-1.119 -0.938,4.265 -2.743,-0.603 0.941,-4.265 z" />
		<path
   inkscape:connector-curvature="0"
   id="path211"
   d="m 546.882,241.77 1.032,-3.338 15.858,4.905 -1.032,3.338 -15.858,-4.905 z m 19.985,2.753 c 0.547,-0.288 1.107,-0.343 1.684,-0.165 0.577,0.178 1.009,0.541 1.297,1.087 0.289,0.546 0.344,1.107 0.165,1.684 -0.178,0.576 -0.54,1.008 -1.087,1.296 -0.546,0.288 -1.107,0.343 -1.684,0.165 -0.577,-0.178 -1.009,-0.541 -1.297,-1.087 -0.288,-0.546 -0.343,-1.107 -0.165,-1.684 0.179,-0.576 0.541,-1.007 1.087,-1.296 z" />
		<path
   inkscape:connector-curvature="0"
   id="path213"
   d="m 542.644,252.224 c 0.903,-2.124 2.403,-3.645 4.5,-4.561 2.097,-0.917 4.312,-0.877 6.647,0.116 2.335,0.994 3.896,2.601 4.68,4.821 0.785,2.22 0.688,4.479 -0.288,6.775 -0.976,2.296 -2.598,3.9 -4.861,4.813 l -1.521,-2.884 c 1.71,-0.832 2.851,-1.918 3.42,-3.257 0.57,-1.339 0.619,-2.691 0.148,-4.055 -0.471,-1.364 -1.409,-2.345 -2.816,-2.944 -1.407,-0.599 -2.806,-0.617 -4.197,-0.057 -1.391,0.56 -2.391,1.554 -2.997,2.979 -0.606,1.425 -0.527,3.047 0.237,4.863 l -2.873,1.015 c -1.087,-2.652 -1.113,-5.194 -0.079,-7.624 z" />
		<path
   inkscape:connector-curvature="0"
   id="path215"
   d="m 537.322,273.195 c -1.356,-0.812 -2.146,-1.953 -2.371,-3.419 -0.224,-1.468 0.124,-2.969 1.043,-4.503 0.619,-1.035 1.451,-1.998 2.493,-2.888 1.043,-0.891 2.159,-1.561 3.351,-2.011 l 1.463,2.84 c -2.243,0.911 -3.829,2.142 -4.759,3.694 -0.406,0.678 -0.57,1.306 -0.493,1.886 0.077,0.579 0.356,1.014 0.838,1.302 0.714,0.427 1.923,-0.134 3.627,-1.682 0.139,-0.111 0.238,-0.197 0.299,-0.257 2.577,-2.48 4.804,-3.159 6.677,-2.037 1.32,0.791 2.07,1.937 2.25,3.438 0.18,1.501 -0.223,3.072 -1.205,4.714 -0.984,1.641 -2.395,2.905 -4.235,3.791 l -1.548,-2.455 c 1.461,-0.701 2.6,-1.729 3.41,-3.084 0.428,-0.713 0.646,-1.371 0.654,-1.972 0.008,-0.601 -0.246,-1.057 -0.764,-1.366 -0.463,-0.278 -0.941,-0.25 -1.434,0.086 -0.354,0.225 -0.774,0.584 -1.265,1.079 -0.49,0.494 -0.94,0.921 -1.35,1.282 -0.41,0.36 -0.83,0.696 -1.26,1.009 -0.43,0.312 -0.949,0.613 -1.559,0.902 -1.218,0.581 -2.506,0.464 -3.862,-0.349 z" />
	</g>
	<g
   id="g217">
		<path
   style="fill:none"
   inkscape:connector-curvature="0"
   id="path219"
   d="m 256.011,512.593 c -62.168,-35.902 -83.468,-115.416 -47.575,-177.599 35.893,-62.183 115.386,-83.489 177.554,-47.588 62.168,35.901 83.468,115.416 47.575,177.599 -35.893,62.183 -115.387,83.49 -177.554,47.588 z" />
		<path
   inkscape:connector-curvature="0"
   id="path221"
   d="m 230.076,481.645 c -0.185,2.828 -1.604,5.297 -4.26,7.404 -2.655,2.108 -5.391,2.979 -8.205,2.612 -2.815,-0.367 -5.528,-2.196 -8.141,-5.485 l -4.5,-5.668 17.08,-13.562 4.655,5.862 c 2.432,3.062 3.555,6.007 3.371,8.837 z m -6.641,4.555 c 3.91,-3.104 4.086,-6.896 0.53,-11.374 l -2.289,-2.883 -11.704,9.294 2.541,3.2 c 1.642,2.067 3.392,3.261 5.251,3.577 1.858,0.318 3.749,-0.287 5.671,-1.814 z" />
		<path
   inkscape:connector-curvature="0"
   id="path223"
   d="m 233.474,507.767 c -2.342,0.131 -4.446,-0.632 -6.312,-2.289 -1.866,-1.657 -2.871,-3.657 -3.017,-5.998 -0.146,-2.342 0.576,-4.406 2.165,-6.194 1.588,-1.788 3.554,-2.748 5.896,-2.88 2.342,-0.131 4.446,0.632 6.311,2.289 1.866,1.657 2.871,3.656 3.017,5.998 0.146,2.341 -0.576,4.406 -2.165,6.194 -1.588,1.788 -3.554,2.748 -5.895,2.88 z m -6.045,-8.25 c 0.068,1.411 0.67,2.62 1.805,3.628 1.135,1.008 2.406,1.464 3.815,1.365 1.408,-0.099 2.645,-0.746 3.708,-1.943 1.063,-1.197 1.561,-2.501 1.493,-3.911 -0.068,-1.411 -0.67,-2.62 -1.805,-3.628 -1.135,-1.009 -2.407,-1.464 -3.815,-1.365 -1.409,0.099 -2.645,0.746 -3.708,1.943 -1.064,1.197 -1.561,2.501 -1.493,3.911 z" />
		<path
   inkscape:connector-curvature="0"
   id="path225"
   d="m 246.192,508.953 -4.619,7.708 -2.997,-1.796 8.533,-14.237 2.997,1.796 -1.556,2.596 c 0.952,-0.617 2.01,-0.917 3.175,-0.898 1.164,0.02 2.246,0.328 3.245,0.927 2.248,1.347 3.216,3.188 2.907,5.525 2.521,-1.012 4.834,-0.887 6.939,0.375 1.605,0.962 2.608,2.231 3.011,3.806 0.402,1.574 0.046,3.289 -1.065,5.145 l -5.229,8.725 -2.997,-1.796 4.684,-7.814 c 1.572,-2.623 1.27,-4.586 -0.906,-5.891 -1.017,-0.609 -2.1,-0.815 -3.248,-0.618 -1.148,0.197 -2.115,0.909 -2.898,2.137 l -4.748,7.922 -2.997,-1.796 4.684,-7.815 c 0.813,-1.355 1.168,-2.494 1.066,-3.417 -0.102,-0.922 -0.67,-1.693 -1.705,-2.313 -1.035,-0.62 -2.142,-0.816 -3.32,-0.59 -1.18,0.225 -2.165,1 -2.956,2.319 z" />
		<path
   inkscape:connector-curvature="0"
   id="path227"
   d="m 281.052,535.337 -3.003,-1.051 0.731,-2.091 c -1.838,1.099 -3.847,1.266 -6.025,0.504 -1.629,-0.57 -2.817,-1.503 -3.564,-2.801 -0.748,-1.297 -0.851,-2.716 -0.312,-4.258 0.539,-1.541 1.512,-2.495 2.918,-2.862 1.406,-0.368 3.081,-0.212 5.024,0.468 l 4.269,1.494 0.206,-0.589 c 0.728,-2.081 -0.066,-3.527 -2.382,-4.338 -1.453,-0.508 -3.15,-0.507 -5.091,0.005 l -0.751,-2.577 c 2.433,-0.846 4.856,-0.846 7.271,-0.002 1.845,0.646 3.188,1.64 4.03,2.98 0.841,1.341 0.913,3.013 0.212,5.016 l -3.533,10.102 z m -1.258,-6.984 0.463,-1.325 -3.71,-1.298 c -2.375,-0.831 -3.824,-0.5 -4.345,0.991 -0.268,0.766 -0.178,1.453 0.27,2.062 0.448,0.609 1.197,1.097 2.248,1.464 1.05,0.367 2.07,0.394 3.062,0.08 0.991,-0.315 1.662,-0.973 2.012,-1.974 z" />
		<path
   inkscape:connector-curvature="0"
   id="path229"
   d="m 290.278,537.571 -3.4,-0.806 3.826,-16.151 3.4,0.805 -3.826,16.152 z m 1.401,-20.125 c -0.325,-0.526 -0.417,-1.082 -0.278,-1.669 0.139,-0.587 0.471,-1.043 0.997,-1.367 0.526,-0.325 1.082,-0.418 1.669,-0.278 0.586,0.139 1.042,0.472 1.367,0.997 0.325,0.525 0.417,1.082 0.278,1.669 -0.139,0.587 -0.472,1.043 -0.997,1.367 -0.526,0.324 -1.082,0.417 -1.669,0.278 -0.588,-0.139 -1.043,-0.471 -1.367,-0.997 z" />
		<path
   inkscape:connector-curvature="0"
   id="path231"
   d="m 300.971,530.499 -1.086,8.92 -3.468,-0.422 2.006,-16.478 3.468,0.423 -0.366,3.004 c 0.681,-0.943 1.546,-1.646 2.598,-2.104 1.05,-0.459 2.144,-0.619 3.279,-0.481 1.858,0.227 3.291,0.978 4.298,2.253 1.007,1.274 1.38,2.986 1.119,5.134 l -1.229,10.097 -3.468,-0.423 1.102,-9.044 c 0.37,-3.035 -0.705,-4.706 -3.223,-5.013 -1.197,-0.146 -2.289,0.125 -3.272,0.812 -0.987,0.687 -1.572,1.795 -1.758,3.322 z" />
		<path
   inkscape:connector-curvature="0"
   id="path233"
   d="m 340.991,517.701 0.349,3.445 -11.575,1.173 0.582,5.743 10.396,-1.054 0.331,3.26 -10.396,1.053 0.588,5.805 11.948,-1.21 0.349,3.445 -15.61,1.582 -2.198,-21.699 15.236,-1.543 z" />
		<path
   inkscape:connector-curvature="0"
   id="path235"
   d="m 347.763,521.453 4.776,4.432 2.243,-6.19 4.024,-1.009 -3.656,9.279 7.933,6.762 -4.176,1.046 -5.185,-4.394 -2.41,6.297 -3.964,0.993 3.664,-9.635 -7.396,-6.543 4.147,-1.038 z" />
		<path
   inkscape:connector-curvature="0"
   id="path237"
   d="m 369.38,514.253 c 2.056,-0.852 4.108,-0.868 6.157,-0.05 2.049,0.818 3.563,2.408 4.542,4.772 0.979,2.364 1.048,4.586 0.21,6.666 -0.838,2.081 -2.223,3.521 -4.153,4.32 -1.932,0.799 -4.016,0.671 -6.253,-0.384 l 3.27,7.898 -3.228,1.337 -8.663,-20.931 3.228,-1.336 1.11,2.682 c 0.464,-2.464 1.724,-4.123 3.78,-4.974 z m -1.762,10.016 c 0.604,1.461 1.541,2.474 2.812,3.04 1.27,0.566 2.538,0.587 3.807,0.063 1.268,-0.525 2.182,-1.443 2.741,-2.756 0.559,-1.313 0.535,-2.704 -0.073,-4.174 -0.608,-1.471 -1.574,-2.5 -2.898,-3.089 -1.324,-0.589 -2.63,-0.616 -3.917,-0.084 -1.288,0.533 -2.173,1.468 -2.654,2.804 -0.484,1.336 -0.422,2.735 0.182,4.196 z" />
		<path
   inkscape:connector-curvature="0"
   id="path239"
   d="m 397.971,510.207 -11.109,6.766 c 0.698,0.987 1.675,1.531 2.93,1.632 1.254,0.101 2.44,-0.19 3.56,-0.871 1.775,-1.082 2.785,-2.464 3.027,-4.146 l 2.841,0.827 c -0.564,2.512 -2.072,4.513 -4.523,6.006 -1.989,1.212 -4.084,1.58 -6.284,1.105 -2.2,-0.474 -3.979,-1.826 -5.337,-4.056 -1.358,-2.23 -1.727,-4.434 -1.106,-6.614 0.62,-2.18 1.894,-3.856 3.82,-5.03 1.928,-1.174 3.92,-1.59 5.979,-1.248 2.059,0.342 3.71,1.534 4.954,3.576 l 1.248,2.053 z m -12.537,4.421 8.125,-4.949 c -0.725,-1.189 -1.655,-1.878 -2.791,-2.063 -1.135,-0.185 -2.249,0.055 -3.341,0.721 -1.093,0.665 -1.871,1.596 -2.336,2.792 -0.464,1.195 -0.35,2.362 0.343,3.499 z" />
		<path
   inkscape:connector-curvature="0"
   id="path241"
   d="m 404.145,496.944 c -1.354,1.071 -2.024,2.318 -2.013,3.741 0.011,1.423 0.605,2.876 1.78,4.36 l 4.414,5.579 -2.739,2.168 -10.301,-13.018 2.74,-2.168 2.071,2.618 c -0.205,-1.163 -0.135,-2.307 0.21,-3.429 0.346,-1.122 0.936,-2.026 1.771,-2.714 l 2.213,2.745 c -0.049,0.041 -0.098,0.079 -0.146,0.118 z" />
		<path
   inkscape:connector-curvature="0"
   id="path243"
   d="m 409.471,491.314 5.852,6.06 c 0.549,0.569 1.136,0.878 1.76,0.925 0.624,0.049 1.206,-0.188 1.744,-0.708 0.539,-0.521 0.802,-1.28 0.79,-2.28 l 2.744,0.776 c -0.117,1.646 -0.71,2.984 -1.779,4.018 -1.07,1.032 -2.34,1.543 -3.811,1.532 -1.471,-0.012 -2.813,-0.646 -4.026,-1.902 l -5.787,-5.993 -1.503,1.451 -1.951,-2.02 1.504,-1.452 -3.619,-3.748 2.513,-2.427 3.619,3.748 3.142,-3.033 1.951,2.021 -3.143,3.032 z" />
		<path
   inkscape:connector-curvature="0"
   id="path245"
   d="m 410.904,481.024 c -0.616,0.041 -1.151,-0.138 -1.604,-0.535 -0.454,-0.397 -0.701,-0.904 -0.742,-1.521 -0.041,-0.617 0.138,-1.151 0.535,-1.605 0.397,-0.453 0.904,-0.7 1.521,-0.741 0.616,-0.04 1.151,0.138 1.605,0.535 0.453,0.398 0.7,0.904 0.741,1.521 0.041,0.616 -0.138,1.151 -0.535,1.604 -0.398,0.455 -0.904,0.701 -1.521,0.742 z m 17.132,10.655 -2.303,2.628 -12.485,-10.938 2.303,-2.628 12.485,10.938 z" />
		<path
   inkscape:connector-curvature="0"
   id="path247"
   d="m 434.862,474.533 c 1.281,0.926 1.971,2.13 2.068,3.611 0.097,1.481 -0.378,2.946 -1.425,4.396 -0.707,0.978 -1.617,1.865 -2.732,2.663 -1.115,0.798 -2.285,1.369 -3.511,1.716 l -1.214,-2.955 c 2.313,-0.715 3.999,-1.806 5.059,-3.272 0.463,-0.641 0.681,-1.253 0.653,-1.837 -0.027,-0.583 -0.269,-1.04 -0.724,-1.369 -0.674,-0.487 -1.927,-0.032 -3.757,1.364 -0.148,0.099 -0.255,0.176 -0.32,0.23 -2.781,2.25 -5.056,2.735 -6.826,1.456 -1.248,-0.901 -1.896,-2.107 -1.947,-3.619 -0.05,-1.511 0.485,-3.042 1.606,-4.593 1.12,-1.551 2.635,-2.688 4.544,-3.413 l 1.332,2.579 c -1.517,0.572 -2.738,1.498 -3.663,2.779 -0.487,0.674 -0.761,1.311 -0.821,1.908 -0.06,0.599 0.155,1.074 0.644,1.427 0.438,0.317 0.917,0.329 1.437,0.037 0.37,-0.193 0.821,-0.516 1.353,-0.966 0.53,-0.45 1.016,-0.838 1.455,-1.162 0.438,-0.323 0.886,-0.622 1.341,-0.897 0.455,-0.273 0.998,-0.529 1.631,-0.765 1.264,-0.47 2.537,-0.243 3.817,0.682 z" />
		<path
   inkscape:connector-curvature="0"
   id="path249"
   d="m 443.135,456.052 -6.151,11.461 c 1.103,0.498 2.22,0.472 3.353,-0.077 1.133,-0.548 2.009,-1.399 2.628,-2.554 0.983,-1.832 1.153,-3.535 0.511,-5.107 l 2.868,-0.727 c 0.785,2.452 0.5,4.941 -0.857,7.47 -1.102,2.053 -2.721,3.432 -4.858,4.137 -2.138,0.706 -4.356,0.44 -6.656,-0.794 -2.3,-1.234 -3.734,-2.948 -4.305,-5.143 -0.569,-2.193 -0.32,-4.284 0.747,-6.272 1.066,-1.988 2.574,-3.355 4.521,-4.104 1.948,-0.748 3.977,-0.557 6.084,0.575 l 2.115,1.135 z m -8.571,10.162 4.499,-8.383 c -1.228,-0.658 -2.378,-0.78 -3.451,-0.365 -1.072,0.416 -1.911,1.187 -2.516,2.313 -0.605,1.127 -0.806,2.324 -0.6,3.591 0.206,1.267 0.896,2.215 2.068,2.844 z" />
	</g>
	<g
   id="g251">
	</g>
	<g
   id="g253">
	</g>
	<g
   id="g255">
	</g>
	<g
   id="g257">
	</g>
	<g
   id="g259">
	</g>
	<g
   id="g261">
	</g>
	<g
   id="g263">
	</g>
	<g
   id="g265">
	</g>
	<g
   id="g267">
	</g>
	<g
   id="g269">
	</g>
	<g
   id="g271">
	</g>
	<g
   id="g273">
	</g>
	<g
   id="g275">
	</g>
	<g
   id="g277">
	</g>
	<g
   id="g279">
	</g>
</g></g>
</svg>