<?xml version="1.0" encoding="utf-8"?>
<!-- Generator: Adobe Illustrator 17.0.0, SVG Export Plug-In . SVG Version: 6.00 Build 0)  -->
<svg version="1.2" baseProfile="tiny" xmlns="http://www.w3.org/2000/svg" xmlns:xlink="http://www.w3.org/1999/xlink" x="0px"
	 y="0px" width="642px" height="600px" viewBox="0 0 642 600" xml:space="preserve">
<g id="Layer_3" display="none">
	<circle display="inline" fill="#29ABE2" cx="321" cy="400" r="200"/>
	<circle display="inline" fill="#8DD8D8" cx="433.583" cy="205" r="200"/>
	<circle display="inline" fill="#E0E2E2" cx="208.417" cy="205" r="200"/>
</g>
<g id="Layer_6">
	<path fill="#29ABE2" d="M321,370.355c-57.599,39.156-133.598,46.636-199.451,14.798C121.189,390.056,121,395.006,121,400
		c0,110.457,89.543,200,200,200s200-89.543,200-200c0-4.994-0.189-9.944-0.549-14.847C454.598,416.991,378.599,409.511,321,370.355z
		"/>
	<path fill="#8DD8D8" d="M606.788,105C551.56,9.341,429.242-23.434,333.583,31.795c-4.325,2.497-8.518,5.136-12.583,7.899
		c60.499,41.111,92.021,110.669,86.91,180.129c62.71,30.304,107.187,92.381,112.541,165.331c4.426-2.14,8.807-4.451,13.132-6.948
		C629.242,322.977,662.017,200.659,606.788,105z"/>
	<path fill="#51C6ED" d="M407.91,219.822c-2.142,29.111-10.715,58.204-26.288,85.178S345.14,353.945,321,370.355
		c57.599,39.156,133.598,46.636,199.451,14.798C515.097,312.204,470.62,250.127,407.91,219.822z"/>
	<path fill="#E0E2E2" d="M234.09,219.822c-5.111-69.46,26.411-139.018,86.91-180.129c-4.066-2.763-8.258-5.402-12.583-7.899
		C212.758-23.434,90.44,9.341,35.212,105s-22.453,217.977,73.205,273.205c4.325,2.497,8.707,4.808,13.132,6.948
		C126.903,312.204,171.38,250.127,234.09,219.822z"/>
	<path fill="#6AC9EE" d="M321,370.355c-24.14-16.41-45.049-38.382-60.622-65.355s-24.146-56.067-26.288-85.178
		c-62.71,30.304-107.187,92.381-112.541,165.331C187.402,416.991,263.401,409.511,321,370.355z"/>
	<path fill="#B8E6E6" d="M234.09,219.822C260.372,207.122,289.854,200,321,200s60.628,7.122,86.91,19.822
		c5.111-69.46-26.411-139.018-86.91-180.129C260.501,80.805,228.979,150.362,234.09,219.822z"/>
	<path fill="#73DAF4" d="M234.09,219.822c2.142,29.111,10.715,58.204,26.288,85.178S296.86,353.945,321,370.355
		c24.14-16.41,45.049-38.382,60.622-65.355s24.146-56.067,26.288-85.178C381.628,207.122,352.146,200,321,200
		S260.372,207.122,234.09,219.822z"/>
	<g>
	</g>
</g>
<g id="Layer_4">
	<path fill="none" stroke="#FE2E92" stroke-width="5" stroke-miterlimit="10" d="M381.622,305
		c15.573-26.973,24.146-56.067,26.288-85.178C381.628,207.122,352.146,200,321,200s-60.628,7.122-86.91,19.822
		c2.142,29.111,10.715,58.204,26.288,85.178S296.86,353.945,321,370.355C345.14,353.945,366.049,331.973,381.622,305z"/>
</g>
<g id="Layer_1">
	<g>
		<path d="M304.841,238.165c1.883,1.723,2.825,4.12,2.825,7.189c0,3.07-0.918,5.5-2.754,7.289c-1.836,1.789-4.638,2.684-8.404,2.684
			h-6.752V235.58h6.978C300.254,235.58,302.957,236.441,304.841,238.165z M301.606,249.902c1.083-1.017,1.625-2.495,1.625-4.435
			s-0.542-3.433-1.625-4.478c-1.083-1.045-2.745-1.568-4.986-1.568h-2.458v12.007h2.797
			C298.974,251.428,300.522,250.919,301.606,249.902z"/>
		<path d="M323.769,255.327h-3.983v-1.836c-1.092,1.375-2.443,2.063-4.054,2.063s-2.962-0.466-4.054-1.398
			c-1.093-0.932-1.639-2.175-1.639-3.729s0.565-2.717,1.695-3.489c1.13-0.772,2.674-1.158,4.633-1.158h3.164v-0.084
			c0-1.62-0.857-2.43-2.571-2.43c-0.734,0-1.511,0.146-2.331,0.438s-1.512,0.654-2.077,1.087l-1.893-2.74
			c1.996-1.45,4.275-2.175,6.836-2.175c1.846,0,3.353,0.462,4.521,1.384c1.167,0.923,1.751,2.383,1.751,4.379V255.327z
			 M319.503,249.535v-0.734h-2.655c-1.695,0-2.543,0.527-2.543,1.582c0,0.546,0.203,0.965,0.607,1.257s0.984,0.438,1.738,0.438
			c0.752,0,1.417-0.23,1.992-0.692C319.216,250.924,319.503,250.308,319.503,249.535z"/>
		<path d="M332.525,243.179v6.809c0,0.584,0.15,1.041,0.452,1.37c0.301,0.33,0.659,0.495,1.073,0.495
			c0.791,0,1.46-0.358,2.006-1.074l1.582,2.966c-1.318,1.206-2.707,1.808-4.167,1.808s-2.693-0.48-3.7-1.441
			c-1.008-0.96-1.512-2.269-1.512-3.927v-7.006h-1.78v-3.051h1.78v-4.548h4.266v4.548h3.673v3.051H332.525z"/>
		<path d="M352.809,255.327h-3.983v-1.836c-1.092,1.375-2.443,2.063-4.054,2.063s-2.962-0.466-4.054-1.398
			c-1.093-0.932-1.639-2.175-1.639-3.729s0.565-2.717,1.695-3.489c1.13-0.772,2.674-1.158,4.633-1.158h3.164v-0.084
			c0-1.62-0.857-2.43-2.57-2.43c-0.735,0-1.512,0.146-2.331,0.438s-1.512,0.654-2.076,1.087l-1.894-2.74
			c1.996-1.45,4.275-2.175,6.837-2.175c1.846,0,3.353,0.462,4.521,1.384c1.167,0.923,1.751,2.383,1.751,4.379V255.327z
			 M348.543,249.535v-0.734h-2.655c-1.695,0-2.543,0.527-2.543,1.582c0,0.546,0.202,0.965,0.607,1.257s0.984,0.438,1.737,0.438
			s1.417-0.23,1.992-0.692C348.256,250.924,348.543,250.308,348.543,249.535z"/>
		<path d="M271.986,273.421c-0.423,0.349-0.635,0.81-0.635,1.384c0,0.575,0.258,1.031,0.777,1.37
			c0.518,0.339,1.713,0.739,3.588,1.201c1.874,0.461,3.329,1.154,4.365,2.076c1.035,0.923,1.554,2.27,1.554,4.04
			c0,1.771-0.664,3.207-1.992,4.308c-1.328,1.102-3.075,1.653-5.241,1.653c-3.126,0-5.942-1.158-8.447-3.475l2.627-3.22
			c2.128,1.864,4.096,2.797,5.904,2.797c0.81,0,1.445-0.174,1.907-0.523c0.461-0.348,0.692-0.819,0.692-1.413
			s-0.245-1.063-0.735-1.413c-0.49-0.348-1.459-0.701-2.91-1.059c-2.298-0.546-3.979-1.257-5.042-2.133
			c-1.064-0.876-1.596-2.25-1.596-4.125c0-1.874,0.673-3.319,2.02-4.336s3.027-1.525,5.043-1.525c1.318,0,2.637,0.226,3.955,0.678
			c1.318,0.452,2.467,1.092,3.447,1.921l-2.232,3.221c-1.714-1.3-3.485-1.95-5.311-1.95
			C272.989,272.898,272.41,273.073,271.986,273.421z"/>
		<path d="M292.255,285.696c1.413,0,2.684-0.707,3.814-2.119l2.514,2.825c-1.959,2.034-4.078,3.051-6.356,3.051
			s-4.205-0.721-5.777-2.161c-1.573-1.441-2.359-3.324-2.359-5.65c0-2.326,0.795-4.218,2.387-5.678
			c1.591-1.459,3.479-2.189,5.665-2.189c1.092,0,2.199,0.226,3.319,0.678c1.12,0.452,2.104,1.121,2.952,2.005l-2.204,2.882
			c-0.49-0.583-1.087-1.036-1.794-1.356c-0.706-0.32-1.408-0.48-2.104-0.48c-1.112,0-2.067,0.363-2.868,1.088
			c-0.801,0.725-1.201,1.733-1.201,3.022c0,1.291,0.4,2.293,1.201,3.009C290.245,285.339,291.182,285.696,292.255,285.696z"/>
		<path d="M301.761,272.093c-0.48-0.48-0.72-1.068-0.72-1.766c0-0.696,0.24-1.285,0.72-1.766c0.48-0.48,1.069-0.72,1.766-0.72
			s1.286,0.24,1.766,0.72c0.48,0.48,0.721,1.069,0.721,1.766c0,0.697-0.24,1.286-0.721,1.766c-0.48,0.48-1.069,0.721-1.766,0.721
			S302.242,272.574,301.761,272.093z M305.646,289.228h-4.237v-15.199h4.237V289.228z"/>
		<path d="M322.822,287.024c-1.714,1.62-3.725,2.43-6.032,2.43s-4.214-0.711-5.721-2.133c-1.507-1.422-2.26-3.329-2.26-5.721
			c0-2.391,0.767-4.294,2.303-5.707c1.535-1.413,3.348-2.119,5.438-2.119s3.866,0.631,5.326,1.893
			c1.459,1.262,2.189,2.995,2.189,5.198v2.26h-11.075c0.131,0.829,0.565,1.507,1.299,2.034c0.735,0.527,1.563,0.791,2.486,0.791
			c1.487,0,2.712-0.499,3.673-1.498L322.822,287.024z M318.754,278.012c-0.584-0.49-1.295-0.735-2.133-0.735
			c-0.838,0-1.606,0.254-2.303,0.763c-0.697,0.509-1.102,1.196-1.215,2.063h6.667C319.677,279.199,319.338,278.502,318.754,278.012z
			"/>
		<path d="M331.354,280.752v8.475h-4.237v-15.199h4.237v1.695c1.281-1.299,2.722-1.949,4.322-1.949s2.942,0.565,4.026,1.695
			c1.082,1.13,1.624,2.637,1.624,4.521v9.238h-4.237v-8.588c0-2.335-0.857-3.503-2.571-3.503c-0.848,0-1.587,0.306-2.218,0.918
			C331.669,278.667,331.354,279.566,331.354,280.752z"/>
		<path d="M352.457,285.696c1.412,0,2.684-0.707,3.813-2.119l2.515,2.825c-1.959,2.034-4.078,3.051-6.356,3.051
			c-2.279,0-4.205-0.721-5.777-2.161c-1.573-1.441-2.359-3.324-2.359-5.65c0-2.326,0.796-4.218,2.388-5.678
			c1.591-1.459,3.479-2.189,5.664-2.189c1.092,0,2.198,0.226,3.319,0.678c1.12,0.452,2.104,1.121,2.952,2.005l-2.203,2.882
			c-0.49-0.583-1.088-1.036-1.794-1.356c-0.707-0.32-1.408-0.48-2.105-0.48c-1.111,0-2.066,0.363-2.867,1.088s-1.2,1.733-1.2,3.022
			c0,1.291,0.399,2.293,1.2,3.009C350.446,285.339,351.383,285.696,352.457,285.696z"/>
		<path d="M374.774,287.024c-1.714,1.62-3.725,2.43-6.032,2.43c-2.307,0-4.214-0.711-5.721-2.133s-2.26-3.329-2.26-5.721
			c0-2.391,0.768-4.294,2.303-5.707c1.534-1.413,3.348-2.119,5.438-2.119c2.09,0,3.865,0.631,5.325,1.893
			c1.459,1.262,2.189,2.995,2.189,5.198v2.26h-11.074c0.131,0.829,0.564,1.507,1.299,2.034s1.563,0.791,2.486,0.791
			c1.487,0,2.712-0.499,3.673-1.498L374.774,287.024z M370.706,278.012c-0.584-0.49-1.295-0.735-2.133-0.735
			c-0.839,0-1.606,0.254-2.303,0.763c-0.697,0.509-1.102,1.196-1.215,2.063h6.667C371.629,279.199,371.29,278.502,370.706,278.012z"
			/>
	</g>
	<g>
		<path d="M284,143.873h-2.36v-13.98h3.68l4.22,8.78l4.22-8.78h3.66v13.98h-2.36v-10.92l-4.88,9.7h-1.32l-4.86-9.7V143.873z"/>
		<path d="M309.601,143.873h-2.04v-1.42c-0.88,1.053-2.06,1.58-3.54,1.58c-1.107,0-2.023-0.313-2.75-0.94
			c-0.727-0.627-1.09-1.463-1.09-2.51c0-1.046,0.387-1.83,1.16-2.35c0.773-0.52,1.82-0.78,3.14-0.78h2.9v-0.4
			c0-1.413-0.787-2.12-2.36-2.12c-0.987,0-2.014,0.36-3.08,1.08l-1-1.4c1.293-1.027,2.76-1.54,4.4-1.54
			c1.253,0,2.276,0.317,3.07,0.95c0.793,0.633,1.19,1.63,1.19,2.99V143.873z M307.36,139.913v-0.9h-2.52
			c-1.613,0-2.42,0.507-2.42,1.52c0,0.52,0.2,0.917,0.6,1.19c0.4,0.273,0.957,0.41,1.67,0.41c0.713,0,1.336-0.2,1.87-0.6
			C307.093,141.133,307.36,140.593,307.36,139.913z"/>
		<path d="M317.44,144.033c-1.48,0-2.753-0.503-3.82-1.51c-1.067-1.006-1.6-2.323-1.6-3.95c0-1.627,0.557-2.95,1.67-3.97
			s2.47-1.53,4.07-1.53c1.6,0,2.953,0.553,4.06,1.66l-1.32,1.62c-0.92-0.8-1.847-1.2-2.78-1.2c-0.934,0-1.744,0.31-2.43,0.93
			c-0.687,0.62-1.03,1.42-1.03,2.4s0.34,1.81,1.02,2.49c0.68,0.68,1.517,1.02,2.51,1.02s1.93-0.453,2.81-1.36l1.32,1.44
			C320.626,143.38,319.133,144.033,317.44,144.033z"/>
		<path d="M326.479,138.113v5.76h-2.239v-14.82h2.239v6.12c0.32-0.653,0.804-1.167,1.45-1.54c0.646-0.373,1.344-0.56,2.09-0.56
			c1.2,0,2.17,0.367,2.91,1.1c0.74,0.733,1.11,1.793,1.11,3.18v6.52h-2.24v-5.84c0-1.96-0.813-2.94-2.439-2.94
			c-0.773,0-1.447,0.257-2.021,0.77S326.479,137.126,326.479,138.113z"/>
		<path d="M337.3,131.113c-0.28-0.28-0.42-0.613-0.42-1s0.14-0.72,0.42-1c0.28-0.28,0.613-0.42,1-0.42s0.72,0.14,1,0.42
			c0.28,0.28,0.42,0.613,0.42,1s-0.14,0.72-0.42,1c-0.28,0.28-0.613,0.42-1,0.42S337.58,131.393,337.3,131.113z M339.399,143.873
			h-2.239v-10.64h2.239V143.873z"/>
		<path d="M344.879,138.113v5.76h-2.239v-10.64h2.239v1.94c0.36-0.653,0.857-1.167,1.49-1.54c0.633-0.373,1.316-0.56,2.05-0.56
			c1.2,0,2.17,0.367,2.91,1.1c0.74,0.733,1.11,1.793,1.11,3.18v6.52h-2.24v-5.84c0-1.96-0.813-2.94-2.439-2.94
			c-0.773,0-1.447,0.257-2.021,0.77S344.879,137.126,344.879,138.113z"/>
		<path d="M365.459,139.533h-8.34c0.053,0.773,0.406,1.396,1.061,1.87c0.652,0.474,1.399,0.71,2.239,0.71
			c1.333,0,2.347-0.42,3.04-1.26l1.28,1.4c-1.146,1.187-2.64,1.78-4.48,1.78c-1.493,0-2.763-0.497-3.81-1.49
			c-1.047-0.993-1.57-2.327-1.57-4c0-1.673,0.533-3.003,1.601-3.99c1.066-0.987,2.323-1.48,3.77-1.48s2.677,0.437,3.69,1.31
			c1.013,0.874,1.52,2.077,1.52,3.61V139.533z M357.119,137.773h6.1c0-0.893-0.279-1.58-0.84-2.06c-0.56-0.48-1.25-0.72-2.069-0.72
			c-0.82,0-1.558,0.25-2.21,0.75C357.445,136.243,357.119,136.92,357.119,137.773z"/>
		<path d="M281.061,167.873v-13.98h2.36v11.74h6.38v2.24H281.061z"/>
		<path d="M301.96,163.533h-8.34c0.053,0.773,0.406,1.396,1.06,1.87c0.653,0.474,1.4,0.71,2.24,0.71c1.333,0,2.347-0.42,3.04-1.26
			l1.28,1.4c-1.146,1.187-2.64,1.78-4.48,1.78c-1.493,0-2.763-0.497-3.81-1.49c-1.047-0.993-1.57-2.327-1.57-4
			c0-1.673,0.533-3.003,1.6-3.99c1.066-0.987,2.323-1.48,3.77-1.48c1.446,0,2.676,0.437,3.69,1.31c1.013,0.874,1.52,2.077,1.52,3.61
			V163.533z M293.621,161.773h6.1c0-0.893-0.28-1.58-0.84-2.06s-1.25-0.72-2.07-0.72c-0.82,0-1.557,0.25-2.21,0.75
			C293.947,160.243,293.621,160.92,293.621,161.773z"/>
		<path d="M313.041,167.873H311v-1.42c-0.88,1.053-2.06,1.58-3.54,1.58c-1.107,0-2.023-0.313-2.75-0.94
			c-0.727-0.627-1.09-1.463-1.09-2.51c0-1.046,0.387-1.83,1.16-2.35c0.773-0.52,1.82-0.78,3.14-0.78h2.9v-0.4
			c0-1.413-0.787-2.12-2.36-2.12c-0.987,0-2.014,0.36-3.08,1.08l-1-1.4c1.293-1.027,2.76-1.54,4.4-1.54
			c1.253,0,2.276,0.317,3.07,0.95c0.793,0.633,1.19,1.63,1.19,2.99V167.873z M310.8,163.913v-0.9h-2.52
			c-1.613,0-2.42,0.507-2.42,1.52c0,0.52,0.2,0.917,0.6,1.19c0.4,0.273,0.957,0.41,1.67,0.41c0.713,0,1.336-0.2,1.87-0.6
			C310.533,165.133,310.8,164.593,310.8,163.913z"/>
		<path d="M321.74,159.333c-1.107,0-1.94,0.36-2.5,1.08c-0.56,0.72-0.84,1.687-0.84,2.9v4.56h-2.24v-10.64h2.24v2.14
			c0.36-0.667,0.85-1.213,1.47-1.64c0.62-0.426,1.276-0.646,1.97-0.66l0.02,2.26C321.82,159.333,321.78,159.333,321.74,159.333z"/>
		<path d="M326.34,162.113v5.76h-2.24v-10.64h2.24v1.94c0.36-0.653,0.856-1.167,1.49-1.54c0.633-0.373,1.316-0.56,2.05-0.56
			c1.2,0,2.17,0.367,2.91,1.1c0.739,0.733,1.109,1.793,1.109,3.18v6.52h-2.239v-5.84c0-1.96-0.813-2.94-2.44-2.94
			c-0.773,0-1.447,0.257-2.02,0.77C326.626,160.376,326.34,161.126,326.34,162.113z"/>
		<path d="M337.159,155.113c-0.279-0.28-0.42-0.613-0.42-1s0.141-0.72,0.42-1c0.28-0.28,0.613-0.42,1-0.42s0.721,0.14,1,0.42
			c0.28,0.28,0.421,0.613,0.421,1s-0.141,0.72-0.421,1c-0.279,0.28-0.613,0.42-1,0.42S337.439,155.393,337.159,155.113z
			 M339.26,167.873h-2.24v-10.64h2.24V167.873z"/>
		<path d="M344.739,162.113v5.76H342.5v-10.64h2.239v1.94c0.36-0.653,0.857-1.167,1.49-1.54c0.633-0.373,1.316-0.56,2.05-0.56
			c1.2,0,2.17,0.367,2.91,1.1c0.74,0.733,1.11,1.793,1.11,3.18v6.52h-2.24v-5.84c0-1.96-0.813-2.94-2.439-2.94
			c-0.773,0-1.447,0.257-2.021,0.77S344.739,161.126,344.739,162.113z"/>
		<path d="M365.26,157.233v9.28c0,1.88-0.51,3.29-1.53,4.23c-1.02,0.94-2.33,1.41-3.93,1.41c-1.601,0-3.047-0.5-4.34-1.5l1.06-1.7
			c1.04,0.787,2.09,1.18,3.15,1.18c1.06,0,1.899-0.273,2.52-0.82c0.62-0.547,0.93-1.42,0.93-2.62v-1.36
			c-0.333,0.627-0.81,1.127-1.43,1.5c-0.62,0.374-1.316,0.56-2.09,0.56c-1.413,0-2.573-0.493-3.48-1.48
			c-0.906-0.987-1.359-2.213-1.359-3.68c0-1.466,0.453-2.693,1.359-3.68c0.907-0.987,2.063-1.48,3.471-1.48
			c1.406,0,2.55,0.58,3.43,1.74v-1.58H365.26z M356.96,162.143c0,0.874,0.27,1.627,0.81,2.26c0.54,0.634,1.267,0.95,2.18,0.95
			s1.653-0.307,2.221-0.92c0.566-0.613,0.85-1.376,0.85-2.29c0-0.913-0.287-1.687-0.86-2.32s-1.313-0.95-2.22-0.95
			c-0.907,0-1.63,0.327-2.17,0.98S356.96,161.27,356.96,162.143z"/>
	</g>
	<g>
		<path d="M389.421,324.964v11.82h-2.359v-11.82h-4.24v-2.16h10.84v2.16H389.421z"/>
		<path d="M401.481,328.244c-1.107,0-1.94,0.36-2.5,1.08c-0.561,0.72-0.84,1.687-0.84,2.9v4.56h-2.24v-10.64h2.24v2.14
			c0.359-0.667,0.85-1.213,1.47-1.64s1.276-0.646,1.97-0.66l0.021,2.26C401.562,328.244,401.521,328.244,401.481,328.244z"/>
		<path d="M412.361,336.784h-2.04v-1.42c-0.88,1.054-2.061,1.58-3.54,1.58c-1.107,0-2.023-0.313-2.75-0.94
			c-0.727-0.626-1.09-1.463-1.09-2.51s0.387-1.83,1.16-2.35c0.772-0.521,1.819-0.78,3.14-0.78h2.899v-0.4
			c0-1.413-0.786-2.12-2.359-2.12c-0.987,0-2.014,0.36-3.08,1.08l-1-1.399c1.293-1.026,2.76-1.54,4.4-1.54
			c1.253,0,2.276,0.316,3.069,0.95c0.793,0.633,1.19,1.63,1.19,2.989V336.784z M410.121,332.824v-0.9h-2.52
			c-1.614,0-2.421,0.507-2.421,1.521c0,0.52,0.2,0.917,0.601,1.189c0.399,0.273,0.956,0.41,1.67,0.41c0.713,0,1.337-0.2,1.87-0.6
			C409.854,334.044,410.121,333.504,410.121,332.824z"/>
		<path d="M416.302,335.424c-1-1.013-1.5-2.347-1.5-4c0-1.652,0.513-2.973,1.54-3.96c1.026-0.986,2.25-1.479,3.67-1.479
			s2.563,0.6,3.43,1.8v-5.84h2.24v14.84h-2.24v-1.6c-0.827,1.173-2.033,1.76-3.62,1.76
			C418.475,336.944,417.302,336.438,416.302,335.424z M417.041,331.515c0,1.02,0.327,1.85,0.98,2.489
			c0.653,0.641,1.42,0.96,2.3,0.96s1.627-0.323,2.24-0.97s0.92-1.477,0.92-2.49c0-1.013-0.307-1.859-0.92-2.54
			c-0.613-0.68-1.367-1.02-2.26-1.02c-0.894,0-1.66,0.34-2.301,1.02C417.361,329.645,417.041,330.494,417.041,331.515z"/>
		<path d="M429.061,324.024c-0.279-0.28-0.42-0.613-0.42-1s0.141-0.721,0.42-1c0.28-0.28,0.613-0.42,1-0.42s0.721,0.14,1,0.42
			c0.28,0.279,0.42,0.613,0.42,1s-0.14,0.72-0.42,1c-0.279,0.279-0.613,0.42-1,0.42S429.341,324.304,429.061,324.024z
			 M431.161,336.784h-2.24v-10.64h2.24V336.784z"/>
		<path d="M437.16,327.944v5.399c0,0.507,0.133,0.91,0.4,1.21c0.267,0.301,0.64,0.45,1.12,0.45c0.479,0,0.939-0.232,1.38-0.7
			l0.92,1.58c-0.787,0.707-1.657,1.061-2.61,1.061s-1.767-0.33-2.439-0.99c-0.674-0.66-1.011-1.55-1.011-2.67v-5.34h-1.34v-1.8h1.34
			v-3.341h2.24v3.341h2.8v1.8H437.16z"/>
		<path d="M442.9,324.024c-0.279-0.28-0.42-0.613-0.42-1s0.141-0.721,0.42-1c0.28-0.28,0.613-0.42,1-0.42s0.721,0.14,1,0.42
			c0.28,0.279,0.42,0.613,0.42,1s-0.14,0.72-0.42,1c-0.279,0.279-0.613,0.42-1,0.42S443.181,324.304,442.9,324.024z
			 M445.001,336.784h-2.24v-10.64h2.24V336.784z"/>
		<path d="M457.14,335.354c-1.066,1.06-2.399,1.59-4,1.59c-1.6,0-2.933-0.53-4-1.59c-1.066-1.061-1.6-2.356-1.6-3.891
			c0-1.533,0.533-2.83,1.6-3.89c1.067-1.06,2.4-1.59,4-1.59c1.601,0,2.934,0.53,4,1.59c1.067,1.06,1.601,2.356,1.601,3.89
			C458.74,332.998,458.207,334.294,457.14,335.354z M450.73,333.975c0.633,0.646,1.437,0.97,2.409,0.97
			c0.974,0,1.777-0.323,2.41-0.97c0.634-0.647,0.95-1.483,0.95-2.511c0-1.026-0.316-1.863-0.95-2.51
			c-0.633-0.646-1.437-0.97-2.41-0.97c-0.973,0-1.776,0.323-2.409,0.97c-0.634,0.646-0.95,1.483-0.95,2.51
			C449.78,332.491,450.097,333.327,450.73,333.975z"/>
		<path d="M463.521,331.024v5.76h-2.24v-10.64h2.24v1.939c0.359-0.653,0.856-1.166,1.489-1.54c0.634-0.373,1.317-0.56,2.051-0.56
			c1.199,0,2.17,0.366,2.909,1.1c0.74,0.733,1.11,1.794,1.11,3.181v6.52h-2.24v-5.84c0-1.96-0.813-2.94-2.439-2.94
			c-0.773,0-1.447,0.257-2.021,0.771S463.521,330.038,463.521,331.024z"/>
		<path d="M482.82,336.784h-2.04v-1.42c-0.88,1.054-2.061,1.58-3.54,1.58c-1.107,0-2.023-0.313-2.75-0.94
			c-0.727-0.626-1.09-1.463-1.09-2.51s0.387-1.83,1.16-2.35c0.772-0.521,1.819-0.78,3.14-0.78h2.899v-0.4
			c0-1.413-0.786-2.12-2.359-2.12c-0.987,0-2.014,0.36-3.08,1.08l-1-1.399c1.293-1.026,2.76-1.54,4.4-1.54
			c1.253,0,2.276,0.316,3.069,0.95c0.793,0.633,1.19,1.63,1.19,2.989V336.784z M480.58,332.824v-0.9h-2.52
			c-1.614,0-2.421,0.507-2.421,1.521c0,0.52,0.2,0.917,0.601,1.189c0.399,0.273,0.956,0.41,1.67,0.41c0.713,0,1.337-0.2,1.87-0.6
			C480.313,334.044,480.58,333.504,480.58,332.824z"/>
		<path d="M488.181,336.784h-2.24v-14.84h2.24V336.784z"/>
		<path d="M402.34,351.344c0,2.308-1.007,3.761-3.02,4.36l3.66,5.08h-3l-3.34-4.7h-3.101v4.7h-2.359v-13.98h5.199
			c2.134,0,3.66,0.36,4.58,1.08C401.88,348.604,402.34,349.758,402.34,351.344z M399.2,353.324c0.48-0.413,0.72-1.076,0.72-1.99
			c0-0.913-0.246-1.54-0.739-1.88c-0.494-0.34-1.374-0.51-2.641-0.51h-3v5h2.94C397.813,353.944,398.721,353.737,399.2,353.324z"/>
		<path d="M415.319,356.444h-8.34c0.054,0.773,0.407,1.396,1.061,1.87s1.399,0.71,2.24,0.71c1.333,0,2.346-0.42,3.039-1.26
			l1.28,1.399c-1.146,1.187-2.64,1.78-4.479,1.78c-1.494,0-2.764-0.497-3.811-1.49s-1.569-2.326-1.569-4
			c0-1.673,0.532-3.003,1.6-3.99c1.066-0.986,2.323-1.479,3.77-1.479c1.447,0,2.677,0.437,3.69,1.31
			c1.013,0.874,1.52,2.077,1.52,3.61V356.444z M406.979,354.685h6.101c0-0.894-0.28-1.58-0.84-2.061
			c-0.561-0.479-1.25-0.72-2.07-0.72s-1.557,0.25-2.21,0.75S406.979,353.831,406.979,354.685z"/>
		<path d="M425.36,357.604c0,1.013-0.367,1.823-1.101,2.43s-1.673,0.91-2.819,0.91c-0.773,0-1.577-0.141-2.41-0.42
			c-0.834-0.28-1.57-0.674-2.21-1.181l1.08-1.739c1.24,0.934,2.439,1.399,3.6,1.399c0.507,0,0.906-0.116,1.2-0.35
			c0.293-0.233,0.44-0.53,0.44-0.89c0-0.533-0.707-1.014-2.12-1.44c-0.107-0.04-0.188-0.066-0.24-0.08c-2.214-0.6-3.32-1.6-3.32-3
			c0-0.986,0.384-1.776,1.15-2.37c0.767-0.593,1.763-0.89,2.99-0.89c1.227,0,2.386,0.359,3.479,1.08l-0.84,1.66
			c-0.867-0.573-1.807-0.86-2.82-0.86c-0.533,0-0.967,0.097-1.3,0.29s-0.5,0.483-0.5,0.87c0,0.347,0.173,0.6,0.521,0.76
			c0.239,0.12,0.576,0.233,1.01,0.34c0.433,0.107,0.816,0.214,1.149,0.32s0.657,0.227,0.971,0.359
			c0.313,0.134,0.649,0.32,1.01,0.561C425,355.844,425.36,356.591,425.36,357.604z"/>
		<path d="M437.8,356.444h-8.34c0.054,0.773,0.407,1.396,1.061,1.87s1.399,0.71,2.24,0.71c1.333,0,2.346-0.42,3.039-1.26l1.28,1.399
			c-1.146,1.187-2.64,1.78-4.479,1.78c-1.494,0-2.764-0.497-3.811-1.49s-1.569-2.326-1.569-4c0-1.673,0.532-3.003,1.6-3.99
			c1.066-0.986,2.323-1.479,3.77-1.479c1.447,0,2.677,0.437,3.69,1.31c1.013,0.874,1.52,2.077,1.52,3.61V356.444z M429.46,354.685
			h6.101c0-0.894-0.28-1.58-0.84-2.061c-0.561-0.479-1.25-0.72-2.07-0.72s-1.557,0.25-2.21,0.75S429.46,353.831,429.46,354.685z"/>
		<path d="M448.881,360.784h-2.04v-1.42c-0.88,1.054-2.061,1.58-3.54,1.58c-1.107,0-2.023-0.313-2.75-0.94
			c-0.727-0.626-1.09-1.463-1.09-2.51s0.387-1.83,1.16-2.35c0.772-0.521,1.819-0.78,3.14-0.78h2.899v-0.4
			c0-1.413-0.786-2.12-2.359-2.12c-0.987,0-2.014,0.36-3.08,1.08l-1-1.399c1.293-1.026,2.76-1.54,4.4-1.54
			c1.253,0,2.276,0.316,3.069,0.95c0.793,0.633,1.19,1.63,1.19,2.989V360.784z M446.641,356.824v-0.9h-2.52
			c-1.614,0-2.421,0.507-2.421,1.521c0,0.52,0.2,0.917,0.601,1.189c0.399,0.273,0.956,0.41,1.67,0.41c0.713,0,1.337-0.2,1.87-0.6
			C446.374,358.044,446.641,357.504,446.641,356.824z"/>
		<path d="M457.581,352.244c-1.107,0-1.94,0.36-2.5,1.08c-0.561,0.72-0.84,1.687-0.84,2.9v4.56h-2.24v-10.64h2.24v2.14
			c0.359-0.667,0.85-1.213,1.47-1.64s1.276-0.646,1.97-0.66l0.021,2.26C457.661,352.244,457.621,352.244,457.581,352.244z"/>
		<path d="M464.66,360.944c-1.479,0-2.753-0.503-3.82-1.51c-1.066-1.007-1.6-2.323-1.6-3.95s0.557-2.95,1.67-3.97
			c1.113-1.021,2.47-1.53,4.07-1.53c1.6,0,2.953,0.554,4.06,1.66l-1.319,1.62c-0.92-0.801-1.848-1.2-2.78-1.2
			c-0.934,0-1.743,0.31-2.43,0.93c-0.688,0.62-1.03,1.42-1.03,2.4c0,0.979,0.34,1.81,1.02,2.489
			c0.681,0.681,1.517,1.021,2.511,1.021c0.993,0,1.93-0.453,2.81-1.36l1.32,1.44C467.847,360.291,466.354,360.944,464.66,360.944z"
			/>
		<path d="M473.7,355.024v5.76h-2.24v-14.82h2.24v6.12c0.319-0.653,0.803-1.166,1.449-1.54c0.647-0.373,1.344-0.56,2.091-0.56
			c1.199,0,2.17,0.366,2.909,1.1c0.74,0.733,1.11,1.794,1.11,3.181v6.52h-2.24v-5.84c0-1.96-0.813-2.94-2.439-2.94
			c-0.773,0-1.447,0.257-2.021,0.771S473.7,354.038,473.7,355.024z"/>
	</g>
	<g>
		<path d="M184.096,324.634c1.347,1.221,2.021,2.917,2.021,5.091c0,2.173-0.653,3.893-1.96,5.159c-1.307,1.268-3.307,1.9-6,1.9
			h-4.64v-13.98h4.8C180.823,322.804,182.75,323.414,184.096,324.634z M183.737,329.784c0-3.2-1.834-4.8-5.5-4.8h-2.36v9.58h2.62
			c1.693,0,2.99-0.403,3.89-1.21C183.287,332.548,183.737,331.357,183.737,329.784z"/>
		<path d="M197.457,336.784h-2.04v-1.42c-0.88,1.054-2.061,1.58-3.54,1.58c-1.107,0-2.023-0.313-2.75-0.94
			c-0.727-0.626-1.09-1.463-1.09-2.51s0.387-1.83,1.16-2.35c0.772-0.521,1.819-0.78,3.14-0.78h2.899v-0.4
			c0-1.413-0.786-2.12-2.359-2.12c-0.987,0-2.014,0.36-3.08,1.08l-1-1.399c1.293-1.026,2.76-1.54,4.4-1.54
			c1.253,0,2.276,0.316,3.069,0.95c0.793,0.633,1.19,1.63,1.19,2.989V336.784z M195.216,332.824v-0.9h-2.52
			c-1.614,0-2.421,0.507-2.421,1.521c0,0.52,0.2,0.917,0.601,1.189c0.399,0.273,0.956,0.41,1.67,0.41c0.713,0,1.337-0.2,1.87-0.6
			C194.95,334.044,195.216,333.504,195.216,332.824z"/>
		<path d="M202.817,331.024v5.76h-2.24v-10.64h2.24v1.939c0.359-0.653,0.856-1.166,1.489-1.54c0.634-0.373,1.317-0.56,2.051-0.56
			c1.199,0,2.17,0.366,2.909,1.1c0.74,0.733,1.11,1.794,1.11,3.181v6.52h-2.24v-5.84c0-1.96-0.813-2.94-2.439-2.94
			c-0.773,0-1.447,0.257-2.021,0.771S202.817,330.038,202.817,331.024z"/>
		<path d="M223.336,326.145v9.279c0,1.88-0.51,3.29-1.53,4.23c-1.02,0.939-2.33,1.41-3.93,1.41s-3.047-0.5-4.34-1.5l1.06-1.7
			c1.04,0.786,2.09,1.18,3.15,1.18c1.06,0,1.899-0.273,2.52-0.819c0.62-0.547,0.931-1.421,0.931-2.62v-1.36
			c-0.334,0.627-0.811,1.127-1.431,1.5s-1.316,0.56-2.09,0.56c-1.413,0-2.573-0.492-3.479-1.479c-0.907-0.986-1.36-2.213-1.36-3.68
			s0.453-2.693,1.36-3.681c0.906-0.986,2.063-1.479,3.47-1.479c1.406,0,2.55,0.58,3.43,1.74v-1.58H223.336z M215.037,331.054
			c0,0.874,0.27,1.627,0.81,2.261c0.54,0.633,1.267,0.95,2.181,0.95c0.913,0,1.652-0.307,2.22-0.921
			c0.566-0.612,0.85-1.376,0.85-2.29c0-0.913-0.286-1.687-0.859-2.319c-0.574-0.634-1.313-0.95-2.221-0.95
			c-0.906,0-1.63,0.327-2.17,0.98S215.037,330.181,215.037,331.054z"/>
		<path d="M236.476,332.444h-8.34c0.054,0.773,0.407,1.396,1.061,1.87s1.399,0.71,2.24,0.71c1.333,0,2.346-0.42,3.039-1.26
			l1.28,1.399c-1.146,1.187-2.64,1.78-4.479,1.78c-1.494,0-2.764-0.497-3.811-1.49s-1.569-2.326-1.569-4
			c0-1.673,0.532-3.003,1.6-3.99c1.066-0.986,2.323-1.479,3.77-1.479c1.447,0,2.677,0.437,3.69,1.31
			c1.013,0.874,1.52,2.077,1.52,3.61V332.444z M228.136,330.685h6.101c0-0.894-0.28-1.58-0.84-2.061
			c-0.561-0.479-1.25-0.72-2.07-0.72s-1.557,0.25-2.21,0.75S228.136,329.831,228.136,330.685z"/>
		<path d="M244.517,328.244c-1.107,0-1.94,0.36-2.5,1.08c-0.561,0.72-0.84,1.687-0.84,2.9v4.56h-2.24v-10.64h2.24v2.14
			c0.359-0.667,0.85-1.213,1.47-1.64s1.276-0.646,1.97-0.66l0.021,2.26C244.597,328.244,244.557,328.244,244.517,328.244z"/>
		<path d="M188.777,348.964h-7.88v-2.16h11.16v1.841l-8.12,9.899v0.061h8.24v2.18h-11.54v-1.82l8.14-9.939V348.964z"/>
		<path d="M203.436,359.354c-1.066,1.06-2.399,1.59-4,1.59c-1.6,0-2.933-0.53-4-1.59c-1.066-1.061-1.6-2.356-1.6-3.891
			c0-1.533,0.533-2.83,1.6-3.89c1.067-1.06,2.4-1.59,4-1.59c1.601,0,2.934,0.53,4,1.59c1.067,1.06,1.601,2.356,1.601,3.89
			C205.037,356.998,204.503,358.294,203.436,359.354z M197.027,357.975c0.633,0.646,1.437,0.97,2.409,0.97
			c0.974,0,1.777-0.323,2.41-0.97c0.634-0.647,0.95-1.483,0.95-2.511c0-1.026-0.316-1.863-0.95-2.51
			c-0.633-0.646-1.437-0.97-2.41-0.97c-0.973,0-1.776,0.323-2.409,0.97c-0.634,0.646-0.95,1.483-0.95,2.51
			C196.077,356.491,196.393,357.327,197.027,357.975z"/>
		<path d="M209.817,355.024v5.76h-2.24v-10.64h2.24v1.939c0.359-0.653,0.856-1.166,1.489-1.54c0.634-0.373,1.317-0.56,2.051-0.56
			c1.199,0,2.17,0.366,2.909,1.1c0.74,0.733,1.11,1.794,1.11,3.181v6.52h-2.24v-5.84c0-1.96-0.813-2.94-2.439-2.94
			c-0.773,0-1.447,0.257-2.021,0.771S209.817,354.038,209.817,355.024z"/>
		<path d="M230.396,356.444h-8.34c0.054,0.773,0.407,1.396,1.061,1.87s1.399,0.71,2.24,0.71c1.333,0,2.346-0.42,3.039-1.26
			l1.28,1.399c-1.146,1.187-2.64,1.78-4.479,1.78c-1.494,0-2.764-0.497-3.811-1.49s-1.569-2.326-1.569-4
			c0-1.673,0.532-3.003,1.6-3.99c1.066-0.986,2.323-1.479,3.77-1.479c1.447,0,2.677,0.437,3.69,1.31
			c1.013,0.874,1.52,2.077,1.52,3.61V356.444z M222.056,354.685h6.101c0-0.894-0.28-1.58-0.84-2.061
			c-0.561-0.479-1.25-0.72-2.07-0.72s-1.557,0.25-2.21,0.75S222.056,353.831,222.056,354.685z"/>
		<path d="M234.207,360.944c-0.406,0-0.757-0.147-1.05-0.44s-0.439-0.643-0.439-1.05c0-0.406,0.146-0.757,0.439-1.05
			s0.644-0.44,1.05-0.44c0.407,0,0.757,0.147,1.05,0.44c0.294,0.293,0.44,0.644,0.44,1.05c0,0.407-0.146,0.757-0.44,1.05
			C234.963,360.797,234.614,360.944,234.207,360.944z M232.796,346.464h2.801v2.58l-0.601,7.221h-1.6l-0.601-7.221V346.464z"/>
	</g>
</g>
<g id="Layer_2">
	<g>
		<path fill="none" d="M143.428,317.593C81.26,281.692,59.96,202.178,95.852,139.994s115.386-83.489,177.554-47.588
			s83.468,115.416,47.575,177.599S205.595,353.495,143.428,317.593z"/>
		<path d="M91.383,228.763l-21.64,2.716l-0.458-3.652l9.38-1.177l-1.348-10.74l-9.38,1.178l-0.458-3.652l21.64-2.716l0.458,3.652
			l-8.854,1.111l1.348,10.74l8.854-1.111L91.383,228.763z"/>
		<path d="M89.673,193.473l-0.123,3.179l-2.213-0.085c1.589,1.435,2.339,3.306,2.25,5.612c-0.067,1.725-0.61,3.135-1.631,4.229
			c-1.021,1.095-2.347,1.611-3.979,1.548c-1.632-0.063-2.83-0.713-3.594-1.95c-0.764-1.236-1.106-2.883-1.027-4.94l0.175-4.52
			l-0.624-0.024c-2.203-0.085-3.352,1.099-3.447,3.55c-0.06,1.538,0.44,3.16,1.498,4.865l-2.243,1.474
			c-1.522-2.077-2.234-4.395-2.136-6.95c0.076-1.953,0.631-3.529,1.666-4.728c1.035-1.198,2.613-1.756,4.733-1.674L89.673,193.473z
			 M83.365,196.726l-1.403-0.054l-0.152,3.927c-0.097,2.515,0.645,3.802,2.224,3.863c0.811,0.031,1.441-0.256,1.892-0.863
			s0.697-1.466,0.74-2.578c0.043-1.111-0.231-2.095-0.823-2.951C85.25,197.215,84.425,196.767,83.365,196.726z"/>
		<path d="M91.618,182.939c-0.411,2.271-1.537,4.086-3.378,5.444c-1.841,1.358-4.01,1.811-6.508,1.359
			c-2.497-0.452-4.375-1.673-5.631-3.666c-1.257-1.991-1.664-4.215-1.219-6.671c0.444-2.456,1.669-4.379,3.675-5.771l2.121,2.476
			c-1.483,1.19-2.355,2.501-2.614,3.934c-0.259,1.433-0.008,2.762,0.753,3.988s1.894,1.975,3.398,2.247s2.873-0.02,4.106-0.874
			c1.232-0.855,1.987-2.044,2.262-3.569c0.276-1.524-0.16-3.088-1.308-4.69l2.577-1.626C91.5,177.867,92.088,180.341,91.618,182.939
			z"/>
		<path d="M94.317,170.694l-1.094,3.318l-21.987-7.251l1.094-3.318l12.919,4.261l-4.586-8.607l1.407-4.266l4.279,8.046l11.631-3.292
			l-1.329,4.029l-8.448,2.404l1.639,3.201L94.317,170.694z"/>
		<path d="M80.896,149.673c-0.577,0.22-1.141,0.207-1.691-0.04c-0.55-0.247-0.936-0.659-1.156-1.236
			c-0.22-0.577-0.207-1.141,0.04-1.691c0.247-0.55,0.658-0.936,1.235-1.155c0.578-0.22,1.142-0.207,1.692,0.04
			c0.551,0.247,0.936,0.659,1.156,1.236c0.22,0.577,0.207,1.141-0.04,1.691C81.885,149.068,81.474,149.453,80.896,149.673z
			 M100.401,154.825l-1.429,3.188l-15.147-6.788l1.429-3.188L100.401,154.825z"/>
		<path d="M95.876,143.664l7.709,4.618l-1.795,2.997l-14.24-8.53l1.795-2.997l2.596,1.555c-0.585-1.005-0.875-2.081-0.867-3.228
			c0.008-1.146,0.306-2.21,0.894-3.192c0.962-1.605,2.23-2.609,3.804-3.012c1.575-0.402,3.29-0.047,5.146,1.064l8.726,5.227
			l-1.795,2.997l-7.816-4.682c-2.623-1.571-4.586-1.269-5.89,0.908c-0.62,1.035-0.816,2.142-0.588,3.32
			C93.782,141.888,94.556,142.873,95.876,143.664z"/>
		<path d="M108.328,113.021l11.208,9.163c2.271,1.856,3.47,3.865,3.599,6.024s-0.597,4.206-2.176,6.138s-3.612,3.186-6.096,3.759
			l-1.007-2.958c1.977-0.479,3.488-1.358,4.535-2.638c1.046-1.28,1.545-2.564,1.498-3.853c-0.049-1.289-0.797-2.525-2.247-3.71
			l-1.643-1.343c0.428,1.021,0.562,2.09,0.4,3.208c-0.161,1.118-0.624,2.143-1.387,3.077c-1.395,1.707-3.136,2.621-5.223,2.741
			c-2.087,0.121-4.016-0.543-5.787-1.991s-2.806-3.207-3.103-5.276c-0.297-2.069,0.249-3.953,1.638-5.651
			c1.389-1.698,3.218-2.506,5.487-2.424l-1.908-1.56L108.328,113.021z M106.065,127.891c1.055,0.863,2.231,1.28,3.529,1.253
			c1.298-0.026,2.398-0.591,3.3-1.694c0.901-1.103,1.261-2.299,1.08-3.589c-0.181-1.29-0.824-2.386-1.927-3.288
			c-1.103-0.901-2.32-1.319-3.651-1.252c-1.331,0.067-2.444,0.648-3.339,1.743c-0.895,1.095-1.214,2.291-0.958,3.588
			C104.355,125.949,105.011,127.029,106.065,127.891z"/>
		<path d="M123.136,96.418c-0.843,0.661-1.4,1.374-1.671,2.141c-0.271,0.767-0.134,1.499,0.411,2.194
			c0.545,0.696,1.232,1.017,2.061,0.962c0.829-0.055,2.29-0.558,4.384-1.51c2.093-0.952,3.888-1.393,5.383-1.322
			c1.495,0.072,2.829,0.856,4.002,2.355c1.173,1.499,1.561,3.157,1.162,4.975c-0.399,1.818-1.516,3.445-3.349,4.881
			c-2.686,2.103-5.792,3.043-9.321,2.82l0.105-3.609c2.916,0.148,5.307-0.509,7.173-1.97c0.933-0.731,1.517-1.511,1.751-2.342
			c0.234-0.831,0.092-1.578-0.428-2.241c-0.519-0.663-1.181-0.977-1.985-0.942s-1.955,0.396-3.453,1.079
			c-1.499,0.685-2.674,1.156-3.528,1.415c-0.854,0.259-1.695,0.383-2.523,0.37c-1.618,0.025-3.048-0.756-4.292-2.345
			c-1.244-1.588-1.625-3.265-1.144-5.029c0.481-1.764,1.573-3.312,3.276-4.645c1.097-0.859,2.327-1.531,3.69-2.017
			c1.363-0.485,2.693-0.708,3.992-0.669l0.165,3.398c-0.867-0.061-1.85,0.101-2.948,0.485
			C124.95,95.236,123.979,95.758,123.136,96.418z"/>
		<path d="M146.683,103.077l-3.035,1.731l-11.469-20.111l3.035-1.731l6.739,11.817l2.359-9.463l3.902-2.225l-2.212,8.84
			l10.841,5.347l-3.685,2.102l-7.883-3.874l-0.927,3.474L146.683,103.077z"/>
		<path d="M150.765,78.491c-0.576-0.223-0.986-0.61-1.229-1.162c-0.244-0.552-0.254-1.116-0.031-1.692
			c0.223-0.576,0.61-0.986,1.162-1.229s1.116-0.254,1.691-0.031c0.576,0.223,0.986,0.61,1.23,1.162
			c0.244,0.552,0.254,1.116,0.031,1.692c-0.223,0.576-0.61,0.986-1.162,1.229S151.341,78.714,150.765,78.491z M161.805,95.375
			l-3.196,1.412l-6.708-15.183l3.196-1.412L161.805,95.375z"/>
		<path d="M169.126,92.548l-3.281,1.199l-7.947-21.745l3.281-1.199L169.126,92.548z"/>
		<path d="M176.609,90.208l-3.353,0.982l-6.508-22.217l3.353-0.982L176.609,90.208z"/>
		<path d="M191.15,81.965c0.302,1.552-0.019,2.901-0.961,4.048c-0.942,1.148-2.291,1.892-4.046,2.233
			c-1.184,0.23-2.456,0.255-3.815,0.074c-1.359-0.181-2.604-0.564-3.734-1.149l1.135-2.986c2.176,1.061,4.152,1.418,5.928,1.073
			c0.776-0.151,1.354-0.448,1.733-0.893c0.379-0.444,0.516-0.942,0.409-1.494c-0.159-0.816-1.384-1.341-3.674-1.575
			c-0.176-0.029-0.306-0.046-0.392-0.051c-3.567-0.26-5.559-1.462-5.976-3.606c-0.294-1.511,0.058-2.834,1.055-3.972
			c0.997-1.136,2.435-1.888,4.313-2.252c1.877-0.365,3.761-0.159,5.649,0.618l-0.792,2.792c-1.498-0.62-3.022-0.779-4.573-0.478
			c-0.816,0.159-1.451,0.436-1.904,0.831c-0.453,0.396-0.622,0.889-0.507,1.481c0.104,0.531,0.444,0.867,1.022,1.009
			c0.403,0.112,0.952,0.186,1.647,0.22c0.695,0.035,1.314,0.084,1.856,0.148c0.542,0.064,1.073,0.152,1.592,0.263
			c0.519,0.111,1.09,0.296,1.713,0.557C190.075,79.377,190.849,80.414,191.15,81.965z"/>
	</g>
	<g>
		<path fill="none" d="M368.594,317.593c-62.168-35.902-83.468-115.416-47.575-177.599s115.386-83.489,177.554-47.588
			s83.468,115.416,47.575,177.599S430.762,353.495,368.594,317.593z"/>
		<path d="M454.806,87.444l-3.564-0.916l5.43-21.123l5.559,1.429l2.964,14.905l9.785-11.627l5.528,1.421l-5.43,21.123l-3.564-0.917
			l4.24-16.499l-11.139,12.761l-1.993-0.513l-3.574-16.543L454.806,87.444z"/>
		<path d="M490.375,100.093l-2.878-1.356l0.944-2.004c-1.942,0.901-3.957,0.86-6.045-0.125c-1.562-0.736-2.646-1.787-3.255-3.155
			s-0.564-2.79,0.132-4.267c0.696-1.477,1.763-2.325,3.199-2.545c1.438-0.22,3.087,0.11,4.949,0.987l4.091,1.929l0.267-0.564
			c0.939-1.994,0.3-3.515-1.92-4.561c-1.392-0.656-3.08-0.831-5.063-0.524l-0.479-2.641c2.507-0.589,4.918-0.338,7.232,0.752
			c1.768,0.833,3.001,1.961,3.699,3.382c0.697,1.421,0.595,3.092-0.311,5.011L490.375,100.093z M489.849,93.015l0.599-1.27
			l-3.555-1.676c-2.276-1.073-3.752-0.894-4.426,0.536c-0.346,0.734-0.327,1.427,0.056,2.079c0.382,0.652,1.076,1.214,2.083,1.689
			c1.006,0.474,2.019,0.606,3.037,0.396S489.396,93.975,489.849,93.015z"/>
		<path d="M504.249,92.456l-4.46,7.147c-0.419,0.671-0.575,1.314-0.47,1.932c0.104,0.617,0.475,1.124,1.11,1.521
			c0.635,0.396,1.436,0.468,2.403,0.213l-0.087,2.851c-1.625,0.286-3.068,0.035-4.329-0.752c-1.262-0.787-2.065-1.896-2.411-3.325
			c-0.346-1.43-0.056-2.885,0.869-4.368l4.41-7.067l-1.772-1.106l1.486-2.382l1.773,1.106l2.759-4.42l2.963,1.85l-2.758,4.42
			l3.704,2.312l-1.486,2.382L504.249,92.456z"/>
		<path d="M511.583,103.31l-5.685,6.959l-2.706-2.21l14.628-17.905l2.705,2.21l-6.04,7.394c1.031-0.473,2.121-0.617,3.271-0.43
			c1.148,0.187,2.175,0.648,3.076,1.386c1.45,1.184,2.26,2.584,2.43,4.2s-0.43,3.262-1.798,4.937l-6.436,7.877l-2.705-2.21
			l5.764-7.056c1.935-2.368,1.919-4.354-0.045-5.959c-0.935-0.763-2.002-1.117-3.2-1.063
			C513.644,101.495,512.557,102.118,511.583,103.31z"/>
		<path d="M526.43,130.745c-1.246-1.613-1.858-3.333-1.839-5.162c0.021-1.829,0.813-3.347,2.377-4.555
			c1.859-1.437,4.557-1.365,8.09,0.215c0.252-1.272,0.521-2.235,0.805-2.888c0.284-0.653,0.805-1.271,1.563-1.856
			c1.316-1.017,2.704-1.314,4.162-0.89s2.695,1.294,3.712,2.611c1.018,1.317,1.544,2.696,1.581,4.14
			c0.036,1.443-0.554,2.635-1.771,3.576c-1.63,1.259-4.187,1.131-7.669-0.383c-0.597,2.563-1.005,4.586-1.226,6.07
			c1.151-0.075,2.337-0.36,3.558-0.855l0.132,3.13c-1.467,0.449-2.838,0.733-4.113,0.851c-0.167,1.18-0.333,2.648-0.5,4.406
			l-3.158-0.516l0.493-4.007C530.173,134.212,528.107,132.917,526.43,130.745z M527.87,126.203c0.014,0.988,0.421,2,1.222,3.037
			c0.801,1.037,2.13,1.771,3.987,2.202c0.461-3.01,0.909-5.458,1.345-7.345c-2.441-1.084-4.262-1.162-5.464-0.234
			C528.22,124.436,527.855,125.215,527.87,126.203z M543.092,119.905c-0.426-0.551-0.98-0.912-1.662-1.081
			c-0.683-0.169-1.255-0.075-1.716,0.28c-0.461,0.356-0.791,0.788-0.989,1.296c-0.199,0.508-0.418,1.289-0.657,2.34
			c2.358,1.147,3.933,1.416,4.723,0.806c0.658-0.508,0.98-1.105,0.965-1.789C543.738,121.074,543.518,120.456,543.092,119.905z"/>
		<path d="M558.75,146.813c-0.449-0.972-1.016-1.678-1.7-2.118c-0.684-0.439-1.428-0.474-2.23-0.104s-1.271,0.966-1.409,1.785
			c-0.137,0.819,0.018,2.356,0.464,4.613s0.464,4.104,0.052,5.543c-0.413,1.438-1.482,2.557-3.211,3.355
			c-1.728,0.798-3.431,0.794-5.108-0.011c-1.679-0.806-3.006-2.266-3.982-4.38c-1.43-3.097-1.632-6.336-0.605-9.719l3.489,0.931
			c-0.813,2.804-0.723,5.282,0.271,7.434c0.497,1.076,1.122,1.824,1.878,2.243c0.754,0.418,1.515,0.451,2.279,0.098
			c0.765-0.354,1.222-0.925,1.372-1.716s0.064-1.994-0.258-3.609c-0.322-1.615-0.512-2.868-0.567-3.758s0.017-1.737,0.219-2.541
			c0.347-1.581,1.437-2.793,3.269-3.64c1.831-0.846,3.55-0.833,5.156,0.041s2.862,2.291,3.77,4.255
			c0.584,1.265,0.956,2.616,1.116,4.054s0.071,2.784-0.265,4.039l-3.345-0.62c0.258-0.829,0.326-1.823,0.204-2.98
			C559.484,148.851,559.199,147.786,558.75,146.813z"/>
		<path d="M560.175,164.64l-8.021,2.574c-0.753,0.242-1.288,0.631-1.606,1.171c-0.319,0.539-0.363,1.165-0.135,1.877
			c0.229,0.713,0.794,1.285,1.697,1.716l-1.908,2.12c-1.426-0.832-2.364-1.956-2.819-3.371c-0.454-1.416-0.352-2.781,0.309-4.096
			c0.659-1.314,1.821-2.239,3.484-2.772l7.933-2.546l-0.639-1.99l2.674-0.858l0.639,1.99l4.961-1.592l1.067,3.327l-4.961,1.592
			l1.334,4.158l-2.674,0.858L560.175,164.64z"/>
		<path d="M551.802,189.158l-0.604-3.124l2.175-0.42c-1.873-1.036-3.029-2.688-3.467-4.954c-0.327-1.695-0.118-3.191,0.627-4.489
			c0.744-1.299,1.919-2.102,3.522-2.412c1.603-0.31,2.917,0.05,3.942,1.081c1.025,1.03,1.733,2.557,2.123,4.578l0.857,4.441
			l0.613-0.118c2.164-0.418,3.015-1.832,2.549-4.241c-0.291-1.511-1.146-2.977-2.564-4.397l1.849-1.945
			c1.955,1.676,3.175,3.771,3.66,6.282c0.37,1.919,0.188,3.58-0.548,4.982c-0.735,1.402-2.145,2.304-4.228,2.707L551.802,189.158z
			 M557.205,184.556l1.378-0.266l-0.745-3.859c-0.477-2.471-1.491-3.556-3.044-3.256c-0.796,0.154-1.345,0.577-1.645,1.271
			c-0.301,0.693-0.346,1.586-0.135,2.679s0.702,1.988,1.473,2.686C555.257,184.508,556.163,184.757,557.205,184.556z"/>
		<path d="M566.147,195.86l-8.402,0.606c-0.789,0.057-1.401,0.309-1.838,0.758c-0.438,0.448-0.629,1.046-0.575,1.792
			c0.055,0.747,0.469,1.436,1.244,2.068l-2.354,1.608c-1.188-1.145-1.836-2.458-1.942-3.941c-0.107-1.483,0.314-2.786,1.267-3.907
			c0.951-1.122,2.298-1.746,4.041-1.871l8.309-0.6l-0.15-2.084l2.801-0.202l0.15,2.084l5.197-0.375l0.252,3.484l-5.197,0.375
			l0.314,4.355l-2.801,0.202L566.147,195.86z"/>
		<path d="M552.652,208.156l0.038-3.494l16.598,0.18l-0.037,3.494L552.652,208.156z M572.593,205.097
			c0.442-0.432,0.964-0.645,1.567-0.638c0.604,0.006,1.121,0.23,1.553,0.672c0.433,0.441,0.646,0.963,0.639,1.566
			s-0.23,1.121-0.672,1.553c-0.441,0.432-0.965,0.645-1.567,0.638c-0.604-0.007-1.121-0.23-1.553-0.672
			c-0.433-0.441-0.645-0.964-0.639-1.567C571.928,206.045,572.151,205.528,572.593,205.097z"/>
		<path d="M556.29,224.465c-1.572-0.165-2.77-0.866-3.591-2.103c-0.822-1.236-1.14-2.744-0.952-4.522
			c0.126-1.2,0.474-2.423,1.044-3.669c0.57-1.247,1.301-2.326,2.191-3.236l2.523,1.959c-1.65,1.771-2.57,3.557-2.759,5.356
			c-0.083,0.786,0.033,1.425,0.348,1.918c0.313,0.493,0.75,0.769,1.309,0.827c0.827,0.087,1.688-0.931,2.58-3.053
			c0.079-0.16,0.134-0.279,0.163-0.359c1.292-3.335,3.023-4.889,5.195-4.661c1.531,0.161,2.694,0.884,3.49,2.17
			c0.795,1.286,1.093,2.88,0.894,4.783c-0.2,1.902-0.948,3.643-2.243,5.222l-2.438-1.574c1.03-1.251,1.629-2.662,1.794-4.234
			c0.087-0.827,0.007-1.516-0.238-2.063c-0.246-0.549-0.669-0.854-1.269-0.917c-0.538-0.057-0.959,0.171-1.264,0.683
			c-0.226,0.353-0.456,0.856-0.692,1.511c-0.236,0.654-0.464,1.232-0.684,1.731s-0.459,0.981-0.717,1.446
			c-0.258,0.464-0.603,0.956-1.033,1.475C559.079,224.193,557.862,224.63,556.29,224.465z"/>
		<path d="M563.323,233.818l-8.229-1.809c-0.772-0.17-1.431-0.102-1.978,0.204c-0.546,0.306-0.899,0.824-1.061,1.555
			c-0.16,0.731,0.04,1.51,0.604,2.336l-2.716,0.873c-0.813-1.436-1.06-2.879-0.74-4.331c0.318-1.452,1.094-2.581,2.325-3.385
			c1.231-0.805,2.7-1.019,4.406-0.644l8.137,1.789l0.448-2.041l2.743,0.603l-0.449,2.041l5.089,1.119l-0.75,3.412l-5.089-1.119
			l-0.938,4.265l-2.743-0.603L563.323,233.818z"/>
		<path d="M546.882,241.77l1.032-3.338l15.858,4.905l-1.032,3.338L546.882,241.77z M566.867,244.523
			c0.547-0.288,1.107-0.343,1.684-0.165s1.009,0.541,1.297,1.087c0.289,0.546,0.344,1.107,0.165,1.684
			c-0.178,0.576-0.54,1.008-1.087,1.296c-0.546,0.288-1.107,0.343-1.684,0.165s-1.009-0.541-1.297-1.087s-0.343-1.107-0.165-1.684
			C565.959,245.243,566.321,244.812,566.867,244.523z"/>
		<path d="M542.644,252.224c0.903-2.124,2.403-3.645,4.5-4.561c2.097-0.917,4.312-0.877,6.647,0.116
			c2.335,0.994,3.896,2.601,4.68,4.821c0.785,2.22,0.688,4.479-0.288,6.775s-2.598,3.9-4.861,4.813l-1.521-2.884
			c1.71-0.832,2.851-1.918,3.42-3.257c0.57-1.339,0.619-2.691,0.148-4.055c-0.471-1.364-1.409-2.345-2.816-2.944
			s-2.806-0.617-4.197-0.057s-2.391,1.554-2.997,2.979c-0.606,1.425-0.527,3.047,0.237,4.863l-2.873,1.015
			C541.636,257.196,541.61,254.654,542.644,252.224z"/>
		<path d="M537.322,273.195c-1.356-0.812-2.146-1.953-2.371-3.419c-0.224-1.468,0.124-2.969,1.043-4.503
			c0.619-1.035,1.451-1.998,2.493-2.888c1.043-0.891,2.159-1.561,3.351-2.011l1.463,2.84c-2.243,0.911-3.829,2.142-4.759,3.694
			c-0.406,0.678-0.57,1.306-0.493,1.886c0.077,0.579,0.356,1.014,0.838,1.302c0.714,0.427,1.923-0.134,3.627-1.682
			c0.139-0.111,0.238-0.197,0.299-0.257c2.577-2.48,4.804-3.159,6.677-2.037c1.32,0.791,2.07,1.937,2.25,3.438
			c0.18,1.501-0.223,3.072-1.205,4.714c-0.984,1.641-2.395,2.905-4.235,3.791l-1.548-2.455c1.461-0.701,2.6-1.729,3.41-3.084
			c0.428-0.713,0.646-1.371,0.654-1.972c0.008-0.601-0.246-1.057-0.764-1.366c-0.463-0.278-0.941-0.25-1.434,0.086
			c-0.354,0.225-0.774,0.584-1.265,1.079c-0.49,0.494-0.94,0.921-1.35,1.282c-0.41,0.36-0.83,0.696-1.26,1.009
			c-0.43,0.312-0.949,0.613-1.559,0.902C539.966,274.125,538.678,274.008,537.322,273.195z"/>
	</g>
	<g>
		<path fill="none" d="M256.011,512.593c-62.168-35.902-83.468-115.416-47.575-177.599s115.386-83.489,177.554-47.588
			s83.468,115.416,47.575,177.599S318.178,548.495,256.011,512.593z"/>
		<path d="M230.076,481.645c-0.185,2.828-1.604,5.297-4.26,7.404c-2.655,2.108-5.391,2.979-8.205,2.612
			c-2.815-0.367-5.528-2.196-8.141-5.485l-4.5-5.668l17.08-13.562l4.655,5.862C229.137,475.87,230.26,478.815,230.076,481.645z
			 M223.435,486.2c3.91-3.104,4.086-6.896,0.53-11.374l-2.289-2.883l-11.704,9.294l2.541,3.2c1.642,2.067,3.392,3.261,5.251,3.577
			C219.622,488.332,221.513,487.727,223.435,486.2z"/>
		<path d="M233.474,507.767c-2.342,0.131-4.446-0.632-6.312-2.289s-2.871-3.657-3.017-5.998c-0.146-2.342,0.576-4.406,2.165-6.194
			c1.588-1.788,3.554-2.748,5.896-2.88c2.342-0.131,4.446,0.632,6.311,2.289c1.866,1.657,2.871,3.656,3.017,5.998
			c0.146,2.341-0.576,4.406-2.165,6.194C237.781,506.675,235.815,507.635,233.474,507.767z M227.429,499.517
			c0.068,1.411,0.67,2.62,1.805,3.628c1.135,1.008,2.406,1.464,3.815,1.365c1.408-0.099,2.645-0.746,3.708-1.943
			c1.063-1.197,1.561-2.501,1.493-3.911c-0.068-1.411-0.67-2.62-1.805-3.628c-1.135-1.009-2.407-1.464-3.815-1.365
			c-1.409,0.099-2.645,0.746-3.708,1.943C227.858,496.803,227.361,498.107,227.429,499.517z"/>
		<path d="M246.192,508.953l-4.619,7.708l-2.997-1.796l8.533-14.237l2.997,1.796l-1.556,2.596c0.952-0.617,2.01-0.917,3.175-0.898
			c1.164,0.02,2.246,0.328,3.245,0.927c2.248,1.347,3.216,3.188,2.907,5.525c2.521-1.012,4.834-0.887,6.939,0.375
			c1.605,0.962,2.608,2.231,3.011,3.806c0.402,1.574,0.046,3.289-1.065,5.145l-5.229,8.725l-2.997-1.796l4.684-7.814
			c1.572-2.623,1.27-4.586-0.906-5.891c-1.017-0.609-2.1-0.815-3.248-0.618s-2.115,0.909-2.898,2.137l-4.748,7.922l-2.997-1.796
			l4.684-7.815c0.813-1.355,1.168-2.494,1.066-3.417c-0.102-0.922-0.67-1.693-1.705-2.313c-1.035-0.62-2.142-0.816-3.32-0.59
			C247.968,506.859,246.983,507.634,246.192,508.953z"/>
		<path d="M281.052,535.337l-3.003-1.051l0.731-2.091c-1.838,1.099-3.847,1.266-6.025,0.504c-1.629-0.57-2.817-1.503-3.564-2.801
			c-0.748-1.297-0.851-2.716-0.312-4.258c0.539-1.541,1.512-2.495,2.918-2.862c1.406-0.368,3.081-0.212,5.024,0.468l4.269,1.494
			l0.206-0.589c0.728-2.081-0.066-3.527-2.382-4.338c-1.453-0.508-3.15-0.507-5.091,0.005l-0.751-2.577
			c2.433-0.846,4.856-0.846,7.271-0.002c1.845,0.646,3.188,1.64,4.03,2.98c0.841,1.341,0.913,3.013,0.212,5.016L281.052,535.337z
			 M279.794,528.353l0.463-1.325l-3.71-1.298c-2.375-0.831-3.824-0.5-4.345,0.991c-0.268,0.766-0.178,1.453,0.27,2.062
			s1.197,1.097,2.248,1.464c1.05,0.367,2.07,0.394,3.062,0.08C278.773,530.012,279.444,529.354,279.794,528.353z"/>
		<path d="M290.278,537.571l-3.4-0.806l3.826-16.151l3.4,0.805L290.278,537.571z M291.679,517.446
			c-0.325-0.526-0.417-1.082-0.278-1.669c0.139-0.587,0.471-1.043,0.997-1.367c0.526-0.325,1.082-0.418,1.669-0.278
			c0.586,0.139,1.042,0.472,1.367,0.997s0.417,1.082,0.278,1.669c-0.139,0.587-0.472,1.043-0.997,1.367
			c-0.526,0.324-1.082,0.417-1.669,0.278C292.458,518.304,292.003,517.972,291.679,517.446z"/>
		<path d="M300.971,530.499l-1.086,8.92l-3.468-0.422l2.006-16.478l3.468,0.423l-0.366,3.004c0.681-0.943,1.546-1.646,2.598-2.104
			c1.05-0.459,2.144-0.619,3.279-0.481c1.858,0.227,3.291,0.978,4.298,2.253c1.007,1.274,1.38,2.986,1.119,5.134l-1.229,10.097
			l-3.468-0.423l1.102-9.044c0.37-3.035-0.705-4.706-3.223-5.013c-1.197-0.146-2.289,0.125-3.272,0.812
			C301.742,527.864,301.157,528.972,300.971,530.499z"/>
		<path d="M340.991,517.701l0.349,3.445l-11.575,1.173l0.582,5.743l10.396-1.054l0.331,3.26l-10.396,1.053l0.588,5.805l11.948-1.21
			l0.349,3.445l-15.61,1.582l-2.198-21.699L340.991,517.701z"/>
		<path d="M347.763,521.453l4.776,4.432l2.243-6.19l4.024-1.009l-3.656,9.279l7.933,6.762l-4.176,1.046l-5.185-4.394l-2.41,6.297
			l-3.964,0.993l3.664-9.635l-7.396-6.543L347.763,521.453z"/>
		<path d="M369.38,514.253c2.056-0.852,4.108-0.868,6.157-0.05s3.563,2.408,4.542,4.772s1.048,4.586,0.21,6.666
			c-0.838,2.081-2.223,3.521-4.153,4.32c-1.932,0.799-4.016,0.671-6.253-0.384l3.27,7.898l-3.228,1.337l-8.663-20.931l3.228-1.336
			l1.11,2.682C366.064,516.763,367.324,515.104,369.38,514.253z M367.618,524.269c0.604,1.461,1.541,2.474,2.812,3.04
			c1.27,0.566,2.538,0.587,3.807,0.063c1.268-0.525,2.182-1.443,2.741-2.756s0.535-2.704-0.073-4.174
			c-0.608-1.471-1.574-2.5-2.898-3.089s-2.63-0.616-3.917-0.084c-1.288,0.533-2.173,1.468-2.654,2.804
			C366.952,521.409,367.014,522.808,367.618,524.269z"/>
		<path d="M397.971,510.207l-11.109,6.766c0.698,0.987,1.675,1.531,2.93,1.632c1.254,0.101,2.44-0.19,3.56-0.871
			c1.775-1.082,2.785-2.464,3.027-4.146l2.841,0.827c-0.564,2.512-2.072,4.513-4.523,6.006c-1.989,1.212-4.084,1.58-6.284,1.105
			c-2.2-0.474-3.979-1.826-5.337-4.056s-1.727-4.434-1.106-6.614c0.62-2.18,1.894-3.856,3.82-5.03
			c1.928-1.174,3.92-1.59,5.979-1.248s3.71,1.534,4.954,3.576L397.971,510.207z M385.434,514.628l8.125-4.949
			c-0.725-1.189-1.655-1.878-2.791-2.063c-1.135-0.185-2.249,0.055-3.341,0.721c-1.093,0.665-1.871,1.596-2.336,2.792
			C384.627,512.324,384.741,513.491,385.434,514.628z"/>
		<path d="M404.145,496.944c-1.354,1.071-2.024,2.318-2.013,3.741s0.605,2.876,1.78,4.36l4.414,5.579l-2.739,2.168l-10.301-13.018
			l2.74-2.168l2.071,2.618c-0.205-1.163-0.135-2.307,0.21-3.429c0.346-1.122,0.936-2.026,1.771-2.714l2.213,2.745
			C404.242,496.867,404.193,496.905,404.145,496.944z"/>
		<path d="M409.471,491.314l5.852,6.06c0.549,0.569,1.136,0.878,1.76,0.925c0.624,0.049,1.206-0.188,1.744-0.708
			c0.539-0.521,0.802-1.28,0.79-2.28l2.744,0.776c-0.117,1.646-0.71,2.984-1.779,4.018c-1.07,1.032-2.34,1.543-3.811,1.532
			c-1.471-0.012-2.813-0.646-4.026-1.902l-5.787-5.993l-1.503,1.451l-1.951-2.02l1.504-1.452l-3.619-3.748l2.513-2.427l3.619,3.748
			l3.142-3.033l1.951,2.021L409.471,491.314z"/>
		<path d="M410.904,481.024c-0.616,0.041-1.151-0.138-1.604-0.535c-0.454-0.397-0.701-0.904-0.742-1.521s0.138-1.151,0.535-1.605
			c0.397-0.453,0.904-0.7,1.521-0.741c0.616-0.04,1.151,0.138,1.605,0.535c0.453,0.398,0.7,0.904,0.741,1.521
			c0.041,0.616-0.138,1.151-0.535,1.604C412.027,480.737,411.521,480.983,410.904,481.024z M428.036,491.679l-2.303,2.628
			l-12.485-10.938l2.303-2.628L428.036,491.679z"/>
		<path d="M434.862,474.533c1.281,0.926,1.971,2.13,2.068,3.611s-0.378,2.946-1.425,4.396c-0.707,0.978-1.617,1.865-2.732,2.663
			s-2.285,1.369-3.511,1.716l-1.214-2.955c2.313-0.715,3.999-1.806,5.059-3.272c0.463-0.641,0.681-1.253,0.653-1.837
			c-0.027-0.583-0.269-1.04-0.724-1.369c-0.674-0.487-1.927-0.032-3.757,1.364c-0.148,0.099-0.255,0.176-0.32,0.23
			c-2.781,2.25-5.056,2.735-6.826,1.456c-1.248-0.901-1.896-2.107-1.947-3.619c-0.05-1.511,0.485-3.042,1.606-4.593
			c1.12-1.551,2.635-2.688,4.544-3.413l1.332,2.579c-1.517,0.572-2.738,1.498-3.663,2.779c-0.487,0.674-0.761,1.311-0.821,1.908
			c-0.06,0.599,0.155,1.074,0.644,1.427c0.438,0.317,0.917,0.329,1.437,0.037c0.37-0.193,0.821-0.516,1.353-0.966
			c0.53-0.45,1.016-0.838,1.455-1.162c0.438-0.323,0.886-0.622,1.341-0.897c0.455-0.273,0.998-0.529,1.631-0.765
			C432.309,473.381,433.582,473.608,434.862,474.533z"/>
		<path d="M443.135,456.052l-6.151,11.461c1.103,0.498,2.22,0.472,3.353-0.077c1.133-0.548,2.009-1.399,2.628-2.554
			c0.983-1.832,1.153-3.535,0.511-5.107l2.868-0.727c0.785,2.452,0.5,4.941-0.857,7.47c-1.102,2.053-2.721,3.432-4.858,4.137
			c-2.138,0.706-4.356,0.44-6.656-0.794s-3.734-2.948-4.305-5.143c-0.569-2.193-0.32-4.284,0.747-6.272
			c1.066-1.988,2.574-3.355,4.521-4.104c1.948-0.748,3.977-0.557,6.084,0.575L443.135,456.052z M434.564,466.214l4.499-8.383
			c-1.228-0.658-2.378-0.78-3.451-0.365c-1.072,0.416-1.911,1.187-2.516,2.313c-0.605,1.127-0.806,2.324-0.6,3.591
			C432.702,464.637,433.392,465.585,434.564,466.214z"/>
	</g>
	<g>
	</g>
	<g>
	</g>
	<g>
	</g>
	<g>
	</g>
	<g>
	</g>
	<g>
	</g>
	<g>
	</g>
	<g>
	</g>
	<g>
	</g>
	<g>
	</g>
	<g>
	</g>
	<g>
	</g>
	<g>
	</g>
	<g>
	</g>
	<g>
	</g>
</g>
</svg>
